<?xml version="1.0" encoding="utf-8"?>
<!-- Generator: Adobe Illustrator 19.0.0, SVG Export Plug-In . SVG Version: 6.00 Build 0)  -->
<svg version="1.1" id="Layer_1" xmlns="http://www.w3.org/2000/svg" xmlns:xlink="http://www.w3.org/1999/xlink" x="0px" y="0px"
	 viewBox="-175 267 260 260" style="enable-background:new -175 267 260 260;" xml:space="preserve">
<style type="text/css">
	.st0{fill:#FFFFFF;}
</style>
<path id="XMLID_10_" class="st0" d="M-45,304c-51.3,0-93,41.7-93,93s41.7,93,93,93s93-41.7,93-93S6.3,304-45,304z M-114.9,397
	c0-15.1,4.8-29.1,13-40.5l97.4,97.4c-11.4,8.2-25.5,13-40.5,13C-83.5,466.9-114.9,435.5-114.9,397z M11.9,437.5l-97.4-97.4
	c11.4-8.2,25.4-13,40.5-13c38.5,0,69.9,31.3,69.9,69.9C24.9,412.1,20.1,426.1,11.9,437.5z"/>
</svg>
