<?xml version="1.0" encoding="utf-8"?>
<!-- Generator: Adobe Illustrator 19.0.0, SVG Export Plug-In . SVG Version: 6.00 Build 0)  -->
<svg version="1.1" id="Layer_1" xmlns="http://www.w3.org/2000/svg" xmlns:xlink="http://www.w3.org/1999/xlink" x="0px" y="0px"
	 viewBox="0 0 209 209" style="enable-background:new 0 0 209 209;" xml:space="preserve">
<style type="text/css">
	.st0{fill:#FFFFFF;}
</style>
<path id="XMLID_10_" class="st0" d="M104.5,0C46.9,0,0,46.9,0,104.5S46.9,209,104.5,209c57.6,0,104.5-46.9,104.5-104.5
	S162.1,0,104.5,0z M26,104.5c0-17,5.4-32.7,14.6-45.5L150,168.4c-12.8,9.2-28.6,14.6-45.5,14.6C61.2,183,26,147.8,26,104.5z
	 M168.4,150L59,40.6C71.8,31.4,87.5,26,104.5,26c43.3,0,78.5,35.2,78.5,78.5C183,121.5,177.6,137.2,168.4,150z"/>
</svg>
