<?xml version="1.0" encoding="utf-8"?>
<!-- Generator: Adobe Illustrator 19.0.0, SVG Export Plug-In . SVG Version: 6.00 Build 0)  -->
<svg version="1.1" xmlns="http://www.w3.org/2000/svg" xmlns:xlink="http://www.w3.org/1999/xlink" x="0px" y="0px"
	 viewBox="0 0 136 189.4" style="enable-background:new 0 0 136 189.4;" xml:space="preserve">
<style type="text/css">
	.st0{fill:#FFFFFF;}
</style>
<g id="Layer_3">
	<g id="XMLID_1_">
		<rect id="XMLID_2_" y="183" class="st0" width="136" height="6.4"/>
		<path id="XMLID_11_" class="st0" d="M127.6,82.4h-0.7V60.7C126.8,21.7,100.4,0,68,0C35.6,0,9.2,21.7,9.2,60.7v21.7H8.4
			c-5.2,0-8.4,2.5-8.4,9.2v87.6h136V91.7C136,84.9,132.8,82.4,127.6,82.4z M29.5,60.7C29.5,33.8,45.7,22,68,22s38.5,11.8,38.5,38.7
			v21.7H29.5V60.7z M78.4,160.4H57.6l3.4-29.8c-3.5-2.3-5.8-6.2-5.8-10.7c0-7.1,5.7-12.8,12.8-12.8s12.8,5.7,12.8,12.8
			c0,4.5-2.3,8.4-5.8,10.7L78.4,160.4z"/>
	</g>
</g>
<g id="Layer_2">
	<g id="Layer_1">
	</g>
</g>
</svg>
