<?xml version="1.0" encoding="utf-8"?>
<!-- Generator: Adobe Illustrator 19.0.0, SVG Export Plug-In . SVG Version: 6.00 Build 0)  -->
<svg version="1.1" id="Layer_1" xmlns="http://www.w3.org/2000/svg" xmlns:xlink="http://www.w3.org/1999/xlink" x="0px" y="0px"
	 viewBox="-263.7 302.6 189.4 189.4" style="enable-background:new -263.7 302.6 189.4 189.4;" xml:space="preserve">
<style type="text/css">
	.st0{fill:#FFFFFF;}
</style>
<g id="Layer_3">
	<g id="XMLID_1_">
		<path id="XMLID_11_" class="st0" d="M-116.3,388.6h-0.6v-19.2c-0.1-34.5-23.4-53.6-52.1-53.6s-52,19.2-52,53.6v19.2h-0.7
			c-4.6,0-7.4,2.2-7.4,8.1v82.4h120.2v-82.3C-108.9,390.8-111.7,388.6-116.3,388.6z M-203,369.4c0-23.8,14.3-34.2,34-34.2
			s34,10.4,34,34.2v19.2H-203V369.4z M-159.8,457.5h-18.4l3-26.3c-3.1-2-5.1-5.5-5.1-9.5c0-6.3,5-11.3,11.3-11.3
			c6.3,0,11.3,5,11.3,11.3c0,4-2,7.4-5.1,9.5L-159.8,457.5z"/>
	</g>
</g>
<g id="Layer_2">
	<g id="Layer_1_1_">
	</g>
</g>
</svg>
