<?xml version="1.0" encoding="utf-8"?>
<!-- Generator: Adobe Illustrator 19.0.0, SVG Export Plug-In . SVG Version: 6.00 Build 0)  -->
<svg version="1.1" id="Layer_1" xmlns="http://www.w3.org/2000/svg" xmlns:xlink="http://www.w3.org/1999/xlink" x="0px" y="0px"
	 viewBox="0 0 365.4 197.9" style="enable-background:new 0 0 365.4 197.9;" xml:space="preserve">
<style type="text/css">
	.st0{fill:#FFFFFF;}
</style>
<g>
	<g>
		<path class="st0" d="M359.2,91c-0.7-0.9-18.4-23.1-48.8-45.5C269.8,15.8,225.7,0,182.7,0C139.8,0,95.6,15.8,55.1,45.6
			C24.7,67.9,7,90.1,6.3,91L0,98.9l6.3,7.9c0.7,0.9,18.4,23.1,48.8,45.4c40.6,29.8,84.7,45.6,127.6,45.6
			c42.9,0,87.1-15.8,127.6-45.6c30.4-22.3,48.1-44.5,48.8-45.4l6.3-7.9L359.2,91z M182.7,168.3c-38.2,0-69.3-31.1-69.3-69.3
			c0-6,0.8-11.8,2.2-17.3l-15.8-2.7c-1.6,6.4-2.4,13.1-2.4,20c0,24.7,10.5,47,27.4,62.6c-21.6-8-40.1-19.2-53.9-29.4
			c-17.2-12.6-30.1-25.3-37.5-33.2c7.4-7.9,20.3-20.6,37.5-33.2c13.9-10.1,32.3-21.4,53.9-29.4l10.6,12
			c12.4-11.6,29.1-18.7,47.3-18.7c38.2,0,69.3,31.1,69.3,69.3S220.9,168.3,182.7,168.3L182.7,168.3z M294.6,132.1
			c-13.9,10.1-32.3,21.4-53.9,29.4c16.8-15.6,27.4-37.9,27.4-62.6c0-24.7-10.5-47-27.4-62.6c21.6,8,40.1,19.2,53.9,29.4
			c17.2,12.6,30.1,25.3,37.5,33.2C324.7,106.8,311.8,119.6,294.6,132.1L294.6,132.1z M294.6,132.1"/>
	</g>
	<path class="st0" d="M138.6,85.5c-1.3,4.3-2,8.8-2,13.5c0,25.5,20.6,46.1,46.1,46.1c25.5,0,46.1-20.6,46.1-46.1
		c0-25.5-20.6-46.1-46.1-46.1c-12.4,0-23.7,4.9-31.9,12.9l22.7,25.6L138.6,85.5z M138.6,85.5"/>
</g>
</svg>
