<?xml version="1.0" encoding="utf-8"?>
<!-- Generator: Adobe Illustrator 19.0.0, SVG Export Plug-In . SVG Version: 6.00 Build 0)  -->
<svg version="1.1" id="Layer_1" xmlns="http://www.w3.org/2000/svg" xmlns:xlink="http://www.w3.org/1999/xlink" x="0px" y="0px"
	 viewBox="-122 214.6 365.4 365.4" style="enable-background:new -122 214.6 365.4 365.4;" xml:space="preserve">
<style type="text/css">
	.st0{fill:#FFFFFF;}
</style>
<g>
	<path class="st0" d="M58.8,496.7c-60.5,0-118.6-30.2-172.6-89.8l-7.9-8.7l7.3-9.3c2.8-3.5,69-86.7,167.9-90.7
		c63.1-2.6,124.1,27.6,181.5,89.7l8.2,8.9l-7.6,9.4c-0.7,0.9-18,22.3-47.5,44.1c-39.4,29.1-82.2,45.2-123.8,46.4
		C62.5,496.6,60.6,496.7,58.8,496.7z M-89.9,397.1c49.1,50.8,100.7,75.7,153.5,74.1c71.5-2.1,127-52.3,147.4-73.6
		c-50.6-51.4-103.3-76.4-156.6-74.2C-16.3,326.3-70.2,376.1-89.9,397.1z"/>
</g>
<g>
	<circle class="st0" cx="60.6" cy="397.3" r="53.5"/>
</g>
</svg>
