<?xml version="1.0" encoding="utf-8"?>
<!-- Generator: Adobe Illustrator 23.1.0, SVG Export Plug-In . SVG Version: 6.00 Build 0)  -->
<svg version="1.1" id="Layer_1" xmlns="http://www.w3.org/2000/svg" xmlns:xlink="http://www.w3.org/1999/xlink" x="0px" y="0px"
	 viewBox="0 0 100 100" style="enable-background:new 0 0 100 100;" xml:space="preserve">
<style type="text/css">
	.st0{fill:#231F20;}
</style>
<g>
	<path class="st0" d="M46.5,37.9v-7.8c0-1.5-1.2-2.7-2.7-2.7H22.5c-0.7,0-1.4,0.3-1.9,0.8s-0.8,1.2-0.8,1.9v7.8l0.1,5.5
		c0.2,0.4,0.4,0.8,0.8,1.1l10.6,8.8c0.5,0.4,1.1,0.6,1.8,0.6s1.2-0.2,1.8-0.6l10.6-8.8c0.4-0.3,0.6-0.7,0.8-1.1L46.5,37.9z M41,41.1
		l-7.9,6.6l-7.9-6.6v-8.3H41V41.1z"/>
</g>
<path class="st0" d="M90,66.1H10c-0.9,0-1.6-0.7-1.6-1.6v-2.7c0-0.9,0.7-1.6,1.6-1.6h80c0.9,0,1.6,0.7,1.6,1.6v2.7
	C91.6,65.3,90.9,66.1,90,66.1z"/>
</svg>
