<?xml version="1.0" encoding="utf-8"?>
<!-- Generator: Adobe Illustrator 23.1.0, SVG Export Plug-In . SVG Version: 6.00 Build 0)  -->
<svg version="1.1" id="Layer_1" xmlns="http://www.w3.org/2000/svg" xmlns:xlink="http://www.w3.org/1999/xlink" x="0px" y="0px"
	 viewBox="0 0 100 100" style="enable-background:new 0 0 100 100;" xml:space="preserve">
<style type="text/css">
	.st0{fill:#231F20;}
</style>
<g>
	<path class="st0" d="M61.7,35.7c7.9,0,14.3,6.4,14.3,14.3v0c0,7.9-6.4,14.3-14.3,14.3H38.3c-7.9,0-14.3-6.4-14.3-14.3v0
		c0-7.9,6.4-14.3,14.3-14.3H61.7 M61.7,30.9H38.3c-10.5,0-19.1,8.6-19.1,19.1c0,10.5,8.6,19.1,19.1,19.1h23.3
		c10.5,0,19.1-8.6,19.1-19.1C80.8,39.5,72.2,30.9,61.7,30.9L61.7,30.9z"/>
</g>
<g>
	<circle class="st0" cx="60.1" cy="50" r="10.6"/>
</g>
</svg>
