<?xml version="1.0" encoding="utf-8"?>
<!-- Generator: Adobe Illustrator 23.1.0, SVG Export Plug-In . SVG Version: 6.00 Build 0)  -->
<svg version="1.1" id="Layer_1" xmlns="http://www.w3.org/2000/svg" xmlns:xlink="http://www.w3.org/1999/xlink" x="0px" y="0px"
	 viewBox="0 0 100 100" style="enable-background:new 0 0 100 100;" xml:space="preserve">
<style type="text/css">
	.st0{fill:#231F20;}
</style>
<g>
	<path class="st0" d="M83.8,65.1h5.5c0.4,0,0.7-0.5,0.4-0.9L78,52.5h10.7v-5.3H78l11.6-11.7c0.4-0.4,0.1-0.9-0.4-0.9h-5.5
		c-0.5,0-1.1,0.3-1.5,0.6L68.6,48.9c-0.5,0.5-0.5,1.4,0,2l13.6,13.6C82.6,65,83.1,65.1,83.8,65.1z"/>
</g>
<g>
	<path class="st0" d="M16.3,34.7h-5.5c-0.4,0-0.7,0.5-0.4,0.9L22,47.2H11.4v5.3H22L10.4,64.2c-0.4,0.4-0.1,0.9,0.4,0.9h5.5
		c0.5,0,1.1-0.3,1.5-0.6l13.6-13.6c0.5-0.5,0.5-1.4,0-2L17.8,35.3C17.4,34.9,16.9,34.7,16.3,34.7z"/>
</g>
<g>
	<g>
		<rect x="38" y="26.4" class="st0" width="4.8" height="47"/>
	</g>
	<g>
		<rect x="57.2" y="26.4" class="st0" width="4.8" height="47"/>
	</g>
</g>
</svg>
