<?xml version="1.0" encoding="utf-8"?>
<!-- Generator: Adobe Illustrator 23.1.0, SVG Export Plug-In . SVG Version: 6.00 Build 0)  -->
<svg version="1.1" id="Layer_1" xmlns="http://www.w3.org/2000/svg" xmlns:xlink="http://www.w3.org/1999/xlink" x="0px" y="0px"
	 viewBox="0 0 86.9 50" style="enable-background:new 0 0 86.9 50;" xml:space="preserve">
<style type="text/css">
	.st0{fill:#DDDDDD;}
</style>
<polygon class="st0" points="79.1,19.8 79.1,38.3 83.1,38.3 83.1,19.8 86.9,19.8 81.1,11.5 75.3,19.8 "/>
<polygon class="st0" points="7.8,30 7.8,11.5 3.8,11.5 3.8,30 0,30 5.8,38.3 11.6,30 "/>
<g>
	<polygon class="st0" points="46.2,34 55.9,48.1 72.3,48.1 72.3,42.9 59,42.9 49.5,29.1 	"/>
	<polygon class="st0" points="28,42.9 14.6,42.9 14.6,48.1 31.1,48.1 46.8,25 46.8,25 59,7.1 72.3,7.1 72.3,1.9 55.9,1.9 	"/>
	<polygon class="st0" points="14.6,1.9 14.6,7.1 28,7.1 37.5,21.1 40.9,16.2 31.1,1.9 	"/>
</g>
</svg>
