<?xml version="1.0" encoding="utf-8"?>
<!-- Generator: Adobe Illustrator 23.1.0, SVG Export Plug-In . SVG Version: 6.00 Build 0)  -->
<svg version="1.1" id="Layer_1" xmlns="http://www.w3.org/2000/svg" xmlns:xlink="http://www.w3.org/1999/xlink" x="0px" y="0px"
	 viewBox="0 0 86.9 50" style="enable-background:new 0 0 86.9 50;" xml:space="preserve">
<style type="text/css">
	.st0{fill:#DDDDDD;}
</style>
<polygon class="st0" points="11.6,19.8 5.8,11.5 0,19.8 3.8,19.8 3.8,38.3 7.8,38.3 7.8,19.8 "/>
<polygon class="st0" points="75.3,30 81.1,38.3 86.9,30 83.1,30 83.1,11.5 79.1,11.5 79.1,30 "/>
<g>
	<polygon class="st0" points="37.4,29.1 27.9,42.9 14.6,42.9 14.6,48.1 31,48.1 40.7,34 	"/>
	<polygon class="st0" points="31,1.9 14.6,1.9 14.6,7.1 27.9,7.1 40.1,25 40.1,25 55.8,48.1 72.3,48.1 72.3,42.9 58.9,42.9 	"/>
	<polygon class="st0" points="55.8,1.9 46,16.2 49.4,21.1 58.9,7.1 72.3,7.1 72.3,1.9 	"/>
</g>
</svg>
