<?xml version="1.0" encoding="utf-8"?>
<!-- Generator: Adobe Illustrator 19.0.0, SVG Export Plug-In . SVG Version: 6.00 Build 0)  -->
<svg version="1.1" id="Layer_1" xmlns="http://www.w3.org/2000/svg" xmlns:xlink="http://www.w3.org/1999/xlink" x="0px" y="0px"
	 viewBox="0 0 100 100" style="enable-background:new 0 0 100 100;" xml:space="preserve">
<style type="text/css">
	.st0{fill:#FFFFFF;}
	.st1{opacity:0.2;fill:#FFFFFF;enable-background:new    ;}
</style>
<g id="XMLID_19_">
	<path id="XMLID_20_" class="st0" d="M56.6,33.7l9.4,9.4L42.2,66.8l-9.4-9.4L56.6,33.7z M73.2,31.4l-4.2-4.2c-1.6-1.6-4.3-1.6-5.9,0
		l-4,4l9.5,9.4l4.7-4.7C74.4,34.7,74.4,32.8,73.2,31.4z M28,70.7c-0.2,0.8,0.5,1.5,1.2,1.2l10.5-2.5l-9.4-9.5L28,70.7z"/>
</g>
<path class="st1" d="M50,12c21,0,38,17,38,38S71,88,50,88S12,71,12,50S29,12,50,12 M50,5C25.1,5,5,25.1,5,50s20.1,45,45,45
	s45-20.1,45-45S74.9,5,50,5L50,5z"/>
</svg>
