<?xml version="1.0" encoding="utf-8"?>
<!-- Generator: Adobe Illustrator 23.1.0, SVG Export Plug-In . SVG Version: 6.00 Build 0)  -->
<svg version="1.1" id="Layer_1" xmlns="http://www.w3.org/2000/svg" xmlns:xlink="http://www.w3.org/1999/xlink" x="0px" y="0px"
	 viewBox="0 0 100 100" style="enable-background:new 0 0 100 100;" xml:space="preserve">
<style type="text/css">
	.st0{fill:#231F20;}
</style>
<g>
	<polygon class="st0" points="59.2,45.3 53.4,39.5 38.9,54.1 44.7,59.9 	"/>
	<path class="st0" d="M35.9,62.2c-0.2,0.5,0.3,0.9,0.8,0.8l6.3-1.5l-5.7-5.7L35.9,62.2z"/>
	<path class="st0" d="M63.5,38.3L61,35.7c-1-1-2.5-1-3.6,0l-2.4,2.4l5.7,5.7l2.9-2.9C64.3,40.2,64.3,39,63.5,38.3z"/>
</g>
<g>
	<path class="st0" d="M49.5,77.8c-15.6,0-28.3-12.7-28.3-28.3s12.7-28.3,28.3-28.3s28.3,12.7,28.3,28.3S65.1,77.8,49.5,77.8z
		 M49.5,26.7c-12.6,0-22.8,10.2-22.8,22.8s10.2,22.8,22.8,22.8s22.8-10.2,22.8-22.8S62.1,26.7,49.5,26.7z"/>
</g>
</svg>
