<?xml version="1.0" encoding="utf-8"?>
<!-- Generator: Adobe Illustrator 23.1.0, SVG Export Plug-In . SVG Version: 6.00 Build 0)  -->
<svg version="1.1" id="Layer_1" xmlns="http://www.w3.org/2000/svg" xmlns:xlink="http://www.w3.org/1999/xlink" x="0px" y="0px"
	 viewBox="0 0 100 100" style="enable-background:new 0 0 100 100;" xml:space="preserve">
<style type="text/css">
	.st0{fill:#231F20;}
</style>
<g>
	<g id="XMLID_24_">
		<path class="st0" d="M36.7,29.2l14,5.1l9.2,3.3L50.7,41l-14,5.1v-8.6V29.2 M35,24.5c-1.3,0-2.3,1-2.3,2.4v10.7v10.9
			c0,1.3,1.2,2.3,2.4,2.3c0.3,0,0.5,0,0.8-0.1l16.2-5.9l13.3-4.9c2.1-0.8,2.1-3.7,0-4.5l-13.3-4.8l-16.2-5.9
			C35.6,24.6,35.3,24.5,35,24.5L35,24.5z"/>
	</g>
	<path id="XMLID_26_" class="st0" d="M34.6,64.5c-2.1-0.8-2.1-3.7,0-4.5l13.3-4.8l16.2-5.9c1.5-0.5,3.2,0.6,3.2,2.2v10.8v10.8
		c0,1.7-1.6,2.8-3.2,2.2l-16.2-5.9L34.6,64.5z"/>
</g>
</svg>
