<?xml version="1.0" encoding="utf-8"?>
<!-- Generator: Adobe Illustrator 19.0.0, SVG Export Plug-In . SVG Version: 6.00 Build 0)  -->
<svg version="1.1" id="Layer_1" xmlns="http://www.w3.org/2000/svg" xmlns:xlink="http://www.w3.org/1999/xlink" x="0px" y="0px"
	 viewBox="0 0 100 100" style="enable-background:new 0 0 100 100;" xml:space="preserve">
<style type="text/css">
	.st0{fill:#FFFFFF;}
	.st1{opacity:0.2;fill:#FFFFFF;enable-background:new    ;}
</style>
<g>
	<path id="XMLID_24_" class="st0" d="M65.4,35.4c2.1,0.8,2.1,3.7,0,4.5l-13.3,4.9l-16.2,5.9c-1.5,0.5-3.2-0.6-3.2-2.2V37.6V26.9
		c0-1.7,1.6-2.8,3.2-2.2l16.2,5.9L65.4,35.4z"/>
	<path id="XMLID_26_" class="st0" d="M34.6,64.5c-2.1-0.8-2.1-3.7,0-4.5l13.3-4.8l16.2-5.9c1.5-0.5,3.2,0.6,3.2,2.2v10.8v10.8
		c0,1.7-1.6,2.8-3.2,2.2l-16.2-5.9L34.6,64.5z"/>
</g>
<path class="st1" d="M50,12c21,0,38,17,38,38S71,88,50,88S12,71,12,50S29,12,50,12 M50,5C25.1,5,5,25.1,5,50s20.1,45,45,45
	s45-20.1,45-45S74.9,5,50,5L50,5z"/>
</svg>
