<?xml version="1.0" encoding="utf-8"?>
<!-- Generator: Adobe Illustrator 23.1.0, SVG Export Plug-In . SVG Version: 6.00 Build 0)  -->
<svg version="1.1" id="Layer_1" xmlns="http://www.w3.org/2000/svg" xmlns:xlink="http://www.w3.org/1999/xlink" x="0px" y="0px"
	 viewBox="0 0 100 100" style="enable-background:new 0 0 100 100;" xml:space="preserve">
<style type="text/css">
	.st0{fill:#231F20;}
</style>
<path class="st0" d="M39.4,67h6.1c0.5,0,0.8-0.6,0.4-1l-13-13.1h11.9V47H32.9l12.9-13c0.4-0.4,0.1-1-0.4-1h-6.1
	c-0.6,0-1.2,0.3-1.7,0.7L22.5,48.9c-0.6,0.6-0.6,1.6,0,2.2l15.2,15.2C38.1,66.8,38.7,67,39.4,67z"/>
<path class="st0" d="M60.1,33H54c-0.5,0-0.8,0.6-0.4,1l12.9,13H54.6v5.9h11.9L53.5,66c-0.4,0.4-0.1,1,0.4,1H60
	c0.6,0,1.2-0.3,1.7-0.7l15.2-15.2c0.6-0.6,0.6-1.6,0-2.2L61.8,33.7C61.3,33.2,60.7,33,60.1,33z"/>
</svg>
