<?xml version="1.0" encoding="utf-8"?>
<!-- Generator: Adobe Illustrator 19.0.0, SVG Export Plug-In . SVG Version: 6.00 Build 0)  -->
<svg version="1.1" id="Layer_1" xmlns="http://www.w3.org/2000/svg" xmlns:xlink="http://www.w3.org/1999/xlink" x="0px" y="0px"
	 viewBox="0 0 100 100" style="enable-background:new 0 0 100 100;" xml:space="preserve">
<style type="text/css">
	.st0{fill:#FFFFFF;}
	.st1{opacity:0.2;fill:#FFFFFF;enable-background:new    ;}
</style>
<g>
	<path id="XMLID_56_" class="st0" d="M71,43.1L27.3,68c-1.6,0.8-0.9,3.2,0.8,3.2h43.7c0.9,0,1.8-0.7,1.8-1.8V44.6
		C73.6,43.3,72.1,42.5,71,43.1z"/>
	<path id="XMLID_59_" class="st0" d="M46.8,51.6c7,0,12.7-5.7,12.7-12.7s-5.7-12.7-12.7-12.7s-12.7,5.7-12.7,12.7
		S39.7,51.6,46.8,51.6z"/>
</g>
<path class="st1" d="M50,11.8c21,0,38,17,38,38s-17,38-38,38s-38-17-38-38S29,11.8,50,11.8 M50,4.8c-24.9,0-45,20.1-45,45
	s20.1,45,45,45s45-20.1,45-45S74.9,4.8,50,4.8L50,4.8z"/>
</svg>
