<?xml version="1.0" encoding="utf-8"?>
<!-- Generator: Adobe Illustrator 19.0.0, SVG Export Plug-In . SVG Version: 6.00 Build 0)  -->
<svg version="1.1" id="Layer_1" xmlns="http://www.w3.org/2000/svg" xmlns:xlink="http://www.w3.org/1999/xlink" x="0px" y="0px"
	 viewBox="0 0 100 100" style="enable-background:new 0 0 100 100;" xml:space="preserve">
<style type="text/css">
	.st0{fill:#FFFFFF;enable-background:new    ;}
	.st1{opacity:0.2;fill:#FFFFFF;enable-background:new    ;}
</style>
<path id="XMLID_16_" class="st0" d="M56.1,61.3l6.2,11.5H70l-9.3-17L75,38.3h-8.2l-9.3,11.4l-6.2-11.5H39.5l0.6-4.6
	c0.5-3.5,2.2-5.1,5.7-5.1h6.4l1-6.7h-6.9c-7.4,0-11.8,3.8-12.9,11.3L32.8,38h-4.9l-1,6.7h4.9L28,72.5h6.8l3.8-27.7h8.5l5.5,10.4
	L38.4,72.8h8.2L56.1,61.3z"/>
<path class="st1" d="M50,12.3c21,0,38,17,38,38s-17,38-38,38s-38-17-38-38S29,12.3,50,12.3 M50,5.3c-24.9,0-45,20.1-45,45
	s20.1,45,45,45s45-20.1,45-45S74.9,5.3,50,5.3L50,5.3z"/>
</svg>
