<?xml version="1.0" encoding="utf-8"?>
<!-- Generator: Adobe Illustrator 19.0.0, SVG Export Plug-In . SVG Version: 6.00 Build 0)  -->
<svg version="1.1" id="Layer_1" xmlns="http://www.w3.org/2000/svg" xmlns:xlink="http://www.w3.org/1999/xlink" x="0px" y="0px"
	 viewBox="0 0 100 100" style="enable-background:new 0 0 100 100;" xml:space="preserve">
<style type="text/css">
	.st0{fill:#FFFFFF;enable-background:new    ;}
	.st1{opacity:0.2;fill:#FFFFFF;enable-background:new    ;}
</style>
<path id="XMLID_45_" class="st0" d="M31.5,31.1c-10.3,10.3-10.3,27.1,0,37.5l0,0c5.2,5.2,11.9,7.8,18.8,7.8s13.6-2.6,18.8-7.8
	c10.3-10.3,10.3-27.1,0-37.5S41.9,20.8,31.5,31.1z M36.9,63.3c-6.5-6.5-7.3-16.6-2.3-23.9L61,65.8C53.4,70.6,43.4,69.9,36.9,63.3z
	 M66.2,60.4L39.8,34.1c7.4-4.9,17.5-4.1,23.9,2.3S71,53.1,66.2,60.4z"/>
<path class="st1" d="M50.3,11.9c21,0,38,17,38,38s-17,38-38,38s-38-17-38-38S29.3,11.9,50.3,11.9 M50.3,4.9c-24.9,0-45,20.1-45,45
	s20.1,45,45,45s45-20.1,45-45S75.2,4.9,50.3,4.9L50.3,4.9z"/>
</svg>
