<?xml version="1.0" encoding="utf-8"?>
<!-- Generator: Adobe Illustrator 19.0.0, SVG Export Plug-In . SVG Version: 6.00 Build 0)  -->
<svg version="1.1" id="Layer_1" xmlns="http://www.w3.org/2000/svg" xmlns:xlink="http://www.w3.org/1999/xlink" x="0px" y="0px"
	 viewBox="0 0 100 100" style="enable-background:new 0 0 100 100;" xml:space="preserve">
<style type="text/css">
	.st0{fill:#FFFFFF;}
	.st1{opacity:0.2;fill:#FFFFFF;enable-background:new    ;}
</style>
<g>
	<path id="XMLID_77_" class="st0" d="M42.9,71.5c-0.6,0-2.2,0-2.2-2V55.7c0-2.4-0.8-4.2-1.9-5.6c1.1-1.4,1.9-3.3,1.9-5.6V30.7
		c0-0.5,0.1-0.9,0.3-1.1c0.3-0.3,0.5-0.6,0.9-0.8c0.3-0.1,0.9-0.1,1.1-0.1c1.9,0,3.5-1.5,3.5-3.5c0-1.9-1.5-3.5-3.5-3.5
		c-4.7,0-7.4,2.6-8.6,5.4c-0.5,1-0.8,2.2-0.8,3.6v13.8c0,0.5-0.1,0.8-0.3,1.1c-0.3,0.3-0.5,0.6-0.9,0.8c-0.3,0.2-0.9,0.1-1.1,0.1
		c-1.9,0-3.5,1.5-3.5,3.5c0,1.9,1.5,3.4,3.3,3.5l0,0l0,0c1.1,0.1,2.5,0.6,2.5,2.2v13.9v0.1c0.1,3.5,2.6,8.8,9.2,8.8
		c1.9,0,3.5-1.5,3.5-3.5C46.3,73.1,44.8,71.5,42.9,71.5z"/>
	<path id="XMLID_36_" class="st0" d="M57.4,28.6c0.6,0,2.2,0,2.2,2v13.8c0,2.4,0.8,4.2,1.9,5.6c-1.1,1.4-1.9,3.3-1.9,5.6v13.8
		c0,0.5-0.1,0.9-0.3,1.1c-0.3,0.3-0.5,0.6-0.9,0.8c-0.3,0.2-0.9,0.1-1.1,0.1c-1.9,0-3.5,1.5-3.5,3.5c0,1.9,1.5,3.5,3.5,3.5
		c4.7,0,7.4-2.6,8.6-5.4c0.5-1,0.8-2.2,0.8-3.6V55.7c0-0.5,0.1-0.8,0.3-1.1c0.3-0.3,0.5-0.6,0.9-0.8c0.3-0.1,0.9-0.1,1.1-0.1
		c1.9,0,3.5-1.5,3.5-3.5c0-1.9-1.5-3.4-3.3-3.5l0,0l0,0c-1.1-0.1-2.5-0.6-2.5-2.2v-14v-0.1c-0.1-3.5-2.6-8.8-9.2-8.8
		c-1.9,0-3.5,1.5-3.5,3.5C54,27,55.5,28.6,57.4,28.6z"/>
</g>
<path class="st1" d="M50.1,12c21,0,38,17,38,38s-17,38-38,38s-38-17-38-38S29.2,12,50.1,12 M50.1,5c-24.9,0-45,20.1-45,45
	s20.1,45,45,45s45-20.1,45-45S75,5,50.1,5L50.1,5z"/>
</svg>
