<?xml version="1.0" encoding="utf-8"?>
<!-- Generator: Adobe Illustrator 19.0.0, SVG Export Plug-In . SVG Version: 6.00 Build 0)  -->
<svg version="1.1" id="Layer_1" xmlns="http://www.w3.org/2000/svg" xmlns:xlink="http://www.w3.org/1999/xlink" x="0px" y="0px"
	 viewBox="0 0 100 100" style="enable-background:new 0 0 100 100;" xml:space="preserve">
<style type="text/css">
	.st0{fill:#FFFFFF;}
	.st1{opacity:0.2;fill:#FFFFFF;enable-background:new    ;}
</style>
<g>
	<path id="XMLID_40_" class="st0" d="M32.8,28.2c0.6,0,2.1,0,2.3,2V44c0,2.4,0.8,4.3,1.9,5.7c-1.2,1.4-1.9,3.3-1.9,5.7v13.8
		c0,0.4-0.2,0.8-0.3,1.1c-0.2,0.4-0.5,0.6-0.9,0.7c-0.4,0.2-0.8,0.2-1.1,0.2c-2,0-3.5,1.6-3.5,3.5c0,2,1.6,3.5,3.5,3.5
		c4.7,0,7.4-2.7,8.6-5.4c0.4-1,0.7-2.2,0.7-3.7V55.3c0-0.4,0.2-0.8,0.3-1.1c0.2-0.4,0.5-0.6,0.9-0.7c0.4-0.2,0.8-0.2,1.1-0.2
		c2,0,3.5-1.6,3.5-3.5s-1.4-3.4-3.3-3.5l0,0l0,0c-1.2,0-2.6-0.5-2.6-2.3V30l0,0c-0.1-3.6-2.7-8.8-9.3-8.8c-2,0-3.5,1.6-3.5,3.5
		C29.3,26.5,31,28.2,32.8,28.2z"/>
	<path id="XMLID_58_" class="st0" d="M66.2,71.2c-0.6,0-2.1,0-2.3-2V55.4c0-2.4-0.8-4.3-1.9-5.7c1.2-1.4,1.9-3.3,1.9-5.7V30.1
		c0-0.4,0.2-0.8,0.3-1.1c0.2-0.4,0.5-0.6,0.9-0.7c0.4-0.2,0.8-0.2,1.1-0.2c2,0,3.5-1.6,3.5-3.5s-1.6-3.5-3.5-3.5
		c-4.7,0-7.4,2.7-8.5,5.4c-0.4,1-0.7,2.2-0.7,3.7V44c0,0.4-0.2,0.8-0.3,1.1c-0.2,0.4-0.5,0.6-0.9,0.7C55.4,46,55,46,54.7,46
		c-2,0-3.5,1.6-3.5,3.5s1.4,3.4,3.3,3.5l0,0l0,0c1.2,0.1,2.6,0.5,2.6,2.3v13.9v0.1c0.1,3.6,2.7,8.8,9.3,8.8c2,0,3.5-1.6,3.5-3.5
		C69.6,72.8,68,71.2,66.2,71.2z"/>
</g>
<path class="st1" d="M49.5,11.7c21,0,38,17,38,38s-17,38-38,38s-38-17-38-38S28.5,11.7,49.5,11.7 M49.5,4.7c-24.9,0-45,20.1-45,45
	s20.1,45,45,45s45-20.1,45-45S74.4,4.7,49.5,4.7L49.5,4.7z"/>
</svg>
