<?xml version="1.0" encoding="utf-8"?>
<!-- Generator: Adobe Illustrator 19.0.0, SVG Export Plug-In . SVG Version: 6.00 Build 0)  -->
<svg version="1.1" id="Layer_1" xmlns="http://www.w3.org/2000/svg" xmlns:xlink="http://www.w3.org/1999/xlink" x="0px" y="0px"
	 viewBox="0 0 100 100" style="enable-background:new 0 0 100 100;" xml:space="preserve">
<style type="text/css">
	.st0{fill:#FFFFFF;}
	.st1{opacity:0.2;fill:#FFFFFF;enable-background:new    ;}
</style>
<g>
	<path id="XMLID_2_" class="st0" d="M61.1,32c1.4,0,2.4,1.1,2.4,2.4v31.3c0,1.4-1.1,2.4-2.4,2.4h-23c-1.4,0-2.4-1.1-2.4-2.4V34.4
		c0-1.4,1.1-2.4,2.4-2.4H61.1 M61.1,27.1h-23c-4,0-7.3,3.3-7.3,7.3v31.3c0,4,3.3,7.3,7.3,7.3h23c4,0,7.3-3.3,7.3-7.3V34.4
		C68.4,30.4,65.1,27.1,61.1,27.1L61.1,27.1z"/>
	<path id="XMLID_7_" class="st0" d="M57.5,64H41.6c-1,0-1.8-0.9-1.8-1.8v-3.1c0-1,0.9-1.8,1.8-1.8h15.9c1,0,1.8,0.9,1.8,1.8v3.1
		C59.2,63.3,58.5,64,57.5,64z"/>
	<path id="XMLID_8_" class="st0" d="M57.5,53.5H41.6c-1,0-1.8-0.9-1.8-1.8v-3c0-1,0.9-1.8,1.8-1.8h15.9c1,0,1.8,0.9,1.8,1.8v3
		C59.2,52.7,58.5,53.5,57.5,53.5z"/>
</g>
<path class="st1" d="M49.6,12.1c21,0,38,17,38,38s-17,38-38,38s-38-17-38-38S28.6,12.1,49.6,12.1 M49.6,5.1c-24.9,0-45,20.1-45,45
	s20.1,45,45,45s45-20.1,45-45S74.4,5.1,49.6,5.1L49.6,5.1z"/>
</svg>
