<?xml version="1.0" encoding="utf-8"?>
<!-- Generator: Adobe Illustrator 23.1.0, SVG Export Plug-In . SVG Version: 6.00 Build 0)  -->
<svg version="1.1" id="Layer_1" xmlns="http://www.w3.org/2000/svg" xmlns:xlink="http://www.w3.org/1999/xlink" x="0px" y="0px"
	 viewBox="0 0 100 100" style="enable-background:new 0 0 100 100;" xml:space="preserve">
<style type="text/css">
	.st0{fill:#231F20;}
</style>
<path class="st0" d="M89.5,36.2c0-4.5-3.4-8.2-7.8-8.6v-8.5H20v36.1c-4.4,0.4-7.8,4.1-7.8,8.6s3.4,8.2,7.8,8.6v8.4h61.7v-36
	C86.1,44.4,89.5,40.7,89.5,36.2z M80,27.6c-4.4,0.4-7.8,4.1-7.8,8.6c0,0.6,0.1,1.1,0.2,1.6l-20.7,9.5V20.9H80V27.6z M21.7,55.2v-4.3
	H44l-16.4,7.6C26.2,56.7,24.1,55.5,21.7,55.2z M74.8,42.4c1.4,1.3,3.2,2.2,5.2,2.4v4.3H60.2L74.8,42.4z M50,20.9v27.3l-2.2,1H21.7
	V20.9H50z M17.4,63.8c0-1.6,1.1-2.9,2.6-3.3l0,0c0.1,0,0.2,0,0.3-0.1c0.2,0,0.3-0.1,0.5-0.1l0,0l0,0c0.2,0,0.3,0,0.5,0.1
	c0.1,0,0.2,0,0.3,0.1l0,0c1.5,0.4,2.6,1.7,2.6,3.3c0,1.6-1.1,3-2.6,3.3c-0.1,0-0.2,0-0.3,0.1c-0.2,0-0.4,0.1-0.5,0.1s-0.4,0-0.5-0.1
	c-0.1,0-0.2,0-0.3-0.1C18.5,66.8,17.4,65.5,17.4,63.8z M21.7,72.4c4.4-0.4,7.8-4.1,7.8-8.6c0-0.2,0-0.3,0-0.5L50,53.9v25.3H21.7
	V72.4z M51.7,79.1v-26l4.7-2.2H80v28.2H51.7z M81.6,39.6c-0.5,0.1-1.1,0.1-1.7,0c-1.5-0.4-2.6-1.7-2.6-3.3s1.1-3,2.7-3.4
	c0.5-0.1,1.1-0.1,1.7,0c1.5,0.4,2.6,1.7,2.6,3.3C84.3,37.9,83.2,39.2,81.6,39.6z"/>
</svg>
