<?xml version="1.0" encoding="utf-8"?>
<!-- Generator: Adobe Illustrator 23.1.0, SVG Export Plug-In . SVG Version: 6.00 Build 0)  -->
<svg version="1.1" id="Layer_1" xmlns="http://www.w3.org/2000/svg" xmlns:xlink="http://www.w3.org/1999/xlink" x="0px" y="0px"
	 viewBox="0 0 113.4 56.7" style="enable-background:new 0 0 113.4 56.7;" xml:space="preserve">
<style type="text/css">
	.st0{fill:#EEEEEE;}
</style>
<g id="XMLID_3_">
	<g id="XMLID_11_">
		<path class="st0" d="M28.8,56.1c-15.5,0-28.1-12.5-28.1-27.7S13.3,0.7,28.8,0.7c10,0,19.1,5.1,24,13.5H38.7
			c-3.1-2.1-6.5-3.1-10-3.1c-9.7,0-17.5,7.8-17.5,17.2c0,9.6,7.9,17.3,17.5,17.3c3.6,0,7.1-1.1,10-3.1h14.2
			C47.9,50.9,38.7,56.1,28.8,56.1z"/>
	</g>
	<g id="XMLID_1_">
		<path class="st0" d="M84.6,56.1c-10,0-19.1-5.1-24.1-13.5h14.2c3,2,6.4,3.1,10,3.1c9.7,0,17.6-7.8,17.6-17.3s-7.9-17.2-17.6-17.2
			c-3.5,0-6.9,1-10,3.1H60.5c5-8.3,14.2-13.5,24.1-13.5c15.5,0,28.1,12.4,28.1,27.6S100.1,56.1,84.6,56.1z"/>
	</g>
</g>
<g id="XMLID_2_">
	<path class="st0" d="M29.8,35.8c-4.1,0-7.6-3.3-7.6-7.5s3.4-7.5,7.6-7.5h53.8c4.1,0,7.6,3.3,7.6,7.5c-0.1,4.2-3.5,7.5-7.7,7.5H29.8
		z"/>
</g>
</svg>
