<?xml version="1.0" encoding="utf-8"?>
<!-- Generator: Adobe Illustrator 19.0.0, SVG Export Plug-In . SVG Version: 6.00 Build 0)  -->
<svg version="1.1" id="Layer_1" xmlns="http://www.w3.org/2000/svg" xmlns:xlink="http://www.w3.org/1999/xlink" x="0px" y="0px"
	 viewBox="0 0 100 100" style="enable-background:new 0 0 100 100;" xml:space="preserve">
<style type="text/css">
	.st0{fill:#FFFFFF;}
	.st1{opacity:0.2;fill:#FFFFFF;enable-background:new    ;}
</style>
<g>
	<path id="XMLID_12_" class="st0" d="M71.2,57.5H28.8c-4,0-7.3-3.3-7.3-7.3v-0.6c0-4,3.3-7.3,7.3-7.3h42.4c4,0,7.3,3.3,7.3,7.3v0.6
		C78.5,54.3,75.2,57.5,71.2,57.5z"/>
	<circle id="XMLID_13_" class="st0" cx="49.8" cy="29.7" r="8.2"/>
	<circle id="XMLID_14_" class="st0" cx="49.8" cy="70.3" r="8.2"/>
</g>
<path class="st1" d="M50,12c21,0,38,17,38,38S71,88,50,88S12,71,12,50S29,12,50,12 M50,5C25.1,5,5,25.1,5,50s20.1,45,45,45
	s45-20.1,45-45S74.9,5,50,5L50,5z"/>
</svg>
