<?xml version="1.0" encoding="utf-8"?>
<!-- Generator: Adobe Illustrator 23.1.0, SVG Export Plug-In . SVG Version: 6.00 Build 0)  -->
<svg version="1.1" id="Layer_1" xmlns="http://www.w3.org/2000/svg" xmlns:xlink="http://www.w3.org/1999/xlink" x="0px" y="0px"
	 viewBox="0 0 100 100" style="enable-background:new 0 0 100 100;" xml:space="preserve">
<style type="text/css">
	.st0{fill:#231F20;}
</style>
<g>
	<polygon class="st0" points="31.2,24.1 25.7,24.1 25.7,33.4 16.4,33.4 16.4,38.9 25.7,38.9 25.7,48.1 31.2,48.1 31.2,38.9 
		40.5,38.9 40.5,33.4 31.2,33.4 	"/>
	<rect x="16.4" y="62.7" class="st0" width="24" height="5.5"/>
	<polygon class="st0" points="73.6,55 67,61.6 60.5,55 56.6,58.9 63.2,65.4 56.6,72 60.5,75.9 67,69.3 73.6,75.9 77.5,72 70.9,65.4 
		77.5,58.9 	"/>
	<rect x="55" y="33.4" class="st0" width="24" height="5.5"/>
	<rect x="64.3" y="25.1" class="st0" width="5.4" height="5.4"/>
	<rect x="64.3" y="41.7" class="st0" width="5.4" height="5.4"/>
</g>
</svg>
