<?xml version="1.0" encoding="utf-8"?>
<!-- Generator: Adobe Illustrator 23.1.0, SVG Export Plug-In . SVG Version: 6.00 Build 0)  -->
<svg version="1.1" id="Layer_1" xmlns="http://www.w3.org/2000/svg" xmlns:xlink="http://www.w3.org/1999/xlink" x="0px" y="0px"
	 viewBox="0 0 100 100" style="enable-background:new 0 0 100 100;" xml:space="preserve">
<style type="text/css">
	.st0{opacity:0.2;fill:#FFFFFF;enable-background:new    ;}
	.st1{fill:#FFFFFF;}
</style>
<path class="st0" d="M50,12c21,0,38,17,38,38S71,88,50,88S12,71,12,50S29,12,50,12 M50,5C25.1,5,5,25.1,5,50s20.1,45,45,45
	s45-20.1,45-45S74.9,5,50,5L50,5z"/>
<g>
	<path class="st1" d="M49.7,71.9c-1.2,0-2.2-0.4-2.8-0.9c-3.5-2.4-4-8.9-4.7-17c-0.5-6.5-1.3-16.3-4.3-16.3c-2.8,0-6.8,5.5-9.5,31.8
		c-0.1,1.4-1.4,2.4-2.7,2.2c-1.4-0.1-2.4-1.4-2.2-2.7c2.7-26.1,6.8-36.3,14.5-36.3c7.6,0,8.5,10.6,9.3,20.9c0.3,4.4,1,12.5,2.5,13.3
		c0,0,0.1,0,0.3-0.1c2.1-0.6,2.5-9.7,2.8-14.1c0.4-7.9,0.7-13.6,4.7-14.7c3.2-0.9,6.5,1.8,11.8,9.7c1.8,2.7,3.2,4.5,4.1,5.6
		c-0.4-2.9-1.2-7.1-1.8-10c-2.2-10.4-2.9-14.7-0.3-16.3c1.2-0.7,2.7-0.4,3.4,0.8c0.6,0.9,0.5,2.1-0.1,2.9c-0.2,1.8,1,7.7,1.9,11.7
		c2.3,11.3,3.2,16.3-0.2,17.8c-2.8,1.2-5.5-1.1-11.1-9.5c-3.6-5.3-5.4-6.9-6.2-7.4c-0.7,1.7-1,6.6-1.2,9.9c-0.4,8.3-0.9,17-6.3,18.6
		C50.8,71.8,50.2,71.9,49.7,71.9z"/>
</g>
</svg>
