<?xml version="1.0" encoding="utf-8"?>
<!-- Generator: Adobe Illustrator 23.1.0, SVG Export Plug-In . SVG Version: 6.00 Build 0)  -->
<svg version="1.1" id="Layer_1" xmlns="http://www.w3.org/2000/svg" xmlns:xlink="http://www.w3.org/1999/xlink" x="0px" y="0px"
	 viewBox="0 0 100 100" style="enable-background:new 0 0 100 100;" xml:space="preserve">
<style type="text/css">
	.st0{fill:#231F20;}
</style>
<g>
	<path class="st0" d="M50.5,78.7c-15.6,0-28.3-12.7-28.3-28.3c0-15.6,12.7-28.3,28.3-28.3s28.3,12.7,28.3,28.3
		C78.8,66,66.1,78.7,50.5,78.7z M50.5,27.6c-12.6,0-22.8,10.2-22.8,22.8c0,12.6,10.2,22.8,22.8,22.8s22.8-10.2,22.8-22.8
		C73.3,37.8,63.1,27.6,50.5,27.6z"/>
</g>
<g>
	<path class="st0" d="M40.9,64.4v-28c0-0.8,0.9-1.3,1.6-0.9l24.2,14c0.7,0.4,0.7,1.4,0,1.8l-24.2,14C41.7,65.7,40.9,65.2,40.9,64.4z
		 M46.4,45.1v10.6c0,0.4,0.5,0.7,0.8,0.5l9.2-5.3c0.4-0.2,0.4-0.7,0-1l-9.2-5.3C46.8,44.4,46.4,44.7,46.4,45.1z"/>
</g>
</svg>
