<?xml version="1.0" encoding="utf-8"?>
<!-- Generator: Adobe Illustrator 23.1.0, SVG Export Plug-In . SVG Version: 6.00 Build 0)  -->
<svg version="1.1" id="Layer_1" xmlns="http://www.w3.org/2000/svg" xmlns:xlink="http://www.w3.org/1999/xlink" x="0px" y="0px"
	 viewBox="0 0 100 100" style="enable-background:new 0 0 100 100;" xml:space="preserve">
<style type="text/css">
	.st0{fill:#231F20;}
</style>
<g>
	<path class="st0" d="M50,80.3c-1,0-1.9-0.5-2.4-1.4L31.9,51.7c-0.2-0.3-0.4-0.6-0.6-1l-0.1-0.1c-0.1-0.1-0.1-0.3-0.2-0.4
		c-1.4-2.9-2.2-6.1-2.2-9.3c0-11.7,9.5-21.1,21.1-21.1c11.7,0,21.1,9.5,21.1,21.1c0,3.3-0.7,6.4-2.2,9.3c-0.1,0.1-0.1,0.3-0.2,0.4
		l-0.1,0.1c-0.2,0.4-0.4,0.7-0.6,1L52.4,78.9C51.9,79.8,51,80.3,50,80.3z M36.2,48.1C36.2,48.1,36.2,48.1,36.2,48.1
		c0.1,0.3,0.3,0.5,0.5,0.8L50,72.1l13.3-23.1c0.2-0.3,0.4-0.6,0.5-0.9c0,0,0,0,0,0c0,0,0-0.1,0.1-0.1c1.1-2.2,1.7-4.6,1.7-7.1
		c0-8.6-7-15.6-15.6-15.6s-15.6,7-15.6,15.6c0,2.5,0.6,4.9,1.7,7.1C36.1,48,36.1,48,36.2,48.1z"/>
</g>
<g>
	<path class="st0" d="M50,50.7c-5.4,0-9.8-4.4-9.8-9.8S44.6,31,50,31s9.8,4.4,9.8,9.8S55.4,50.7,50,50.7z M50,36.5
		c-2.4,0-4.3,1.9-4.3,4.3s1.9,4.3,4.3,4.3s4.3-1.9,4.3-4.3S52.4,36.5,50,36.5z"/>
</g>
</svg>
