<?xml version="1.0" encoding="utf-8"?>
<!-- Generator: Adobe Illustrator 19.0.0, SVG Export Plug-In . SVG Version: 6.00 Build 0)  -->
<svg version="1.1" id="Layer_1" xmlns="http://www.w3.org/2000/svg" xmlns:xlink="http://www.w3.org/1999/xlink" x="0px" y="0px"
	 viewBox="0 0 100 100" style="enable-background:new 0 0 100 100;" xml:space="preserve">
<style type="text/css">
	.st0{fill:#FFFFFF;}
	.st1{opacity:0.2;fill:#FFFFFF;enable-background:new    ;}
</style>
<g>
	<path id="XMLID_29_" class="st0" d="M69.8,30.2c-0.7-0.7-1.6-1-2.5-1s-1.8,0.3-2.5,1l-14.9,15c-1.4,1.4-1.4,3.6,0,4.9
		c0.7,0.7,1.6,1,2.5,1s1.8-0.3,2.5-1l15-15C71.2,33.8,71.2,31.6,69.8,30.2z"/>
	<g id="XMLID_38_">
		<path id="XMLID_42_" class="st0" d="M75.7,39c-0.3,0.4-0.6,0.8-1,1.1l-4.5,4.5c0.5,1.7,0.7,3.5,0.7,5.4c0,11.6-9.4,21-21,21
			s-21-9.4-21-21s9.4-21,21-21c1.9,0,3.7,0.3,5.4,0.7l4.5-4.5c0.4-0.4,0.7-0.7,1.1-1c-3.4-1.5-7.1-2.3-11.1-2.3
			c-15.4,0-28,12.6-28,28s12.6,28,28,28s28-12.6,28-28C78,46.1,77.2,42.3,75.7,39z"/>
	</g>
</g>
<path class="st1" d="M49.9,11.9c21,0,38,17,38,38s-17,38-38,38s-38-17-38-38S28.9,11.9,49.9,11.9 M49.9,4.9c-24.9,0-45,20.1-45,45
	s20.1,45,45,45s45-20.1,45-45S74.8,4.9,49.9,4.9L49.9,4.9z"/>
</svg>
