<?xml version="1.0" encoding="utf-8"?>
<!-- Generator: Adobe Illustrator 23.1.0, SVG Export Plug-In . SVG Version: 6.00 Build 0)  -->
<svg version="1.1" id="Layer_1" xmlns="http://www.w3.org/2000/svg" xmlns:xlink="http://www.w3.org/1999/xlink" x="0px" y="0px"
	 viewBox="0 0 100 100" style="enable-background:new 0 0 100 100;" xml:space="preserve">
<style type="text/css">
	.st0{fill:#231F20;}
</style>
<path class="st0" d="M48.4,65.8c-0.5-6.1-2.8-11.9-6.6-16.7l29.1-26c0.6-0.5,0.6-1.4,0.1-2l-1.8-2c-0.5-0.6-1.4-0.6-2-0.1L14.1,66.5
	c-1,0.9-1.2,2.3-0.5,3.5c0.5,0.8,1.5,1.3,2.5,1.3h70.5c0.8,0,1.4-0.6,1.4-1.4v-2.6c0-0.8-0.6-1.4-1.4-1.4H48.4z M37.7,52.8
	c2.9,3.8,4.6,8.3,5.1,13H23.2L37.7,52.8z"/>
</svg>
