<?xml version="1.0" encoding="utf-8"?>
<!-- Generator: Adobe Illustrator 23.1.0, SVG Export Plug-In . SVG Version: 6.00 Build 0)  -->
<svg version="1.1" id="Layer_1" xmlns="http://www.w3.org/2000/svg" xmlns:xlink="http://www.w3.org/1999/xlink" x="0px" y="0px"
	 viewBox="0 0 100 100" style="enable-background:new 0 0 100 100;" xml:space="preserve">
<style type="text/css">
	.st0{fill:#231F20;}
</style>
<g>
	<path class="st0" d="M59.2,63.3H32.2V31.4h26.9V63.3 M63.4,67.5V30.2c0-1.7-1.4-3-3-3H31.1c-1.7,0-3,1.4-3,3v34.2c0,1.7,1.4,3,3,3
		H63.4L63.4,67.5z"/>
</g>
<path class="st0" d="M40.6,35.9h28.4c1.7,0,3,1.4,3,3v33.2c0,1.7-1.4,3-3,3H40.6c-1.7,0-3-1.4-3-3V38.9
	C37.5,37.2,38.9,35.9,40.6,35.9z"/>
</svg>
