<?xml version="1.0" encoding="utf-8"?>
<!-- Generator: Adobe Illustrator 23.1.0, SVG Export Plug-In . SVG Version: 6.00 Build 0)  -->
<svg version="1.1" id="Layer_1" xmlns="http://www.w3.org/2000/svg" xmlns:xlink="http://www.w3.org/1999/xlink" x="0px" y="0px"
	 viewBox="0 0 100 100" style="enable-background:new 0 0 100 100;" xml:space="preserve">
<style type="text/css">
	.st0{fill:#231F20;}
</style>
<g>
	<path class="st0" d="M90.2,63.7H46.5v-7.8c0-1.5-1.2-2.7-2.7-2.7H22.5c-0.7,0-1.4,0.3-1.9,0.8s-0.8,1.2-0.8,1.9l0,7.8H9.8
		c-0.8,0-1.4,0.6-1.4,1.4v2.7c0,0.8,0.6,1.4,1.4,1.4h10.1c0.2,0.4,0.4,0.8,0.8,1.1l10.6,8.8c0.5,0.4,1.1,0.6,1.8,0.6
		s1.2-0.2,1.8-0.6l10.6-8.8c0.4-0.3,0.6-0.7,0.8-1.1h43.9c0.8,0,1.4-0.6,1.4-1.4v-2.7C91.6,64.3,91,63.7,90.2,63.7z M41,66.9
		l-7.9,6.6l-7.9-6.6v-8.3H41V66.9z"/>
	<path class="st0" d="M9.8,36.3h44.5c0.2,0.4,0.4,0.8,0.8,1.1l10.6,8.8c0.5,0.4,1.1,0.6,1.8,0.6c0.6,0,1.2-0.2,1.8-0.6l10.6-8.8
		c0.4-0.3,0.6-0.7,0.8-1.1h9.6c0.8,0,1.4-0.6,1.4-1.4v-2.7c0-0.8-0.6-1.4-1.4-1.4h-9.4v-7.8c0-1.5-1.2-2.7-2.7-2.7H56.8
		c-0.7,0-1.4,0.3-1.9,0.8S54,22.2,54,22.9l0,7.8H9.8c-0.8,0-1.4,0.6-1.4,1.4v2.7C8.4,35.7,9,36.3,9.8,36.3z M59.5,25.7h15.8V34
		l-7.9,6.6L59.5,34V25.7z"/>
</g>
</svg>
