<?xml version="1.0" encoding="utf-8"?>
<!-- Generator: Adobe Illustrator 19.0.0, SVG Export Plug-In . SVG Version: 6.00 Build 0)  -->
<svg version="1.1" id="Layer_1" xmlns="http://www.w3.org/2000/svg" xmlns:xlink="http://www.w3.org/1999/xlink" x="0px" y="0px"
	 viewBox="0 0 100 100" style="enable-background:new 0 0 100 100;" xml:space="preserve">
<style type="text/css">
	.st0{fill:#FFFFFF;}
	.st1{opacity:0.2;fill:#FFFFFF;enable-background:new    ;}
</style>
<g>
	<g id="XMLID_28_">
		<path id="XMLID_30_" class="st0" d="M30,44c1-3,2.5-5.6,4.6-8L29,29.3c-3.6,3.6-6.2,8.1-7.6,13.2L30,44z"/>
		<path id="XMLID_33_" class="st0" d="M47.2,20.7c-5.2,0.6-10,2.3-14.1,5.2l5.6,6.6c2.5-1.7,5.4-2.8,8.6-3.2L47.2,20.7L47.2,20.7z"
			/>
		<path id="XMLID_34_" class="st0" d="M29,50.2c0-0.3,0-0.6,0-1l-8.6-1.5c-0.1,0.8-0.1,1.7-0.1,2.5c0,4.4,1,8.6,2.8,12.4l7.6-4.3
			C29.6,55.9,29,53.1,29,50.2z"/>
		<path id="XMLID_39_" class="st0" d="M71,50.2c0,2.8-0.6,5.6-1.6,8.1l7.6,4.3c1.8-3.8,2.8-8,2.8-12.4c0-0.8,0-1.7-0.1-2.5L71,49.3
			C71,49.6,71,49.9,71,50.2z"/>
		<path id="XMLID_47_" class="st0" d="M71.1,29.3L65.5,36c2.1,2.2,3.6,5,4.6,8l8.5-1.4C77.3,37.4,74.6,33,71.1,29.3z"/>
		<path id="XMLID_48_" class="st0" d="M52.8,20.7v8.7c3.2,0.4,6.1,1.4,8.6,3.2L67,26C62.8,23,58,21.3,52.8,20.7z"/>
	</g>
	<path id="XMLID_35_" class="st0" d="M50.2,45L50.2,45l-10.7-3.7l5.3,10.1l0,0c0.2,1.4,0.9,2.6,1.9,3.5c2.3,2.1,6,1.7,7.9-0.6
		s1.7-6-0.6-7.9C52.9,45.3,51.6,45,50.2,45z"/>
</g>
<path class="st1" d="M50,12c21,0,38,17,38,38S71,88,50,88S12,71,12,50S29,12,50,12 M50,5C25.1,5,5,25.1,5,50s20.1,45,45,45
	s45-20.1,45-45S74.9,5,50,5L50,5z"/>
</svg>
