<?xml version="1.0" encoding="utf-8"?>
<!-- Generator: Adobe Illustrator 19.0.0, SVG Export Plug-In . SVG Version: 6.00 Build 0)  -->
<svg version="1.1" id="Layer_1" xmlns="http://www.w3.org/2000/svg" xmlns:xlink="http://www.w3.org/1999/xlink" x="0px" y="0px"
	 viewBox="0 0 100 100" style="enable-background:new 0 0 100 100;" xml:space="preserve">
<style type="text/css">
	.st0{opacity:0.2;fill:#FFFFFF;enable-background:new    ;}
	.st1{fill:#FFFFFF;}
</style>
<path class="st0" d="M48.4,12c21,0,38,17,38,38s-17,38-38,38s-38-17-38-38S27.4,12,48.4,12 M48.4,5c-24.9,0-45,20.1-45,45
	s20.1,45,45,45s45-20.1,45-45S73.3,5,48.4,5L48.4,5z"/>
<g>
	<path class="st1" d="M42.9,40.1L42.9,40.1c-1.1-1.1-2.9-1.1-4,0l-9.8,9.8V28.8c0-1.6-1.3-2.8-2.8-2.8c-1.6,0-2.8,1.3-2.8,2.8v27.9
		c0,1.1,0.7,2.2,1.7,2.6c0.3,0.1,0.7,0.2,1.1,0.2c0.7,0,1.5-0.3,2-0.8l14.6-14.6C44,43,44,41.2,42.9,40.1z"/>
	<path class="st1" d="M71.4,39.5c-1.1-0.4-2.3-0.2-3.1,0.6L53.8,54.7c-1.1,1.1-1.1,2.9,0,4c1.1,1.1,2.9,1.1,4,0l9.8-9.8v22.2
		c0,1.6,1.3,2.8,2.8,2.8s2.8-1.3,2.8-2.8V42.1C73.2,41,72.5,39.9,71.4,39.5z"/>
	<path class="st1" d="M52.7,40.1L52.7,40.1c-1.1-1.1-2.9-1.1-4,0L34.2,54.7c-0.5,0.5-0.8,1.2-0.8,2s0.3,1.5,0.8,2
		c0.5,0.5,1.2,0.8,2,0.8c0.8,0,1.5-0.3,2-0.8l14.6-14.6C53.8,43,53.8,41.2,52.7,40.1z"/>
	<path class="st1" d="M62.5,40.1c-1.1-1.1-2.9-1.1-4,0L44,54.7c-0.5,0.5-0.8,1.2-0.8,2c0,0.8,0.3,1.5,0.8,2c0.5,0.5,1.2,0.8,2,0.8
		s1.5-0.3,2-0.8l14.6-14.6C63.6,43,63.6,41.2,62.5,40.1z"/>
</g>
</svg>
