<?xml version="1.0" encoding="utf-8"?>
<!-- Generator: Adobe Illustrator 23.1.0, SVG Export Plug-In . SVG Version: 6.00 Build 0)  -->
<svg version="1.1" id="Layer_1" xmlns="http://www.w3.org/2000/svg" xmlns:xlink="http://www.w3.org/1999/xlink" x="0px" y="0px"
	 viewBox="0 0 100 100" style="enable-background:new 0 0 100 100;" xml:space="preserve">
<style type="text/css">
	.st0{fill:#231F20;}
</style>
<g>
	<path class="st0" d="M90.2,52.3h-9.3c-1.4-4.6-6-7.9-11.3-6.9c-3.9,0.7-7.1,3.9-7.8,7.8c-1.2,6.2,3.6,11.7,9.7,11.7
		c4.5,0,8.2-3,9.4-7.1h9.3c0.8,0,1.4-0.6,1.4-1.4v-2.7C91.6,53,91,52.3,90.2,52.3z M72.6,59.3c-3.3,0.9-6.2-2.1-5.4-5.4
		c0.4-1.4,1.6-2.6,3-3c3.3-0.9,6.2,2.1,5.4,5.4C75.3,57.7,74.1,58.9,72.6,59.3z"/>
	<path class="st0" d="M55.3,23.8L32.8,46.3c-1.3-0.6-2.8-1-4.3-1c-4.5,0-8.2,3-9.4,7.1H9.8c-0.8,0-1.4,0.6-1.4,1.4v2.7
		c0,0.8,0.6,1.4,1.4,1.4h9.3c1.3,4.6,6,7.9,11.2,6.9c3.9-0.7,7-3.7,7.8-7.6c0.6-2.7,0-5.2-1.2-7.2l22.3-22.3c0.5-0.5,0.5-1.4,0-2
		l-1.9-1.9C56.8,23.2,55.9,23.2,55.3,23.8z M29.7,59.3c-3.3,0.9-6.2-2.1-5.4-5.4c0.4-1.4,1.6-2.6,3-3c3.3-0.9,6.2,2.1,5.4,5.4
		C32.3,57.7,31.2,58.9,29.7,59.3z"/>
</g>
</svg>
