<?xml version="1.0" encoding="utf-8"?>
<!-- Generator: Adobe Illustrator 23.1.0, SVG Export Plug-In . SVG Version: 6.00 Build 0)  -->
<svg version="1.1" id="Layer_1" xmlns="http://www.w3.org/2000/svg" xmlns:xlink="http://www.w3.org/1999/xlink" x="0px" y="0px"
	 viewBox="0 0 100 100" style="enable-background:new 0 0 100 100;" xml:space="preserve">
<style type="text/css">
	.st0{fill:#231F20;}
</style>
<g>
	<g>
		<path class="st0" d="M63.5,74.4h-26c-1.5,0-2.7-1.2-2.7-2.7V56.6c0-0.8,0.4-1.6,1-2.1l4.9-4.1l-4.9-4.1c-0.6-0.5-1-1.3-1-2.1V29.1
			c0-1.5,1.2-2.7,2.7-2.7h26c1.5,0,2.7,1.2,2.7,2.7v15.1c0,0.8-0.4,1.6-1,2.1l-4.9,4.1l4.9,4.1c0.6,0.5,1,1.3,1,2.1v15.1
			C66.2,73.2,65,74.4,63.5,74.4z M40.3,68.9h20.5v-11l-6.4-5.4c-0.6-0.5-1-1.3-1-2.1c0-0.8,0.4-1.6,1-2.1l6.4-5.4v-11H40.3v11
			l6.4,5.4c0.6,0.5,1,1.3,1,2.1c0,0.8-0.4,1.6-1,2.1l-6.4,5.4V68.9z"/>
	</g>
	<g>
		<g>
			<path class="st0" d="M50.5,54.9c-0.3,0.5-0.7,1-1.2,1.5L44.9,60v4.8h11.2V60l-4.4-3.6C51.2,55.9,50.8,55.5,50.5,54.9z"/>
		</g>
	</g>
	<g>
		<path class="st0" d="M53.6,40c-1.7,0.4-2.1,0.9-5.3,0.7c-1.4-0.1-2.2,0.4-2.7,0.9l3.6,3c0.5,0.4,0.9,0.9,1.2,1.5
			c0.3-0.5,0.7-1,1.2-1.5l4.4-3.6v-1.2C55.3,39.4,54.6,39.7,53.6,40z"/>
	</g>
</g>
</svg>
