<?xml version="1.0" encoding="utf-8"?>
<!-- Generator: Adobe Illustrator 19.0.0, SVG Export Plug-In . SVG Version: 6.00 Build 0)  -->
<svg version="1.1" id="Layer_1" xmlns="http://www.w3.org/2000/svg" xmlns:xlink="http://www.w3.org/1999/xlink" x="0px" y="0px"
	 viewBox="0 0 100 100" style="enable-background:new 0 0 100 100;" xml:space="preserve">
<style type="text/css">
	.st0{fill:#FFFFFF;enable-background:new    ;}
	.st1{opacity:0.2;fill:#FFFFFF;enable-background:new    ;}
</style>
<path id="XMLID_25_" class="st0" d="M48.9,56.9l3.1,1.4c0.3,0.1,0.6,0.1,1,0c0.3-0.1,0.5-0.3,0.6-0.6l1-2.2c0.2-0.5,0.9-1,1.5-0.9
	c1,0.1,2.1,0.2,3,0.1c0.6,0,1.2,0.3,1.4,1l0.9,2.3c0.1,0.3,0.3,0.5,0.6,0.6c0.1,0.1,0.3,0.1,0.5,0.1c0.1,0,0.3,0,0.4-0.1l3.2-1.2
	c0.6-0.2,1-1,0.8-1.6L66,53.5c-0.2-0.5-0.1-1.3,0.4-1.6c0.9-0.6,1.6-1.3,2.3-2.1c0.4-0.4,1.1-0.6,1.6-0.3l2.2,1c0.3,0.1,0.6,0.1,1,0
	c0.3-0.1,0.5-0.3,0.6-0.6l1.4-3.1c0.1-0.3,0.1-0.6,0-1c-0.1-0.3-0.3-0.5-0.6-0.6l-2.2-1c-0.5-0.2-1-0.9-0.9-1.5c0.1-1,0.2-2.1,0.1-3
	c0-0.6,0.3-1.2,1-1.4l2.3-0.9c0.6-0.2,1-1,0.8-1.6l-1-3.4c-0.1-0.3-0.3-0.5-0.6-0.6c-0.3-0.1-0.6-0.1-1,0l-2.3,0.9
	c-0.5,0.2-1.3,0.1-1.6-0.4c-0.6-0.9-1.3-1.6-2.1-2.3c-0.4-0.4-0.6-1.1-0.3-1.6l1-2.2c0.3-0.6,0-1.3-0.6-1.6l-3.1-1.4
	c-0.3-0.1-0.6-0.1-1,0c-0.3,0.1-0.5,0.3-0.6,0.6l-1,2.2c-0.2,0.5-0.9,1-1.5,0.9c-1-0.1-2.1-0.2-3-0.1c-0.6,0-1.2-0.3-1.4-1L55,23.5
	c-0.1-0.3-0.3-0.5-0.6-0.6s-0.6-0.1-1,0L50,24c-0.6,0.2-1,1-0.8,1.6l0.9,2.3c0.2,0.5,0.1,1.3-0.4,1.6c-0.9,0.6-1.6,1.3-2.3,2.1
	c-0.4,0.4-1.1,0.6-1.6,0.3l-2.2-1c-0.6-0.3-1.3,0-1.6,0.6l-1.5,3.1c-0.1,0.3-0.1,0.6,0,1s0.3,0.5,0.6,0.6l2.2,1
	c0.5,0.2,1,0.9,0.9,1.5c-0.1,1-0.2,2.1-0.1,3c0,0.6-0.3,1.2-1,1.4L40.8,44c-0.3,0.1-0.5,0.3-0.6,0.6s-0.1,0.6,0,1l1.2,3.2
	c0.2,0.6,1,1,1.6,0.8l2.3-0.9c0.5-0.2,1.3-0.1,1.6,0.4c0.6,0.9,1.3,1.6,2.1,2.3c0.4,0.4,0.6,1.1,0.3,1.6l-1,2.2
	C48,55.9,48.3,56.7,48.9,56.9z M50.5,37.3c0.9-2.1,2.6-3.6,4.7-4.3c1.7-0.6,3.7-0.8,5.6-0.1c1.6,0.5,3.1,1.6,4.1,3
	c1.7,2.5,1.9,5.6,0.8,8.2c-0.9,2.1-2.6,3.6-4.7,4.3c-1.7,0.6-3.7,0.8-5.6,0.1c-1.6-0.5-3.1-1.6-4.1-3C49.6,43,49.3,40,50.5,37.3z
	 M22.8,61.2l0.1,2.5c0,0.6,0.6,1.2,1.3,1.2l1.6-0.1c0.4,0,0.8,0.2,0.9,0.6c0.2,0.6,0.5,1.2,0.9,1.7c0.2,0.3,0.2,0.8-0.1,1.1
	l-1.1,1.2C26,70,26,70.7,26.5,71.2l1.8,1.7c0.2,0.2,0.5,0.3,0.9,0.3c0.3,0,0.6-0.1,0.9-0.4l1.1-1.2c0.3-0.3,0.8-0.3,1.1-0.2
	c0.5,0.3,1.2,0.5,1.8,0.6c0.4,0.1,0.6,0.4,0.6,0.9l0.1,1.6c0,0.3,0.1,0.6,0.4,0.9c0.2,0.2,0.5,0.3,0.9,0.3l0,0l2.5-0.1
	c0.6,0,1.2-0.6,1.2-1.3l-0.1-1.6c0-0.4,0.2-0.8,0.6-0.9c0.6-0.2,1.2-0.5,1.7-0.9c0.3-0.2,0.8-0.2,1.1,0.1l1.2,1.1
	c0.2,0.2,0.5,0.3,0.9,0.3s0.6-0.1,0.9-0.4l1.7-1.8c0.2-0.2,0.3-0.5,0.3-0.9c0-0.3-0.1-0.6-0.4-0.9l-1.2-1.1
	c-0.3-0.3-0.3-0.8-0.2-1.1c0.3-0.5,0.5-1.2,0.6-1.8c0.1-0.4,0.4-0.6,0.9-0.6l1.6-0.1c0.3,0,0.6-0.1,0.9-0.4c0.2-0.2,0.3-0.5,0.3-0.9
	l-0.1-2.5c0-0.6-0.6-1.2-1.3-1.2l-1.6,0.1c-0.4,0-0.8-0.2-0.9-0.6c-0.2-0.6-0.5-1.2-0.9-1.7c-0.2-0.3-0.2-0.8,0.1-1.1l1.1-1.2
	c0.4-0.5,0.4-1.3-0.1-1.7l-1.8-1.6c-0.2-0.2-0.5-0.3-0.9-0.3c-0.3,0-0.6,0.1-0.9,0.4l-1.1,1.2c-0.3,0.3-0.8,0.3-1.1,0.2
	c-0.5-0.3-1.2-0.5-1.8-0.6c-0.4-0.1-0.6-0.4-0.6-0.9l-0.1-1.6c0-0.6-0.6-1.2-1.3-1.2l-2.5,0.1c-0.6,0-1.2,0.6-1.2,1.3l0.1,1.6
	c0,0.4-0.2,0.8-0.6,0.9c-0.6,0.2-1.2,0.5-1.7,0.9c-0.3,0.2-0.8,0.2-1.1-0.1l-1.2-1.1c-0.2-0.2-0.5-0.3-0.9-0.3
	c-0.3,0-0.6,0.1-0.9,0.4l-1.7,1.7c-0.4,0.5-0.4,1.3,0.1,1.7l1.2,1.1c0.3,0.3,0.3,0.8,0.2,1.1c-0.3,0.5-0.5,1.2-0.6,1.8
	c-0.1,0.4-0.4,0.6-0.9,0.6L24,59.9c-0.3,0-0.6,0.1-0.9,0.4C22.9,60.6,22.8,60.9,22.8,61.2z M30.9,62.2c-0.1-3.1,2.3-5.8,5.4-6
	c0.1,0,0.2,0,0.2,0c3.1,0,5.6,2.5,5.7,5.5c0.1,3-2.5,5.7-5.5,5.8C33.7,67.7,31.1,65.2,30.9,62.2z"/>
<path class="st1" d="M49.5,11.2c21,0,38,17,38,38s-17,38-38,38s-38-17-38-38S28.6,11.2,49.5,11.2 M49.5,4.2c-24.9,0-45,20.1-45,45
	s20.1,45,45,45s45-20.1,45-45S74.4,4.2,49.5,4.2L49.5,4.2z"/>
</svg>
