<?xml version="1.0" encoding="utf-8"?>
<!-- Generator: Adobe Illustrator 23.1.0, SVG Export Plug-In . SVG Version: 6.00 Build 0)  -->
<svg version="1.1" id="Layer_1" xmlns="http://www.w3.org/2000/svg" xmlns:xlink="http://www.w3.org/1999/xlink" x="0px" y="0px"
	 viewBox="0 0 100 100" style="enable-background:new 0 0 100 100;" xml:space="preserve">
<style type="text/css">
	.st0{fill:#231F20;}
</style>
<g>
	<path class="st0" d="M18.1,32.2h-5.5c-0.8,0-1.4,0.6-1.4,1.4v2.7c0,0.8,0.6,1.4,1.4,1.4h2.7c0.8,0,1.4,0.6,1.4,1.4v26.7
		c0,0.8,0.6,1.4,1.4,1.4h2.7c0.8,0,1.4-0.6,1.4-1.4V36.3C22.2,34,20.4,32.2,18.1,32.2z"/>
	<path class="st0" d="M50.3,32.2H30.9c-0.8,0-1.4,0.6-1.4,1.4v2.7c0,0.8,0.6,1.4,1.4,1.4h16.7c0.8,0,1.4,0.6,1.4,1.4v6.4
		c0,0.8-0.6,1.4-1.4,1.4H33.3c-2.3,0-4.2,1.9-4.2,4.2V63c0,2.3,1.9,4.2,4.2,4.2h19.4c0.8,0,1.4-0.6,1.4-1.4v-2.7
		c0-0.8-0.6-1.4-1.4-1.4H36.1c-0.8,0-1.4-0.6-1.4-1.4v-6.4c0-0.8,0.6-1.4,1.4-1.4h14.2c2.3,0,4.2-1.9,4.2-4.2V36.3
		C54.5,34,52.6,32.2,50.3,32.2z"/>
	<path class="st0" d="M81.7,32.2H62.2c-0.8,0-1.4,0.6-1.4,1.4v2.7c0,0.8,0.6,1.4,1.4,1.4h16.7c0.8,0,1.4,0.6,1.4,1.4v6.4
		c0,0.8-0.6,1.4-1.4,1.4H64.7c-0.8,0-1.4,0.6-1.4,1.4V51c0,0.8,0.6,1.4,1.4,1.4h14.2c0.8,0,1.4,0.6,1.4,1.4v6.4
		c0,0.8-0.6,1.4-1.4,1.4H62.2c-0.8,0-1.4,0.6-1.4,1.4v2.7c0,0.8,0.6,1.4,1.4,1.4h19.4c2.3,0,4.2-1.9,4.2-4.2V49.6V36.3
		C85.8,34,84,32.2,81.7,32.2z"/>
</g>
</svg>
