<?xml version="1.0" encoding="utf-8"?>
<!-- Generator: Adobe Illustrator 19.0.0, SVG Export Plug-In . SVG Version: 6.00 Build 0)  -->
<svg version="1.1" id="Layer_1" xmlns="http://www.w3.org/2000/svg" xmlns:xlink="http://www.w3.org/1999/xlink" x="0px" y="0px"
	 viewBox="0 0 646 646" style="enable-background:new 0 0 646 646;" xml:space="preserve">
<style type="text/css">
	.st0{fill:#F1F2F2;}
	.st1{fill:#D1D3D4;}
	.st2{fill:#FFFFFF;}
</style>
<circle id="XMLID_2_" class="st0" cx="323" cy="50.5" r="50"/>
<circle id="XMLID_3_" class="st1" cx="323" cy="50.5" r="44.1"/>
<path id="XMLID_9_" class="st1" d="M519.9,126.5c-40.7-40.7-91.7-69-147.1-79.7c0.1,1.2,0.1,2.4,0.1,3.7c0,3.7-0.4,7.2-1.1,10.6
	C499.4,83,596.5,189.3,596.5,323.5C596.5,474.3,473.8,600,323,600S49.5,474.3,49.5,323.5c0-134.1,97.1-240.5,224.6-262.4
	c-0.7-3.4-1.1-7-1.1-10.6c0-1.2,0.1-2.5,0.1-3.7c-55.4,10.8-106.4,39.1-147.1,79.7c-52.6,52.6-81.6,122.5-81.6,196.9
	c0,74.4,29,144.3,81.6,196.9C178.7,573,248.6,602,323,602c74.4,0,144.3-29,196.9-81.6c52.6-52.6,81.6-122.5,81.6-196.9
	C601.5,249.1,572.5,179.1,519.9,126.5z"/>
<path id="XMLID_17_" class="st2" d="M354.3,50l-16.7-19.3l-0.9,12.5c-9.1-0.4-18.3-0.4-27.3,0l-0.9-12.5L291.8,50l19.3,16.7
	l-0.9-12.5c8.5-0.4,17.2-0.4,25.7,0L335,66.7L354.3,50z"/>
</svg>
