<?xml version="1.0" encoding="utf-8"?>
<!-- Generator: Adobe Illustrator 19.0.0, SVG Export Plug-In . SVG Version: 6.00 Build 0)  -->
<svg version="1.1" id="Layer_1" xmlns="http://www.w3.org/2000/svg" xmlns:xlink="http://www.w3.org/1999/xlink" x="0px" y="0px"
	 viewBox="29 -28 75 75" style="enable-background:new 29 -28 75 75;" xml:space="preserve">
<style type="text/css">
	.st0{fill:#FFFFFF;}
</style>
<g id="XMLID_444_">
	<g id="XMLID_446_">
		<polygon points="62.6,18.2 54.1,23.6 54.1,-10.2 79.4,12.5 69.5,15.3 75,26.9 67.7,30 		"/>
		<path class="st0" d="M54.6-9.2l23.9,21.4L68.9,15l5.5,11.6L68,29.3l-5.1-11.8l-8.3,5.2V-9.2 M53.6-11.3v2.2v31.9v1.7l1.5-0.9
			l7.3-4.6l4.7,10.8l0.4,0.9l0.9-0.4l6.4-2.7l0.9-0.4l-0.4-0.9l-5-10.6l8.5-2.4l1.7-0.5l-1.3-1.2L55.2-9.9L53.6-11.3L53.6-11.3z"/>
	</g>
</g>
</svg>
