<?xml version="1.0" encoding="utf-8"?>
<!-- Generator: Adobe Illustrator 23.1.0, SVG Export Plug-In . SVG Version: 6.00 Build 0)  -->
<svg version="1.1" id="Layer_1" xmlns="http://www.w3.org/2000/svg" xmlns:xlink="http://www.w3.org/1999/xlink" x="0px" y="0px"
	 viewBox="0 0 75 75" style="enable-background:new 0 0 75 75;" xml:space="preserve">
<style type="text/css">
	.st0{fill:#DDDDDD;}
	.st1{fill:#231F20;}
</style>
<g>
	<path class="st0" d="M24.4,59.4c-2.1,0-4-0.3-5.1-0.6c-1.7-0.4-3-1.7-3.2-3.1c-0.2-1,0.3-1.9,1.3-2.5c2.5-1.5,2.9-2.8,3.2-4.1
		c0.2-0.7,0.4-1.3,1-1.9c0.9-0.9,2.2-1.4,3.6-1.4c1.8,0,3.7,0.8,5.3,2.2c1.8,1.6,2.9,3.7,3,5.7c0,1.2-0.3,2.3-1,3
		C30.4,58.9,26.9,59.4,24.4,59.4L24.4,59.4z"/>
	<path class="st1" d="M25.2,46.5c1.7,0,3.4,0.7,4.9,2c1.6,1.5,2.7,3.5,2.8,5.2c0,0.7-0.1,1.8-0.9,2.6c-2,2-5.2,2.5-7.6,2.5
		c-2.1,0-3.8-0.3-5-0.6c-1.6-0.4-2.6-1.6-2.7-2.6c-0.1-0.8,0.2-1.4,1-1.9c2.7-1.6,3.1-3.2,3.5-4.4c0.2-0.7,0.3-1.1,0.8-1.6
		C22.8,46.9,23.9,46.5,25.2,46.5 M25.2,45.2c-1.6,0-3,0.5-4.1,1.6c-1.9,1.8-0.3,3.6-4,5.9c-3.2,1.9-1.4,6,2.1,6.8
		c1.6,0.4,3.4,0.6,5.3,0.6c3.2,0,6.5-0.7,8.5-2.9c2.3-2.4,1.3-6.8-2-9.7C29.2,45.9,27.1,45.2,25.2,45.2L25.2,45.2z"/>
</g>
<g>
	<path class="st0" d="M35.5,50.8c-0.7-1.7-1.9-3.4-3.4-4.6c-1.1-0.9-2.3-1.8-4.4-2.5c2.9-3.2,13.9-15.1,22.4-22.9
		c0.5-0.5,1.2-0.8,2-0.8c0.8,0,1.6,0.3,2.3,0.9c1.3,1.1,1.5,3,0.6,4.2C46.1,38.6,38,48,35.5,50.8z"/>
	<path class="st1" d="M52.2,20.7c0.7,0,1.3,0.3,1.8,0.7c1,0.9,1.3,2.4,0.5,3.3l0,0l0,0c-8.2,12.4-15.8,21.4-18.8,24.8
		c-0.8-1.5-1.9-2.9-3.2-3.9l-0.1-0.1c-0.8-0.7-1.9-1.5-3.6-2.2c3.6-4,13.7-14.9,21.8-22.1C51,20.9,51.6,20.7,52.2,20.7 M52.2,19.4
		c-0.9,0-1.8,0.3-2.4,0.9C39.7,29.5,26.6,44,26.6,44c2.7,0.6,4,1.7,5.2,2.7c1.8,1.5,3.2,3.7,3.6,5.4c0,0,9.5-10.3,20.3-26.6
		c1.1-1.5,0.8-3.7-0.7-5.1l0,0C54.1,19.7,53.1,19.4,52.2,19.4L52.2,19.4z"/>
</g>
</svg>
