<?xml version="1.0" encoding="utf-8"?>
<!-- Generator: Adobe Illustrator 19.0.0, SVG Export Plug-In . SVG Version: 6.00 Build 0)  -->
<svg version="1.1" id="Layer_1" xmlns="http://www.w3.org/2000/svg" xmlns:xlink="http://www.w3.org/1999/xlink" x="0px" y="0px"
	 viewBox="29 -28 75 75" style="enable-background:new 29 -28 75 75;" xml:space="preserve">
<style type="text/css">
	.st0{fill:#545456;}
	.st1{stroke:#FFFFFF;stroke-width:2;stroke-miterlimit:10;}
	.st2{stroke:#FFFFFF;stroke-width:1.7808;stroke-miterlimit:10;}
</style>
<g id="XMLID_6_">
	<path d="M64.1,26.6c-1.1,0-2.4,0-3.9-0.4c-0.2-0.1-0.3-0.1-0.5-0.1c-0.2-0.1-0.4-0.1-0.6-0.2c-0.3-0.1-0.8-0.3-1.2-0.5
		c-0.9-0.5-1.7-1-2.5-1.6c-0.8-0.7-1.3-1.3-2-2.2c-0.5-0.8-2.1-3.4-2.4-6.2c-0.2-2.3,0.1-3.9,0.3-5.2c0.3-1.3,0.6-2.5,1.1-3.8
		c0.3-0.7,0.6-1.5,0.9-2.1c0.2-0.3,0.3-0.7,0.5-1c0.1-0.3,0.3-0.6,0.4-0.9c0.3-0.7,0.6-1.3,0.7-1.8c0.3-0.9,0.4-1.7,0.5-2.5
		c0,0,0.3-2.9-0.5-4.7c-0.2-0.5-1.1-1.9-2.8-1.9c-0.1,0-0.3,0-0.4,0c-2.1,0.4-3.9,2-3.9,2c0,0-0.1,0.1-0.2,0.1c0,0-0.1,0-0.1,0
		c-0.1,0-0.1-0.1-0.1-0.3c0-0.1,0.4-2.7,3.2-4.7c0.6-0.5,1.5-0.9,2.5-1c0.4-0.1,0.9-0.1,1.4-0.1c0.7,0,1.4,0.1,2.1,0.2
		c5.3,1.3,7.9,11.2,8.2,12.3l0.2,0.9c0.3,1,0.5,2,0.7,2.9c0.1,0.5,0.3,1.8,0.6,3.1c0.3,1.6,0.6,3.2,0.7,3.7c0.2,0,0.4,0,0.7,0
		c1,0,2.3-0.1,4.1-0.3c1.3-0.2,2.6-0.4,3.8-0.5c1.2-0.1,2.5-0.2,3.7-0.2s2.6,0.1,3.7,0.2c1.1,0.2,2.5,0.5,3.8,1.1
		c1.2,0.6,2.5,1.3,3.2,2.5c1.7,2.2,2.1,4.9,1.3,8.1c-0.3,1.1-1.4,3.3-1.4,3.4c0,0.1-0.1,0.1-0.2,0.1c0,0,0,0,0,0
		c-0.1,0-0.2-0.1-0.2-0.2c0,0-0.4-2.3-0.7-3.4c-0.1-0.4-0.3-1-0.5-1.4c-0.2-0.3-0.5-0.9-0.8-1.2C87,18.1,86.3,18,85.3,18
		c-1.6,0-4,0.9-6.4,2.4c-0.4,0.2-1.8,1.1-3.1,1.8c-1.2,0.7-2.2,1.3-2.4,1.5c-1.2,0.7-2,1-3,1.4c-0.3,0.1-0.6,0.2-0.9,0.4
		C68.1,25.9,66.4,26.5,64.1,26.6C64.1,26.6,64.1,26.6,64.1,26.6z"/>
	<path class="st0" d="M54.6-12.5c0.6,0,1.3,0.1,2,0.2c4.4,1.1,7.1,8.5,8,12.1c0.3,1.2,0.7,2.6,0.9,3.8c0.2,1.2,1.2,6,1.3,6.8
		c0,0.1,0,0.1,0,0.2c-0.4,0-0.6-0.1-0.9-0.1c-0.1,0-0.2,0-0.3,0c-0.1-0.1-0.3-0.2-0.5-0.2c-0.1-0.1-0.2-0.1-0.3-0.1
		c-0.1,0-0.2,0-0.3-0.1c-0.1,0-0.2,0-0.2,0c-0.1,0-0.2,0.1-0.1,0.1c0.1,0.1,0.3,0.1,0.7,0.2c0.1,0,0.3,0,0.5,0.1c0.1,0,0.1,0,0.2,0
		c0.1,0.1,0.3,0.2,0.4,0.3c0.3,0.3,0.5,0.6,0.7,0.8c0.1,0.1,0.1,0.2,0.2,0.3C67,11.9,67,12,67,12c0.1,0,0.1,0.1,0.1,0.1
		c0.1,0.2,0.1,0.3,0.1,0.3c0,0,0,0,0,0c-0.1-0.3-0.3-1-0.4-1.8c0.2,0,0.5,0,1,0c0.8,0,2-0.1,4.1-0.3c1.3-0.2,2.6-0.4,3.8-0.5
		c1.2-0.1,2.5-0.2,3.7-0.2s2.5,0.1,3.7,0.2c1.2,0.2,2.5,0.5,3.7,1.1c1.2,0.6,2.4,1.3,3.1,2.4c2.4,3.2,1.6,6.7,1.3,7.9
		c-0.3,1.1-1.4,3.3-1.4,3.3s-0.4-2.3-0.7-3.4c-0.1-0.4-0.3-1-0.5-1.4c-0.2-0.4-0.5-0.9-0.9-1.3c-0.6-0.6-1.3-0.7-2.4-0.7
		c-2,0-4.5,1.2-6.5,2.4c-0.8,0.4-4.9,3-5.5,3.3c-1.6,0.9-2.5,1.2-3.9,1.8c-1.4,0.5-3.1,1-5.3,1.1c-1.1,0-2.4,0-3.8-0.4
		c-0.3-0.1-0.8-0.2-1.1-0.3c-0.3-0.1-0.8-0.3-1.2-0.5c-0.8-0.4-1.6-0.9-2.4-1.6c-0.8-0.7-1.3-1.3-2-2.2c-0.2-0.3-2.1-3.1-2.3-6.1
		c-0.2-2.2,0-3.7,0.3-5.1c0.3-1.4,0.7-2.7,1.1-3.8c0.4-1.1,1-2.2,1.4-3.1c0.4-1,0.9-2,1.1-2.8c0.3-0.9,0.4-1.7,0.5-2.5
		c0,0,0.3-3-0.5-4.8C55-7.3,54-9,52.1-9c-0.1,0-0.3,0-0.5,0c-2.3,0.4-4,2.1-4,2.1s0.3-2.6,3.1-4.5c0.5-0.4,1.3-0.8,2.4-1
		C53.6-12.5,54.1-12.5,54.6-12.5 M54.6-13L54.6-13c-0.5,0-1.1,0.1-1.5,0.1c-1,0.2-2,0.6-2.6,1.1c-2.9,2-3.3,4.7-3.3,4.8
		c0,0.2,0.1,0.4,0.3,0.5c0.1,0,0.1,0.1,0.2,0.1c0.1,0,0.3,0,0.3-0.1c0,0,1.7-1.6,3.8-1.9c0.1,0,0.3,0,0.4,0c1.8,0,2.6,1.8,2.6,1.8
		c0.7,1.7,0.5,4.5,0.5,4.6c-0.1,0.8-0.2,1.5-0.5,2.4c-0.1,0.5-0.4,1.2-0.7,1.8c-0.1,0.3-0.3,0.6-0.4,1c-0.1,0.3-0.3,0.6-0.4,0.9
		c-0.3,0.7-0.7,1.4-1,2.2c-0.5,1.3-0.8,2.6-1.1,3.9c-0.3,1.3-0.6,2.9-0.4,5.3c0.3,2.9,1.9,5.6,2.4,6.3c0.8,1,1.3,1.6,2.1,2.3
		c0.8,0.7,1.6,1.2,2.5,1.7c0.4,0.2,1,0.4,1.3,0.5c0.2,0.1,0.4,0.1,0.6,0.2c0.2,0,0.4,0.1,0.5,0.1c1.5,0.4,2.9,0.4,4,0.4
		c2.3-0.1,4.1-0.6,5.5-1.1c0.4-0.2,0.7-0.3,1-0.4c0.9-0.4,1.8-0.7,3-1.4c0.3-0.1,1.3-0.8,2.4-1.5c1.2-0.8,2.6-1.6,3-1.8
		c2.4-1.5,4.7-2.3,6.3-2.3c1.1,0,1.6,0.2,2.1,0.6c0.4,0.3,0.6,0.8,0.8,1.2c0.2,0.4,0.4,0.9,0.5,1.3c0.3,1.1,0.7,3.3,0.7,3.4
		c0,0.2,0.2,0.4,0.4,0.4c0,0,0,0,0.1,0c0.2,0,0.4-0.1,0.4-0.3c0-0.1,1.1-2.3,1.4-3.4c0.8-3.3,0.4-6.1-1.4-8.3
		c-0.7-1.2-2-1.9-3.3-2.5c-1.3-0.7-2.8-1-3.8-1.1c-1.3-0.1-2.6-0.2-3.8-0.2c-1.2,0-2.5,0.1-3.7,0.2c-1.2,0.1-2.5,0.3-3.8,0.5
		c-1.8,0.2-3.1,0.3-4,0.3c-0.2,0-0.4,0-0.5,0c-0.1-0.6-0.4-2.1-0.7-3.5c-0.3-1.3-0.5-2.5-0.6-3.1c-0.2-0.9-0.4-1.9-0.7-2.9
		c-0.1-0.3-0.2-0.6-0.2-0.9c-0.3-1.1-2.9-11.1-8.4-12.5C56-12.9,55.3-13,54.6-13L54.6-13z"/>
</g>
<g id="XMLID_3_">
	<polyline id="XMLID_2_" class="st1" points="74.5,2.5 62.1,14.8 47,28.8 	"/>
</g>
<circle id="XMLID_4_" class="st1" cx="74.7" cy="2.5" r="2.8"/>
<circle id="XMLID_5_" class="st1" cx="47" cy="28.7" r="2.8"/>
<circle id="XMLID_1_" class="st2" cx="61.6" cy="15.2" r="5.5"/>
</svg>
