<?xml version="1.0" encoding="utf-8"?>
<!-- Generator: Adobe Illustrator 19.0.0, SVG Export Plug-In . SVG Version: 6.00 Build 0)  -->
<svg version="1.1" id="Layer_1" xmlns="http://www.w3.org/2000/svg" xmlns:xlink="http://www.w3.org/1999/xlink" x="0px" y="0px"
	 viewBox="-268 359 75 75" style="enable-background:new -268 359 75 75;" xml:space="preserve">
<style type="text/css">
	.st0{fill:#E2E3E4;stroke:#231F20;stroke-width:1.5;stroke-miterlimit:10;}
</style>
<g>
	<path class="st0" d="M-236.1,385.6c-5.2,5.4-4.1,14.3,1.9,18.2c0.2,0.1,0.5,0.1,0.7-0.1c1.2-1.2,2.3-2.4,3.2-3.9
		c0.2-0.2,0.1-0.6-0.2-0.7c-0.9-0.5-1.8-1.4-2.4-2.4l0,0c-0.6-1.2-0.8-2.5-0.5-4l0,0c0.4-1.8,2.3-3.5,3.8-5l0,0l5.5-5.7
		c2.2-2.3,5.9-2.3,8,0c2.3,2.2,2.3,5.9,0.1,8l-3.3,3.4c-0.2,0.2-0.2,0.4-0.1,0.6c0.8,2.3,0.9,5.4,0.5,7.7c0,0.1,0.1,0.1,0.1,0.1
		l7.1-7.3c4.5-4.6,4.5-12.2-0.1-16.8c-4.7-4.7-12.3-4.6-16.9,0.1L-236.1,385.6L-236.1,385.6L-236.1,385.6z"/>
	<path class="st0" d="M-222.9,404.9L-222.9,404.9L-222.9,404.9c1.4-2.6,1.8-5.7,1-8.7l0,0l0,0c-0.7-2.6-2.5-5.3-4.8-6.9
		c-0.2-0.1-0.6-0.1-0.8,0c-1.2,0.9-2.5,2.3-3.2,3.9c-0.1,0.3,0,0.6,0.2,0.7c0.9,0.6,1.7,1.3,2.3,2.4l0,0c0.5,0.8,0.8,2.1,0.6,3.6
		l0,0c-0.3,2-2.3,3.8-3.8,5.4l0,0c-1.2,1.2-4.2,4.3-5.5,5.6c-2.2,2.3-5.9,2.3-8,0.1c-2.3-2.2-2.3-5.9-0.1-8l3.3-3.4
		c0.2-0.2,0.2-0.4,0.1-0.6c-0.8-2.3-0.9-5.4-0.5-7.7c0-0.1-0.1-0.1-0.1-0.1l-7,7.2c-4.6,4.7-4.5,12.3,0.1,16.9
		c4.7,4.6,12.3,4.5,16.8-0.2C-230.6,413.2-223.7,406.9-222.9,404.9L-222.9,404.9z"/>
</g>
</svg>
