<?xml version="1.0" encoding="utf-8"?>
<!-- Generator: Adobe Illustrator 19.0.0, SVG Export Plug-In . SVG Version: 6.00 Build 0)  -->
<svg version="1.1" id="Layer_1" xmlns="http://www.w3.org/2000/svg" xmlns:xlink="http://www.w3.org/1999/xlink" x="0px" y="0px"
	 viewBox="-268 359 75 75" style="enable-background:new -268 359 75 75;" xml:space="preserve">
<style type="text/css">
	.st0{fill:#E2E3E4;stroke:#231F20;stroke-miterlimit:10;}
	.st1{fill:#E2E3E4;stroke:#000002;stroke-width:0.884;stroke-miterlimit:10;}
</style>
<g id="XMLID_442_">
	<path class="st0" d="M-234.4,409.9l-7.6-4.7c-1-0.6-1.5-1.6-1.5-2.7c-2.6-24-2.2-24.1-1.8-24.3l1.5-0.8l9.3,17.7l-0.2,0.2
		c-0.7,0.8-0.8,2-0.3,3c0.4,0.8,1.3,1.4,2.2,1.5c0.5,0,1,0,1.4-0.3c0.6-0.4,1.2-0.9,1.4-1.7c0.2-0.7,0.1-1.4-0.2-1.9
		c-0.5-0.8-1.4-1.4-2.3-1.5c-0.2,0-0.3,0-0.5,0l-0.3,0.1l-9.2-17.6l1.7-0.9l0.1,0c0.7,0.1,10.5,8.3,18.6,15.4
		c0.9,0.5,1.4,1.5,1.3,2.4l-0.3,9.5c-0.1,1.2-0.7,2.2-1.6,2.6l-8.3,4.4C-232.2,410.6-233.9,410.2-234.4,409.9z"/>
</g>
<path id="XMLID_443_" class="st1" d="M-219.4,407.1c-0.7-0.4-1.7-0.4-2.1-0.2l-9.4,5c-0.4,0.3-1,1-1,1.9l0.5,4
	c0.3,0.4,0.9,0.8,1.4,0.4l13.4-7.2c0.4-0.3,0.8-0.9,0.4-1.4L-219.4,407.1z"/>
</svg>
