<?xml version="1.0" encoding="utf-8"?>
<!-- Generator: Adobe Illustrator 19.0.0, SVG Export Plug-In . SVG Version: 6.00 Build 0)  -->
<svg version="1.1" id="Layer_1" xmlns="http://www.w3.org/2000/svg" xmlns:xlink="http://www.w3.org/1999/xlink" x="0px" y="0px"
	 viewBox="-268 359 75 75" style="enable-background:new -268 359 75 75;" xml:space="preserve">
<style type="text/css">
	.st0{fill:#FFFFFF;stroke:#000000;stroke-width:0.75;stroke-miterlimit:10;}
</style>
<path id="XMLID_18_" class="st0" d="M-210.9,399.4c-1.4-1.2-3.4-2-5.5-2.1c-0.3,0-0.7,0-0.7,0c-2.8-0.1-4.3-0.9-5.6-1.2
	c1.3-0.4,2.7-0.7,5.3-0.7c0.5,0.1,1,0.2,1.5,0.2c4,0,7.3-3,7.3-6.8c0-3.7-3.3-6.8-7.3-6.8s-7.3,3-7.3,6.8c0,1.5,0.5,2.9,1.4,4
	c-0.8,0-3.2,0.2-4.9,1.1l-16.4-7.8c0,0-3.4-1.8-9.1,0.9l20.5,9.5l-19.6,9.1c2.8,3.3,7.8,1.3,7.8,1.3l16.9-8.1
	c0.9,0.4,2.2,0.8,3.9,0.8c-1.2,1.2-1.9,2.7-2,4.3c-0.1,1.9,0.7,3.7,2.3,5c1.4,1.2,3.4,2,5.5,2.1c2.1,0.1,4.1-0.5,5.6-1.7
	c1.6-1.2,2.6-2.9,2.6-4.8C-208.6,402.5-209.4,400.7-210.9,399.4z M-215.9,384.7c2.4,0,4.5,1.8,4.5,3.9c0,2.1-2,3.9-4.5,3.9
	c-2.4,0-4.5-1.8-4.5-3.9C-220.4,386.5-218.4,384.7-215.9,384.7z M-216.8,408c-2.9-0.1-5.1-2-5-4.1s2.4-3.8,5.3-3.7
	c2.9,0.1,5.1,2,5,4.1C-211.5,406.4-214,408.1-216.8,408z"/>
</svg>
