<?xml version="1.0" encoding="utf-8"?>
<!-- Generator: Adobe Illustrator 19.0.0, SVG Export Plug-In . SVG Version: 6.00 Build 0)  -->
<svg version="1.1" id="Layer_1" xmlns="http://www.w3.org/2000/svg" xmlns:xlink="http://www.w3.org/1999/xlink" x="0px" y="0px"
	 viewBox="-922 503 75 75" style="enable-background:new -922 503 75 75;" xml:space="preserve">
<style type="text/css">
	.st0{fill:#E2E3E4;stroke:#231F20;stroke-width:2;stroke-miterlimit:10;}
</style>
<path class="st0" d="M-862.7,535.2l-3.8-0.5c-0.3-1-0.7-1.9-1.2-2.8l2.3-3c1-1.3,0.9-2.9-0.3-4l-3.2-3.2c-1.1-1.1-2.8-1.2-4-0.3
	l-3,2.3c-0.9-0.5-1.9-0.9-2.8-1.2l-0.5-3.8c-0.2-1.6-1.5-2.6-3-2.6h-4.6c-1.6,0-2.8,1.2-3,2.6l-0.5,3.8c-1,0.3-1.9,0.7-2.8,1.2
	l-3-2.3c-1.3-1-2.9-0.9-4,0.3l-3.2,3.2c-1.1,1.1-1.2,2.8-0.3,4l2.3,3c-0.5,0.9-0.9,1.9-1.2,2.8l-3.8,0.5c-1.6,0.2-2.6,1.5-2.6,3v4.6
	c0,1.6,1.2,2.8,2.6,3l3.8,0.5c0.3,1,0.7,1.9,1.2,2.8l-2.3,3c-1,1.3-0.9,2.9,0.3,4l3.2,3.2c1.1,1.1,2.8,1.2,4,0.3l3-2.3
	c0.9,0.5,1.9,0.9,2.8,1.2l0.5,3.8c0.2,1.6,1.5,2.6,3,2.6h4.6c1.6,0,2.8-1.2,3-2.6l0.5-3.8c1-0.3,1.9-0.7,2.8-1.2l3,2.3
	c1.3,1,2.9,0.9,4-0.3l3.2-3.2c1.1-1.1,1.2-2.8,0.3-4l-2.3-3c0.5-0.9,0.9-1.9,1.2-2.8l3.8-0.5c1.6-0.2,2.6-1.5,2.6-3v-4.6
	C-860.1,536.6-861.3,535.4-862.7,535.2z M-884.5,550.6c-5.6,0-10.2-4.6-10.2-10.2c0-5.6,4.6-10.2,10.2-10.2
	c5.6,0,10.2,4.6,10.2,10.2C-874.3,546-878.9,550.6-884.5,550.6z"/>
</svg>
