<?xml version="1.0" encoding="utf-8"?>
<!-- Generator: Adobe Illustrator 19.0.0, SVG Export Plug-In . SVG Version: 6.00 Build 0)  -->
<svg version="1.1" id="Layer_1" xmlns="http://www.w3.org/2000/svg" xmlns:xlink="http://www.w3.org/1999/xlink" x="0px" y="0px"
	 viewBox="-268 359 75 75" style="enable-background:new -268 359 75 75;" xml:space="preserve">
<style type="text/css">
	.st0{fill:#D8D9DA;stroke:#000000;stroke-width:1.0588;stroke-miterlimit:10;}
	.st1{fill:none;stroke:#000000;stroke-width:1.0588;stroke-linecap:round;stroke-miterlimit:10;}
</style>
<path class="st0" d="M-213.9,411.1l-12.6-12.6c1.2-1.9,1.9-4.1,1.9-6.6c0-6.8-5.5-12.4-12.4-12.4c-6.8,0-12.4,5.5-12.4,12.4
	c0,6.8,5.5,12.4,12.4,12.4c2.5,0,4.2-0.3,6.2-1.7l0,0l12.6,12.6c0.4,0.4,1.1,0.4,1.5,0l2.6-2.6
	C-213.5,412.2-213.5,411.5-213.9,411.1z"/>
<path class="st1" d="M-244,397.8c-3.2-4-2.5-9.8,1.5-13"/>
</svg>
