<?xml version="1.0" encoding="utf-8"?>
<!-- Generator: Adobe Illustrator 19.0.0, SVG Export Plug-In . SVG Version: 6.00 Build 0)  -->
<svg version="1.1" id="Layer_1" xmlns="http://www.w3.org/2000/svg" xmlns:xlink="http://www.w3.org/1999/xlink" x="0px" y="0px"
	 viewBox="0 0 30 30" style="enable-background:new 0 0 30 30;" xml:space="preserve">
<style type="text/css">
	.st0{fill:#FFFFFF;}
</style>
<g id="XMLID_453_">
	<path class="st0" d="M2.6,25.8V4.1h11.1v21.7H2.6z M11.8,23.8V6.1H4.6v17.7H11.8z"/>
	<path d="M13.5,4.4v21.2H2.9V4.4H13.5 M4.4,24.1H12V5.9H4.4V24.1 M14,3.9h-0.5H2.9H2.4v0.5v21.2v0.5h0.5h10.6H14v-0.5V4.4V3.9
		L14,3.9z M4.9,6.4h6.6v17.2H4.9V6.4L4.9,6.4z"/>
</g>
<g id="XMLID_454_">
	<rect x="16.3" y="11.5" class="st0" width="11.1" height="14.3"/>
	<path d="M27.1,11.7v13.8H16.5V11.7H27.1 M27.6,11.2h-0.5H16.5H16v0.5v13.8V26h0.5h10.6h0.5v-0.5V11.7V11.2L27.6,11.2z"/>
</g>
<g id="XMLID_455_">
	<rect x="-0.3" y="27.6" class="st0" width="30.5" height="2"/>
	<path d="M30,27.9v1.5H0v-1.5H30 M30.5,27.4H30H0h-0.5v0.5v1.5v0.5H0h30h0.5v-0.5v-1.5V27.4L30.5,27.4z"/>
</g>
</svg>
