<?xml version="1.0" encoding="utf-8"?>
<!-- Generator: Adobe Illustrator 19.0.0, SVG Export Plug-In . SVG Version: 6.00 Build 0)  -->
<svg version="1.1" id="Layer_1" xmlns="http://www.w3.org/2000/svg" xmlns:xlink="http://www.w3.org/1999/xlink" x="0px" y="0px"
	 viewBox="0 0 30 30" style="enable-background:new 0 0 30 30;" xml:space="preserve">
<style type="text/css">
	.st0{fill:#FFFFFF;}
</style>
<g id="XMLID_458_">
	<path class="st0" d="M2.5,25.8V16h-2.8v-2h2.8V4.1h11.2V14h3V7.9h11.1V14h2.4V16h-2.4v6.2H16.8V16h-3.1v9.8H2.5z M11.6,23.8V6.1
		H4.5v17.7H11.6z"/>
	<path d="M13.5,4.4v9.9H17V8.1h10.6v6.2H30v1.4h-2.4v6.2H17v-6.2h-3.6v9.8H2.8v-9.8H0v-1.5h2.8V4.4H13.5 M4.3,24.1H12h-0.1V5.9H4.3
		V24.1 M14,3.9h-0.5H2.8H2.3v0.5v9.3H0h-0.5v0.5v1.5v0.5H0h2.3v9.3V26h0.5h10.6h0.5v-0.5v-9.3h2.6v5.7v0.5H17h10.6h0.5v-0.5v-5.7H30
		h0.5v-0.5v-1.4v-0.5H30h-1.9V8.1V7.6h-0.5H17h-0.5v0.5v5.7H14V4.4V3.9L14,3.9z M4.8,6.4h6.6v17.2H4.8V6.4L4.8,6.4z"/>
</g>
</svg>
