<?xml version="1.0" encoding="utf-8"?>
<!-- Generator: Adobe Illustrator 19.0.0, SVG Export Plug-In . SVG Version: 6.00 Build 0)  -->
<svg version="1.1" id="Layer_1" xmlns="http://www.w3.org/2000/svg" xmlns:xlink="http://www.w3.org/1999/xlink" x="0px" y="0px"
	 viewBox="0 0 30 30" style="enable-background:new 0 0 30 30;" xml:space="preserve">
<style type="text/css">
	.st0{fill:#FFFFFF;}
</style>
<g id="XMLID_448_">
	<path class="st0" d="M2.4,25.8V4.1h11.2v21.7H2.4z M11.5,23.8V6.1H4.4v17.7H11.5z"/>
	<path d="M13.4,4.4v21.2H2.7V4.4H13.4 M4.2,24.1h7.6V5.9H4.2V24.1 M13.9,3.9h-0.5H2.7H2.2v0.5v21.2v0.5h0.5h10.7h0.5v-0.5V4.4V3.9
		L13.9,3.9z M4.7,6.4h6.6v17.2H4.7V6.4L4.7,6.4z"/>
</g>
<g id="XMLID_449_">
	<rect x="16.5" y="4.1" class="st0" width="11.1" height="14.3"/>
	<path d="M27.3,4.4v13.8H16.7V4.4H27.3 M27.8,3.9h-0.5H16.7h-0.5v0.5v13.8v0.5h0.5h10.6h0.5v-0.5V4.4V3.9L27.8,3.9z"/>
</g>
<g id="XMLID_450_">
	<rect x="-0.3" y="0.4" class="st0" width="30.5" height="2"/>
	<path d="M30,0.6v1.5H0V0.6H30 M30.5,0.1H30H0h-0.5v0.5v1.5v0.5H0h30h0.5V2.1V0.6V0.1L30.5,0.1z"/>
</g>
</svg>
