<?xml version="1.0" encoding="utf-8"?>
<!-- Generator: Adobe Illustrator 19.0.0, SVG Export Plug-In . SVG Version: 6.00 Build 0)  -->
<svg version="1.1" id="Layer_1" xmlns="http://www.w3.org/2000/svg" xmlns:xlink="http://www.w3.org/1999/xlink" x="0px" y="0px"
	 viewBox="0 0 30 30" style="enable-background:new 0 0 30 30;" xml:space="preserve">
<style type="text/css">
	.st0{fill:#FFFFFF;}
</style>
<g id="XMLID_461_">
	<path id="XMLID_37_" class="st0" d="M2.3,30.2V-0.3h2v4.5h9.1v21.7H4.3v4.3H2.3z M11.4,23.9V6.2H4.3v17.7H11.4z"/>
	<path id="XMLID_32_" d="M4,0v4.5h9.1v21.2H4V30H2.5v-4.3V4.5V0H4 M4,24.1h7.6V6H4V24.1 M4.5-0.5H4H2.5H2V0v4.5v21.2V30v0.5h0.5H4
		h0.5V30v-3.8h8.6h0.5v-0.5V4.5V4h-0.5H4.5V0V-0.5L4.5-0.5z M4.5,6.5h6.6v17.2H4.5V6.5L4.5,6.5z"/>
</g>
<g id="XMLID_462_">
	<polygon id="XMLID_16_" class="st0" points="16.9,30.2 16.9,-0.3 18.9,-0.3 18.9,7.9 28.1,7.9 28.1,22.2 18.9,22.2 18.9,30.2 	"/>
	<path id="XMLID_13_" d="M18.7,0v8.2h9.1V22h-9.1v8h-1.5v-8V8.1V0H18.7 M19.2-0.5h-0.5h-1.5h-0.5V0v8.2V22v8v0.5h0.5h1.5h0.5V30
		v-7.5h8.6h0.5V22V8.1V7.6h-0.5h-8.6V0V-0.5L19.2-0.5z"/>
</g>
</svg>
