<?xml version="1.0" encoding="utf-8"?>
<!-- Generator: Adobe Illustrator 19.0.0, SVG Export Plug-In . SVG Version: 6.00 Build 0)  -->
<svg version="1.1" id="Layer_1" xmlns="http://www.w3.org/2000/svg" xmlns:xlink="http://www.w3.org/1999/xlink" x="0px" y="0px"
	 viewBox="0 0 30 30" style="enable-background:new 0 0 30 30;" xml:space="preserve">
<style type="text/css">
	.st0{fill:#FFFFFF;}
</style>
<g id="XMLID_463_">
	<polygon class="st0" points="21.8,30.3 21.8,22.3 17.2,22.3 17.2,8 21.8,8 21.8,-0.3 23.8,-0.3 23.8,8 28.3,8 28.3,22.3 23.8,22.3 
		23.8,30.3 	"/>
	<path d="M23.5,0v8.2H28V22h-4.5v8H22v-8h-4.6V8.2H22V0H23.5 M24-0.5h-0.5H22h-0.5V0v7.7h-4.1h-0.5v0.5V22v0.5h0.5h4.1V30v0.5H22
		h1.5H24V30v-7.5h4h0.5V22V8.2V7.7H28h-4V0V-0.5L24-0.5z"/>
</g>
<g id="XMLID_470_">
	<path class="st0" d="M7,30.3V26H2.4V4.3h4.5v-4.5h2v4.5h4.6V26H9v4.3H7z M11.5,24V6.3H4.4V24H11.5z"/>
	<path d="M8.6,0v4.5h4.6v21.2H8.7V30H7.2v-4.3H2.6V4.5h4.5V0H8.6 M4.1,24.2h7.6V6H4.1V24.2 M9.1-0.5H8.6H7.1H6.6V0v4h-4H2.1v0.5
		v21.2v0.5h0.5h4.1V30v0.5h0.5h1.5h0.5V30v-3.8h4h0.5v-0.5V4.5V4h-0.5H9.1V0V-0.5L9.1-0.5z M4.6,6.5h6.6v17.2H4.6V6.5L4.6,6.5z"/>
</g>
</svg>
