<?xml version="1.0" encoding="utf-8"?>
<!-- Generator: Adobe Illustrator 23.1.0, SVG Export Plug-In . SVG Version: 6.00 Build 0)  -->
<svg version="1.1" id="Layer_1" xmlns="http://www.w3.org/2000/svg" xmlns:xlink="http://www.w3.org/1999/xlink" x="0px" y="0px"
	 viewBox="0 0 102 126" style="enable-background:new 0 0 102 126;" xml:space="preserve">
<style type="text/css">
	.st0{fill:#AAAAAA;}
</style>
<g>
	<path class="st0" d="M34.2,58l0.8,0.5v-15l-0.1-0.1c-2.2-3.4-3.3-7.1-3.3-10.9c0-10.7,8.7-19.4,19.4-19.4s19.4,8.7,19.4,19.4
		c0,4-1.1,7.5-3.3,10.9L67,43.6v14.9l0.8-0.5c8.5-5.6,13.6-15,13.6-25.3C81.4,15.8,67.8,2.2,51,2.2S20.6,15.8,20.6,32.6
		C20.6,42.9,25.7,52.4,34.2,58z"/>
	<path class="st0" d="M67.8,68L67,67.5v15l0.1,0.1c2.2,3.4,3.3,7,3.3,10.9c0,10.7-8.7,19.4-19.4,19.4s-19.4-8.7-19.4-19.4
		c0-3.9,1.1-7.7,3.3-10.9l0.1-0.1v-15L34.2,68c-8.5,5.7-13.6,15.2-13.6,25.4c0,16.8,13.6,30.4,30.4,30.4s30.4-13.6,30.4-30.4
		C81.4,83.1,76.3,73.6,67.8,68z"/>
	<path class="st0" d="M43,33.7v58.6c0,4.4,3.5,8,8,8.1c4.4,0,8-3.6,8-8V33.7c0-4.4-3.6-8-8-8S43,29.3,43,33.7z"/>
</g>
</svg>
