<?xml version="1.0" encoding="utf-8"?>
<!-- Generator: Adobe Illustrator 19.0.0, SVG Export Plug-In . SVG Version: 6.00 Build 0)  -->
<svg version="1.1" id="Layer_1" xmlns="http://www.w3.org/2000/svg" xmlns:xlink="http://www.w3.org/1999/xlink" x="0px" y="0px"
	 viewBox="-232 343 147 107" style="enable-background:new -232 343 147 107;" xml:space="preserve">
<style type="text/css">
	.st0{fill:#AAAAAA;}
	.st1{fill:#202020;}
</style>
<g id="XMLID_3_">
	<g id="XMLID_11_">
		<path class="st0" d="M-188.9,427.7c-16.9,0-30.6-13.8-30.6-30.7s13.7-30.6,30.6-30.6c10.9,0,20.8,5.7,26.2,14.9h-15.4
			c-3.4-2.3-7.1-3.4-10.9-3.4c-10.6,0-19.1,8.6-19.1,19.1c0,10.6,8.6,19.2,19.1,19.2c3.9,0,7.7-1.2,10.9-3.4h15.5
			C-168.1,422-178.1,427.7-188.9,427.7z"/>
		<path class="st1" d="M-188.9,367.1c10.2,0,19.5,5.1,24.9,13.4h-13.8c-3.5-2.3-7.2-3.4-11.2-3.4c-11,0-19.9,8.9-19.9,19.9
			s8.9,19.9,19.9,19.9c4,0,7.8-1.2,11.2-3.4h13.9c-5.5,8.3-14.8,13.4-25,13.4c-16.5,0-29.9-13.4-29.9-29.9S-205.4,367.1-188.9,367.1
			 M-188.9,365.6c-17.3,0-31.4,14.1-31.4,31.4s14.1,31.4,31.4,31.4c11.9,0,22.3-6.6,27.6-16.4h-17c-3,2.1-6.7,3.4-10.7,3.4
			c-10.2,0-18.4-8.3-18.4-18.4s8.3-18.4,18.4-18.4c4,0,7.6,1.3,10.7,3.4h16.9C-166.6,372.2-177,365.6-188.9,365.6L-188.9,365.6z"/>
	</g>
	<g id="XMLID_1_">
		<path class="st0" d="M-128.1,427.7c-10.9,0-20.8-5.7-26.3-14.9h15.5c3.3,2.2,7,3.4,10.9,3.4c10.6,0,19.2-8.6,19.2-19.2
			c0-10.6-8.6-19.1-19.2-19.1c-3.8,0-7.5,1.1-10.9,3.4h-15.5c5.5-9.2,15.5-14.9,26.3-14.9c16.9,0,30.6,13.7,30.6,30.6
			S-111.2,427.7-128.1,427.7z"/>
		<path class="st1" d="M-128.1,367.1c16.5,0,29.9,13.4,29.9,29.9s-13.4,29.9-29.9,29.9c-10.1,0-19.5-5.1-25-13.4h13.9
			c3.3,2.2,7.2,3.4,11.2,3.4c11,0,19.9-8.9,19.9-19.9s-8.9-19.9-19.9-19.9c-3.9,0-7.7,1.1-11.2,3.4h-13.9
			C-147.6,372.2-138.2,367.1-128.1,367.1 M-128.1,365.6c-11.9,0-22.3,6.6-27.6,16.4h17c3.1-2.1,6.7-3.4,10.7-3.4
			c10.1,0,18.4,8.3,18.4,18.4s-8.2,18.4-18.4,18.4c-4,0-7.7-1.3-10.7-3.4h-17c5.3,9.8,15.7,16.4,27.6,16.4
			c17.3,0,31.4-14.1,31.4-31.4S-110.8,365.6-128.1,365.6L-128.1,365.6z"/>
	</g>
</g>
<g id="XMLID_2_">
	<path class="st0" d="M-187.8,405.3c-4.5,0-8.3-3.7-8.3-8.3s3.7-8.3,8.3-8.3h58.7c4.5,0,8.3,3.7,8.3,8.3c-0.1,4.6-3.8,8.3-8.4,8.3
		H-187.8z"/>
	<path class="st1" d="M-129.1,389.5c4.1,0,7.5,3.4,7.5,7.5c-0.1,4.2-3.4,7.5-7.6,7.5h-58.6c-4.1,0-7.5-3.4-7.5-7.5s3.4-7.5,7.5-7.5
		H-129.1 M-129.1,388h-58.7c-5,0-9,4.1-9,9c0,5,4.1,9,9,9h58.6c5,0,9-4,9.1-9C-120.1,392-124.2,388-129.1,388L-129.1,388z"/>
</g>
</svg>
