<?xml version="1.0" encoding="utf-8"?>
<!-- Generator: Adobe Illustrator 23.1.0, SVG Export Plug-In . SVG Version: 6.00 Build 0)  -->
<svg version="1.1" id="Layer_1" xmlns="http://www.w3.org/2000/svg" xmlns:xlink="http://www.w3.org/1999/xlink" x="0px" y="0px"
	 viewBox="0 0 147 107" style="enable-background:new 0 0 147 107;" xml:space="preserve">
<style type="text/css">
	.st0{fill:#AAAAAA;}
	.st1{fill:#202020;}
</style>
<g id="XMLID_57_">
	<g id="XMLID_68_">
		<rect x="70.4" y="78.6" class="st0" width="6.5" height="25.1"/>
		<path class="st1" d="M71.1,103V79.4h5V103H71.1 M69.6,104.5h1.5h5h1.5V103V79.4v-1.5h-1.5h-5h-1.5v1.5V103V104.5L69.6,104.5z"/>
	</g>
</g>
<g id="XMLID_58_">
	<g id="XMLID_67_">
		
			<rect x="49.6" y="87.1" transform="matrix(0.7071 -0.7071 0.7071 0.7071 -46.5171 68.4298)" class="st0" width="19.4" height="6.5"/>
		<path class="st1" d="M54.8,98.4l-3.5-3.5L64,82.2l3.5,3.5L54.8,98.4 M54.8,100.5l1.1-1.1l12.7-12.7l1.1-1.1l-1.1-1.1L65.1,81
			L64,79.9L62.9,81L50.2,93.7l-1.1,1.1l1.1,1.1l3.5,3.5L54.8,100.5L54.8,100.5z"/>
	</g>
</g>
<g id="XMLID_59_">
	<g id="XMLID_66_">
		
			<rect x="84.9" y="80.7" transform="matrix(0.7071 -0.7071 0.7071 0.7071 -38.0989 88.8322)" class="st0" width="6.5" height="19.4"/>
		<path class="st1" d="M92.8,98.5L80.1,85.8l3.5-3.5L96.3,95L92.8,98.5 M92.8,100.6l1.1-1.1l3.5-3.5l1.1-1.1l-1.1-1.1L84.7,81.1
			L83.6,80l-1.1,1.1L79,84.6l-1.1,1.1l1.1,1.1l12.7,12.7L92.8,100.6L92.8,100.6z"/>
	</g>
</g>
<g id="XMLID_6_">
	<g id="XMLID_7_">
		<g>
			<path class="st0" d="M105.5,23.2c16.7,0,30.3,13.6,30.3,30.2c0,16.7-13.6,30.3-30.3,30.3H94.8L79.1,69.2h26.3
				c8.7,0,15.8-7.1,15.8-15.8s-7.1-15.7-15.8-15.7h-26L95,23.2H105.5z"/>
			<path class="st1" d="M95.1,82.9L81,69.9h24.4c9.1,0,16.5-7.4,16.5-16.5s-7.4-16.5-16.5-16.5H81.3l14-13h10.2
				c16.3,0,29.5,13.2,29.5,29.5s-13.2,29.5-29.5,29.5H95.1 M94.5,84.4h11c17.1,0,31-13.9,31-31s-13.9-31-31-31H94.7l-17.2,16h27.9
				c8.3,0,15,6.7,15,15s-6.7,15-15,15H77.2L94.5,84.4L94.5,84.4z"/>
		</g>
	</g>
	<g id="XMLID_60_">
		<g>
			<path class="st0" d="M52.8,23.2L68,37.7H41.5c-8.7,0-15.8,7.1-15.8,15.7c0,8.7,7.1,15.8,15.8,15.8h26.6L53,83.7H41.6
				c-16.7,0-30.3-13.6-30.3-30.3s13.6-30.2,30.3-30.2C41.6,23.2,52.8,23.2,52.8,23.2z"/>
			<path class="st1" d="M41.6,82.9C25.3,82.9,12,69.7,12,53.4s13.2-29.5,29.5-29.5h11l13.6,13H41.5c-9.1,0-16.5,7.4-16.5,16.5
				s7.4,16.5,16.5,16.5h24.8l-13.6,13H41.6 M41.6,84.4h11.7l16.7-16H41.5c-8.3,0-15-6.7-15-15s6.7-15,15-15h28.4l-16.8-16H41.5
				c-17.1,0-31,13.9-31,31S24.5,84.4,41.6,84.4L41.6,84.4z"/>
		</g>
	</g>
</g>
<g id="XMLID_61_">
	<g id="XMLID_65_">
		<rect x="70.4" y="3.2" class="st0" width="6.5" height="25.1"/>
		<path class="st1" d="M71.1,27.6V4h5v23.6H71.1 M69.6,29.1h1.5h5h1.5v-1.5V4V2.5h-1.5h-5h-1.5V4v23.6V29.1L69.6,29.1z"/>
	</g>
</g>
<g id="XMLID_5_">
	<g id="XMLID_64_">
		<rect x="56.1" y="7" transform="matrix(0.7071 -0.7071 0.7071 0.7071 5.5568 46.8409)" class="st0" width="6.5" height="19.4"/>
		<path class="st1" d="M64,24.8L51.3,12.1l3.5-3.5l12.7,12.7L64,24.8 M64,27l1.1-1.1l3.5-3.5l1.1-1.1l-1.1-1.1L55.9,7.5l-1.1-1.1
			l-1.1,1.1L50.2,11l-1.1,1.1l1.1,1.1l12.7,12.7L64,27L64,27z"/>
	</g>
</g>
<g id="XMLID_4_">
	<g id="XMLID_63_">
		
			<rect x="78.4" y="13.5" transform="matrix(0.7071 -0.7071 0.7071 0.7071 13.9804 67.2217)" class="st0" width="19.4" height="6.5"/>
		<path class="st1" d="M83.6,24.8l-3.5-3.5L92.8,8.6l3.5,3.5L83.6,24.8 M83.6,26.9l1.1-1.1l12.7-12.7l1.1-1.1l-1.1-1.1l-3.5-3.5
			l-1.1-1.1l-1.1,1.1L79,20.1l-1.1,1.1l1.1,1.1l3.5,3.5L83.6,26.9L83.6,26.9z"/>
	</g>
</g>
</svg>
