<?xml version="1.0" encoding="utf-8"?>
<!-- Generator: Adobe Illustrator 23.1.0, SVG Export Plug-In . SVG Version: 6.00 Build 0)  -->
<svg version="1.1" id="Layer_1" xmlns="http://www.w3.org/2000/svg" xmlns:xlink="http://www.w3.org/1999/xlink" x="0px" y="0px"
	 viewBox="0 0 102 126" style="enable-background:new 0 0 102 126;" xml:space="preserve">
<style type="text/css">
	.st0{fill:#AAAAAA;}
</style>
<rect x="76.9" y="60.4" class="st0" width="23.6" height="5"/>
<rect x="85.3" y="68.1" transform="matrix(0.7071 -0.7071 0.7071 0.7071 -28.8019 84.6661)" class="st0" width="4.9" height="18"/>
<rect x="78.9" y="45.8" transform="matrix(0.7071 -0.7071 0.7071 0.7071 -8.408 76.3014)" class="st0" width="18" height="4.9"/>
<g>
	<path class="st0" d="M50.9,0c-17.1,0-31,13.9-31,31v10.8l16,17.2V31.1c0-8.3,6.7-15,15-15c8.3,0,15,6.7,15,15v28.2l16-17.3V31
		C81.9,13.9,68,0,50.9,0z"/>
	<path class="st0" d="M65.9,95c0,8.3-6.7,15-15,15c-8.3,0-15-6.7-15-15V66.6l-16,16.8V95c0,17.1,13.9,31,31,31c17.1,0,31-14,31-31.1
		V83.2l-16-16.7V95z"/>
</g>
<rect x="1.5" y="60.4" class="st0" width="23.6" height="5"/>
<rect x="5.2" y="74.6" transform="matrix(0.7071 -0.7071 0.7071 0.7071 -50.3589 32.623)" class="st0" width="18" height="4.9"/>
<rect x="11.7" y="39.3" transform="matrix(0.7071 -0.7071 0.7071 0.7071 -29.9942 24.1877)" class="st0" width="4.9" height="18"/>
</svg>
