<?xml version="1.0" encoding="utf-8"?>
<!-- Generator: Adobe Illustrator 23.1.0, SVG Export Plug-In . SVG Version: 6.00 Build 0)  -->
<svg version="1.1" id="Layer_1" xmlns="http://www.w3.org/2000/svg" xmlns:xlink="http://www.w3.org/1999/xlink" x="0px" y="0px"
	 viewBox="0 0 560.6 98.4" style="enable-background:new 0 0 560.6 98.4;" xml:space="preserve">
<style type="text/css">
	.st0{fill:url(#XMLID_2_);}
	.st1{fill:url(#XMLID_3_);}
	.st2{fill:url(#XMLID_4_);}
	.st3{fill:url(#XMLID_5_);}
	.st4{fill:url(#XMLID_6_);}
	.st5{fill:url(#XMLID_7_);}
	.st6{fill:url(#XMLID_8_);}
	.st7{fill:url(#XMLID_9_);}
	.st8{fill:url(#XMLID_10_);}
</style>
<g id="XMLID_106_">
	<linearGradient id="XMLID_2_" gradientUnits="userSpaceOnUse" x1="45.5367" y1="44.8915" x2="226.7053" y2="226.06">
		<stop  offset="0" style="stop-color:#F2662D"/>
		<stop  offset="1" style="stop-color:#ED1A75"/>
	</linearGradient>
	<polygon id="XMLID_130_" class="st0" points="61.9,38.6 24.1,38.6 24.1,24.4 76.1,24.4 99.9,0.6 99.9,0.3 0,0.3 0,98.3 24.1,98.3 
		24.1,59.8 40.7,59.8 	"/>
	<linearGradient id="XMLID_3_" gradientUnits="userSpaceOnUse" x1="243.7284" y1="-153.3002" x2="424.8969" y2="27.8684">
		<stop  offset="0" style="stop-color:#F2662D"/>
		<stop  offset="1" style="stop-color:#ED1A75"/>
	</linearGradient>
	<polygon id="XMLID_129_" class="st1" points="511,48.8 462.5,0.2 431.5,0.3 480,48.8 430.3,98.4 461.3,98.4 	"/>
	<g id="XMLID_127_">
		<linearGradient id="XMLID_4_" gradientUnits="userSpaceOnUse" x1="222.112" y1="-131.6838" x2="403.2805" y2="49.4848">
			<stop  offset="0" style="stop-color:#F2662D"/>
			<stop  offset="1" style="stop-color:#ED1A75"/>
		</linearGradient>
		<rect id="XMLID_128_" x="391.1" y="0.2" class="st2" width="24.1" height="98.1"/>
	</g>
	<g id="XMLID_124_">
		<linearGradient id="XMLID_5_" gradientUnits="userSpaceOnUse" x1="178.9899" y1="-88.5617" x2="360.1584" y2="92.6069">
			<stop  offset="0" style="stop-color:#F2662D"/>
			<stop  offset="1" style="stop-color:#ED1A75"/>
		</linearGradient>
		<polygon id="XMLID_126_" class="st3" points="304.2,73.1 304.2,0.2 280.1,0.2 280.1,49 		"/>
		<linearGradient id="XMLID_6_" gradientUnits="userSpaceOnUse" x1="178.3114" y1="-87.8832" x2="359.48" y2="93.2853">
			<stop  offset="0" style="stop-color:#F2662D"/>
			<stop  offset="1" style="stop-color:#ED1A75"/>
		</linearGradient>
		<polygon id="XMLID_125_" class="st4" points="305.4,74.3 329.5,98.4 375.6,98.4 375.6,74.3 		"/>
	</g>
	<linearGradient id="XMLID_7_" gradientUnits="userSpaceOnUse" x1="95.387" y1="-4.9588" x2="276.5555" y2="176.2098">
		<stop  offset="0" style="stop-color:#F2662D"/>
		<stop  offset="1" style="stop-color:#ED1A75"/>
	</linearGradient>
	<polygon id="XMLID_123_" class="st5" points="134.6,98.4 164.6,98.4 125.9,59.7 155.6,59.7 155.6,38.5 125.9,38.5 164.5,0 134.5,0 
		85.4,49.1 	"/>
	<linearGradient id="XMLID_8_" gradientUnits="userSpaceOnUse" x1="118.5088" y1="-28.0806" x2="299.6774" y2="153.088">
		<stop  offset="0" style="stop-color:#F2662D"/>
		<stop  offset="1" style="stop-color:#ED1A75"/>
	</linearGradient>
	<polygon id="XMLID_122_" class="st6" points="210.8,0 180.9,0 219.4,38.5 189.7,38.5 189.7,59.7 219.4,59.7 180.7,98.4 210.7,98.4 
		260,49.1 	"/>
	<linearGradient id="XMLID_9_" gradientUnits="userSpaceOnUse" x1="268.5733" y1="-178.1451" x2="449.7419" y2="3.0235">
		<stop  offset="0" style="stop-color:#F2662D"/>
		<stop  offset="1" style="stop-color:#ED1A75"/>
	</linearGradient>
	<polygon id="XMLID_108_" class="st7" points="526.4,64.2 510.9,79.7 529.6,98.4 560.6,98.4 	"/>
	<linearGradient id="XMLID_10_" gradientUnits="userSpaceOnUse" x1="308.3017" y1="-217.8735" x2="489.4703" y2="-36.7049">
		<stop  offset="0" style="stop-color:#F2662D"/>
		<stop  offset="1" style="stop-color:#ED1A75"/>
	</linearGradient>
	<polygon id="XMLID_107_" class="st8" points="526.4,33.3 559.5,0.2 528.5,0.3 510.9,17.8 	"/>
</g>
</svg>
