<?xml version="1.0" encoding="utf-8"?>
<!-- Generator: Adobe Illustrator 23.1.0, SVG Export Plug-In . SVG Version: 6.00 Build 0)  -->
<svg version="1.1" id="Layer_1" xmlns="http://www.w3.org/2000/svg" xmlns:xlink="http://www.w3.org/1999/xlink" x="0px" y="0px"
	 viewBox="0 0 816.6 98.2" style="enable-background:new 0 0 816.6 98.2;" xml:space="preserve">
<g>
	<polygon id="XMLID_13_" points="61.6,38.2 24,38.2 24,24.1 75.7,24.1 99.7,0.1 0,0.1 0,98.2 24,98.2 24,59.3 40.5,59.3 	"/>
	<polygon id="XMLID_12_" points="508.6,48.5 460.3,0 429.5,0 477.8,48.5 428.3,98.2 459.2,98.2 	"/>
	<g id="XMLID_10_">
		<rect id="XMLID_11_" x="389.3" y="0" width="24" height="98.2"/>
	</g>
	<g id="XMLID_7_">
		<polygon id="XMLID_9_" points="302.8,72.9 302.8,0 278.8,0 278.8,48.8 		"/>
		<polygon id="XMLID_8_" points="304,74.1 328,98.2 373.8,98.2 373.8,74.1 		"/>
	</g>
	<polygon id="XMLID_6_" points="134,98.2 163.8,98.2 125.4,59.6 154.9,59.6 154.9,38.5 125.4,38.5 163.7,0 133.9,0 85,49 	"/>
	<polygon id="XMLID_5_" points="209.9,0 180,0 218.4,38.5 188.9,38.5 188.9,59.6 218.4,59.6 179.9,98.2 209.7,98.2 258.8,49 	"/>
	<polygon id="XMLID_4_" points="523.4,63.2 508,78.8 527.2,98.2 558,98.2 	"/>
	<polygon id="XMLID_3_" points="523.7,33.3 556.9,0 526,0 508.2,17.8 	"/>
	<g id="XMLID_1_">
		<rect id="XMLID_2_" x="646.6" y="0" width="24" height="98"/>
	</g>
	<g>
		<polygon points="752.8,14.9 786.8,49 776.1,59.8 776.2,59.8 767.8,68.2 782.8,83.1 816.6,49.2 767.6,0 737.8,0 752.7,15 		"/>
		<polygon points="718.7,49.2 737.8,30 722.8,15 688.9,49 737.9,98.2 767.7,98.2 		"/>
	</g>
</g>
</svg>
