<?xml version="1.0" encoding="utf-8"?>
<!-- Generator: Adobe Illustrator 23.1.0, SVG Export Plug-In . SVG Version: 6.00 Build 0)  -->
<svg version="1.1" id="Layer_1" xmlns="http://www.w3.org/2000/svg" xmlns:xlink="http://www.w3.org/1999/xlink" x="0px" y="0px"
	 viewBox="0 0 560.6 98.4" style="enable-background:new 0 0 560.6 98.4;" xml:space="preserve">
<g id="XMLID_106_">
	<polygon id="XMLID_130_" points="61.9,38.6 24.1,38.6 24.1,24.4 76.1,24.4 99.9,0.6 99.9,0.3 0,0.3 0,98.3 24.1,98.3 24.1,59.8 
		40.7,59.8 	"/>
	<polygon id="XMLID_129_" points="511,48.8 462.5,0.2 431.5,0.3 480,48.8 430.3,98.4 461.3,98.4 	"/>
	<g id="XMLID_127_">
		<rect id="XMLID_128_" x="391.1" y="0.2" width="24.1" height="98.1"/>
	</g>
	<g id="XMLID_124_">
		<polygon id="XMLID_126_" points="304.2,73.1 304.2,0.2 280.1,0.2 280.1,49 		"/>
		<polygon id="XMLID_125_" points="305.4,74.3 329.5,98.4 375.6,98.4 375.6,74.3 		"/>
	</g>
	<polygon id="XMLID_123_" points="134.6,98.4 164.6,98.4 125.9,59.7 155.6,59.7 155.6,38.5 125.9,38.5 164.5,0 134.5,0 85.4,49.1 	
		"/>
	<polygon id="XMLID_122_" points="210.8,0 180.9,0 219.4,38.5 189.7,38.5 189.7,59.7 219.4,59.7 180.7,98.4 210.7,98.4 260,49.1 	
		"/>
	<polygon id="XMLID_108_" points="526.4,64.2 510.9,79.7 529.6,98.4 560.6,98.4 	"/>
	<polygon id="XMLID_107_" points="526.4,33.3 559.5,0.2 528.5,0.3 510.9,17.8 	"/>
</g>
</svg>
