<?xml version="1.0" encoding="utf-8"?>
<!-- Generator: Adobe Illustrator 23.1.0, SVG Export Plug-In . SVG Version: 6.00 Build 0)  -->
<svg version="1.1" id="Layer_1" xmlns="http://www.w3.org/2000/svg" xmlns:xlink="http://www.w3.org/1999/xlink" x="0px" y="0px"
	 viewBox="0 0 845.4 245" style="enable-background:new 0 0 845.4 245;" xml:space="preserve">
<style type="text/css">
	.st0{fill:url(#XMLID_2_);}
	.st1{fill:url(#SVGID_1_);}
	.st2{fill:url(#XMLID_3_);}
	.st3{fill:url(#XMLID_4_);}
	.st4{fill:url(#XMLID_5_);}
	.st5{fill:url(#XMLID_6_);}
	.st6{fill:url(#XMLID_7_);}
	.st7{fill:url(#XMLID_8_);}
	.st8{fill:url(#XMLID_9_);}
	.st9{fill:url(#XMLID_10_);}
	.st10{fill:url(#XMLID_11_);}
</style>
<g id="XMLID_131_">
	<linearGradient id="XMLID_2_" gradientUnits="userSpaceOnUse" x1="172.1655" y1="77.7447" x2="74.1462" y2="175.7641">
		<stop  offset="0" style="stop-color:#F2662D"/>
		<stop  offset="1" style="stop-color:#ED1A75"/>
	</linearGradient>
	<path id="XMLID_132_" class="st0" d="M123.2,224.8l-98-98l98-98l98,98L123.2,224.8z M57.1,126.8l66,66l66-66l-66-66L57.1,126.8z"/>
</g>
<linearGradient id="SVGID_1_" gradientUnits="userSpaceOnUse" x1="69.7335" y1="58.4015" x2="171.3974" y2="188.5029">
	<stop  offset="0" style="stop-color:#F2662D"/>
	<stop  offset="1" style="stop-color:#ED1A75"/>
</linearGradient>
<polygon class="st1" points="94,135.4 123.2,164.6 152.3,135.5 133.9,135.5 133.9,118.1 152.3,118.1 123.1,88.9 94,118 112.5,118 
	112.5,135.4 "/>
<g id="XMLID_106_">
	<linearGradient id="XMLID_3_" gradientUnits="userSpaceOnUse" x1="302.8107" y1="73.2884" x2="483.9793" y2="254.457">
		<stop  offset="0" style="stop-color:#F2662D"/>
		<stop  offset="1" style="stop-color:#ED1A75"/>
	</linearGradient>
	<polygon id="XMLID_130_" class="st2" points="319.2,67 281.4,67 281.4,52.8 333.3,52.8 357.2,29 357.2,28.7 257.3,28.7 
		257.3,126.7 281.4,126.7 281.4,88.2 298,88.2 	"/>
	<linearGradient id="XMLID_4_" gradientUnits="userSpaceOnUse" x1="501.0023" y1="-124.9033" x2="682.171" y2="56.2653">
		<stop  offset="0" style="stop-color:#F2662D"/>
		<stop  offset="1" style="stop-color:#ED1A75"/>
	</linearGradient>
	<polygon id="XMLID_129_" class="st3" points="768.2,77.2 719.7,28.6 688.7,28.7 737.2,77.2 687.6,126.8 718.6,126.8 	"/>
	<g id="XMLID_127_">
		<linearGradient id="XMLID_5_" gradientUnits="userSpaceOnUse" x1="479.386" y1="-103.2869" x2="660.5546" y2="77.8817">
			<stop  offset="0" style="stop-color:#F2662D"/>
			<stop  offset="1" style="stop-color:#ED1A75"/>
		</linearGradient>
		<rect id="XMLID_128_" x="648.3" y="28.6" class="st4" width="24.1" height="98.1"/>
	</g>
	<g id="XMLID_124_">
		<linearGradient id="XMLID_6_" gradientUnits="userSpaceOnUse" x1="436.2638" y1="-60.1648" x2="617.4324" y2="121.0038">
			<stop  offset="0" style="stop-color:#F2662D"/>
			<stop  offset="1" style="stop-color:#ED1A75"/>
		</linearGradient>
		<polygon id="XMLID_126_" class="st5" points="561.5,101.5 561.5,28.6 537.4,28.6 537.4,77.4 		"/>
		<linearGradient id="XMLID_7_" gradientUnits="userSpaceOnUse" x1="435.5854" y1="-59.4863" x2="616.754" y2="121.6823">
			<stop  offset="0" style="stop-color:#F2662D"/>
			<stop  offset="1" style="stop-color:#ED1A75"/>
		</linearGradient>
		<polygon id="XMLID_125_" class="st6" points="562.7,102.7 586.8,126.8 632.9,126.8 632.9,102.7 		"/>
	</g>
	<linearGradient id="XMLID_8_" gradientUnits="userSpaceOnUse" x1="352.6609" y1="23.4381" x2="533.8295" y2="204.6067">
		<stop  offset="0" style="stop-color:#F2662D"/>
		<stop  offset="1" style="stop-color:#ED1A75"/>
	</linearGradient>
	<polygon id="XMLID_123_" class="st7" points="391.9,126.8 421.9,126.8 383.2,88.1 412.9,88.1 412.9,66.9 383.2,66.9 421.7,28.4 
		391.8,28.4 342.6,77.5 	"/>
	<linearGradient id="XMLID_9_" gradientUnits="userSpaceOnUse" x1="375.7828" y1="0.3163" x2="556.9514" y2="181.4849">
		<stop  offset="0" style="stop-color:#F2662D"/>
		<stop  offset="1" style="stop-color:#ED1A75"/>
	</linearGradient>
	<polygon id="XMLID_122_" class="st8" points="468.1,28.4 438.1,28.4 476.7,66.9 447,66.9 447,88.1 476.7,88.1 438,126.8 468,126.8 
		517.2,77.5 	"/>
	<linearGradient id="XMLID_10_" gradientUnits="userSpaceOnUse" x1="525.8473" y1="-149.7482" x2="707.0159" y2="31.4204">
		<stop  offset="0" style="stop-color:#F2662D"/>
		<stop  offset="1" style="stop-color:#ED1A75"/>
	</linearGradient>
	<polygon id="XMLID_108_" class="st9" points="783.7,92.6 768.2,108.1 786.9,126.8 817.9,126.8 	"/>
	<linearGradient id="XMLID_11_" gradientUnits="userSpaceOnUse" x1="565.5757" y1="-189.4766" x2="746.7443" y2="-8.308">
		<stop  offset="0" style="stop-color:#F2662D"/>
		<stop  offset="1" style="stop-color:#ED1A75"/>
	</linearGradient>
	<polygon id="XMLID_107_" class="st10" points="783.7,61.7 816.8,28.6 785.7,28.7 768.2,46.2 	"/>
</g>
</svg>
