# WaveFront *.obj file (generated by Autodesk ATF)

mtllib b3f4a922-87b7-43fe-9630-29b0ff4e4c55.mtl

g Body5

v -3.000000 -52.500000 -0.000000
v -2.897778 -52.500000 -0.776457
v -2.598076 -52.500000 -1.500000
v -2.121320 -52.500000 -2.121320
v -1.500000 -52.500000 -2.598076
v -0.776457 -52.500000 -2.897778
v 0.000000 -52.500000 -3.000000
v 0.776457 -52.500000 -2.897778
v 1.500000 -52.500000 -2.598076
v 2.121320 -52.500000 -2.121320
v 2.598076 -52.500000 -1.500000
v 2.897778 -52.500000 -0.776457
v 3.000000 -52.500000 0.000000
v 2.897778 -52.500000 0.776457
v 2.598076 -52.500000 1.500000
v 2.121320 -52.500000 2.121320
v 1.500000 -52.500000 2.598076
v 0.776457 -52.500000 2.897778
v 0.000000 -52.500000 3.000000
v -0.776457 -52.500000 2.897778
v -1.500000 -52.500000 2.598076
v -2.121320 -52.500000 2.121320
v -2.598076 -52.500000 1.500000
v -2.897778 -52.500000 0.776457
v -3.000000 -22.500000 -0.000000
v -2.897778 -22.500000 0.776457
v -2.598076 -22.500000 1.500000
v -2.121320 -22.500000 2.121320
v -1.500000 -22.500000 2.598076
v -0.776457 -22.500000 2.897778
v 0.000000 -22.500000 3.000000
v 0.776457 -22.500000 2.897778
v 1.500000 -22.500000 2.598076
v 2.121320 -22.500000 2.121320
v 2.598076 -22.500000 1.500000
v 2.897778 -22.500000 0.776457
v 3.000000 -22.500000 0.000000
v 2.897778 -22.500000 -0.776457
v 2.598076 -22.500000 -1.500000
v 2.121320 -22.500000 -2.121320
v 1.500000 -22.500000 -2.598076
v 0.776457 -22.500000 -2.897778
v 0.000000 -22.500000 -3.000000
v -0.776457 -22.500000 -2.897778
v -1.500000 -22.500000 -2.598076
v -2.121320 -22.500000 -2.121320
v -2.598076 -22.500000 -1.500000
v -2.897778 -22.500000 -0.776457
v -7.500000 -22.500000 7.500000
v -7.500000 -22.500000 -7.500000
v -7.500000 -52.500000 -7.500000
v -7.500000 -52.500000 7.500000
v 7.500000 -22.500000 7.500000
v 7.500000 -52.500000 7.500000
v 7.500000 -22.500000 -7.500000
v 7.500000 -52.500000 -7.500000
vt 3.000000 -0.863938 0.000000
vt -0.000000 -0.863938 0.000000
vt 3.000000 -0.942478 0.000000
vt -0.000000 -0.942478 0.000000
vt 3.000000 0.942478 0.000000
vt -0.000000 0.942478 0.000000
vt 3.000000 0.863938 0.000000
vt 0.000000 0.863938 0.000000
vt 3.000000 0.785398 0.000000
vt 0.000000 0.785398 0.000000
vt 3.000000 0.706858 0.000000
vt 0.000000 0.706858 0.000000
vt 3.000000 0.628319 0.000000
vt 0.000000 0.628319 0.000000
vt 3.000000 0.549779 0.000000
vt 0.000000 0.549779 0.000000
vt 3.000000 0.471239 0.000000
vt 0.000000 0.471239 0.000000
vt 3.000000 0.392699 0.000000
vt 0.000000 0.392699 0.000000
vt 3.000000 0.314159 0.000000
vt 0.000000 0.314159 0.000000
vt 3.000000 0.235619 0.000000
vt 0.000000 0.235619 0.000000
vt 3.000000 0.157080 0.000000
vt 0.000000 0.157080 0.000000
vt 3.000000 0.078540 0.000000
vt 0.000000 0.078540 0.000000
vt 3.000000 0.000000 0.000000
vt 0.000000 0.000000 0.000000
vt 3.000000 -0.078540 0.000000
vt 0.000000 -0.078540 0.000000
vt 3.000000 -0.157080 0.000000
vt 0.000000 -0.157080 0.000000
vt 3.000000 -0.235619 0.000000
vt 0.000000 -0.235619 0.000000
vt 3.000000 -0.314159 0.000000
vt 0.000000 -0.314159 0.000000
vt 3.000000 -0.392699 0.000000
vt 0.000000 -0.392699 0.000000
vt 3.000000 -0.471239 0.000000
vt 0.000000 -0.471239 0.000000
vt 3.000000 -0.549779 0.000000
vt -0.000000 -0.549779 0.000000
vt 3.000000 -0.628319 0.000000
vt -0.000000 -0.628319 0.000000
vt 3.000000 -0.706858 0.000000
vt -0.000000 -0.706858 0.000000
vt 3.000000 -0.785398 0.000000
vt -0.000000 -0.785398 0.000000
vt -0.000000 0.000000 0.000000
vt 1.500000 0.000000 0.000000
vt 0.000000 3.000000 0.000000
vt 1.500000 3.000000 0.000000
vt -0.000000 0.000000 0.000000
vt 1.500000 0.000000 0.000000
vt 0.000000 3.000000 0.000000
vt 1.500000 3.000000 0.000000
vt 0.000000 0.000000 0.000000
vt 1.500000 0.000000 0.000000
vt 0.000000 3.000000 0.000000
vt 1.500000 3.000000 0.000000
vt 0.000000 0.000000 0.000000
vt 1.500000 0.000000 0.000000
vt 0.000000 3.000000 0.000000
vt 1.500000 3.000000 0.000000
vt -0.289778 0.077646 0.000000
vt -0.750000 0.750000 0.000000
vt -0.300000 -0.000000 0.000000
vt -0.750000 -0.750000 0.000000
vt -0.289778 -0.077646 0.000000
vt -0.259808 -0.150000 0.000000
vt -0.212132 -0.212132 0.000000
vt -0.150000 -0.259808 0.000000
vt -0.077646 -0.289778 0.000000
vt 0.000000 -0.300000 0.000000
vt 0.750000 -0.750000 0.000000
vt 0.077646 -0.289778 0.000000
vt 0.150000 -0.259808 0.000000
vt 0.212132 -0.212132 0.000000
vt 0.259808 -0.150000 0.000000
vt 0.289778 -0.077646 0.000000
vt 0.300000 0.000000 0.000000
vt 0.750000 0.750000 0.000000
vt 0.289778 0.077646 0.000000
vt 0.259808 0.150000 0.000000
vt 0.212132 0.212132 0.000000
vt 0.150000 0.259808 0.000000
vt 0.077646 0.289778 0.000000
vt 0.000000 0.300000 0.000000
vt -0.077646 0.289778 0.000000
vt -0.150000 0.259808 0.000000
vt -0.212132 0.212132 0.000000
vt -0.259808 0.150000 0.000000
vt 0.289778 -0.077646 0.000000
vt 0.750000 -0.750000 0.000000
vt 0.300000 -0.000000 0.000000
vt 0.750000 0.750000 0.000000
vt 0.289778 0.077646 0.000000
vt 0.259808 0.150000 0.000000
vt 0.212132 0.212132 0.000000
vt 0.150000 0.259808 0.000000
vt 0.077646 0.289778 0.000000
vt -0.000000 0.300000 0.000000
vt -0.750000 0.750000 0.000000
vt -0.077646 0.289778 0.000000
vt -0.150000 0.259808 0.000000
vt -0.212132 0.212132 0.000000
vt -0.259808 0.150000 0.000000
vt -0.289778 0.077646 0.000000
vt -0.300000 0.000000 0.000000
vt -0.750000 -0.750000 0.000000
vt -0.289778 -0.077646 0.000000
vt -0.259808 -0.150000 0.000000
vt -0.212132 -0.212132 0.000000
vt -0.150000 -0.259808 0.000000
vt -0.077646 -0.289778 0.000000
vt -0.000000 -0.300000 0.000000
vt 0.077646 -0.289778 0.000000
vt 0.150000 -0.259808 0.000000
vt 0.212132 -0.212132 0.000000
vt 0.259808 -0.150000 0.000000
vn 0.096593 0.000000 0.025882
vn 0.096593 0.000000 0.025882
vn 0.100000 0.000000 0.000000
vn 0.100000 0.000000 0.000000
vn 0.096593 0.000000 -0.025882
vn 0.096593 0.000000 -0.025882
vn 0.086603 0.000000 -0.050000
vn 0.086603 0.000000 -0.050000
vn 0.070711 0.000000 -0.070711
vn 0.070711 0.000000 -0.070711
vn 0.050000 0.000000 -0.086603
vn 0.050000 0.000000 -0.086603
vn 0.025882 0.000000 -0.096593
vn 0.025882 0.000000 -0.096593
vn -0.000000 0.000000 -0.100000
vn -0.000000 0.000000 -0.100000
vn -0.025882 0.000000 -0.096593
vn -0.025882 0.000000 -0.096593
vn -0.050000 0.000000 -0.086603
vn -0.050000 0.000000 -0.086603
vn -0.070711 0.000000 -0.070711
vn -0.070711 0.000000 -0.070711
vn -0.086603 0.000000 -0.050000
vn -0.086603 0.000000 -0.050000
vn -0.096593 0.000000 -0.025882
vn -0.096593 0.000000 -0.025882
vn -0.100000 0.000000 0.000000
vn -0.100000 0.000000 0.000000
vn -0.096593 0.000000 0.025882
vn -0.096593 0.000000 0.025882
vn -0.086603 0.000000 0.050000
vn -0.086603 0.000000 0.050000
vn -0.070711 0.000000 0.070711
vn -0.070711 0.000000 0.070711
vn -0.050000 0.000000 0.086603
vn -0.050000 0.000000 0.086603
vn -0.025882 0.000000 0.096593
vn -0.025882 0.000000 0.096593
vn -0.000000 0.000000 0.100000
vn -0.000000 0.000000 0.100000
vn 0.025882 0.000000 0.096593
vn 0.025882 0.000000 0.096593
vn 0.050000 0.000000 0.086603
vn 0.050000 0.000000 0.086603
vn 0.070711 0.000000 0.070711
vn 0.070711 0.000000 0.070711
vn 0.086603 0.000000 0.050000
vn 0.086603 0.000000 0.050000
vn -0.100000 0.000000 0.000000
vn -0.100000 0.000000 0.000000
vn -0.100000 0.000000 0.000000
vn -0.100000 0.000000 0.000000
vn 0.000000 0.000000 0.100000
vn 0.000000 0.000000 0.100000
vn 0.000000 0.000000 0.100000
vn 0.000000 0.000000 0.100000
vn 0.100000 0.000000 0.000000
vn 0.100000 0.000000 0.000000
vn 0.100000 0.000000 0.000000
vn 0.100000 0.000000 0.000000
vn 0.000000 0.000000 -0.100000
vn 0.000000 0.000000 -0.100000
vn 0.000000 0.000000 -0.100000
vn 0.000000 0.000000 -0.100000
vn 0.000000 -0.100000 0.000000
vn 0.000000 -0.100000 0.000000
vn 0.000000 -0.100000 0.000000
vn 0.000000 -0.100000 0.000000
vn 0.000000 -0.100000 0.000000
vn 0.000000 -0.100000 0.000000
vn 0.000000 -0.100000 0.000000
vn 0.000000 -0.100000 0.000000
vn 0.000000 -0.100000 0.000000
vn 0.000000 -0.100000 0.000000
vn 0.000000 -0.100000 0.000000
vn 0.000000 -0.100000 0.000000
vn 0.000000 -0.100000 0.000000
vn 0.000000 -0.100000 0.000000
vn 0.000000 -0.100000 0.000000
vn 0.000000 -0.100000 0.000000
vn 0.000000 -0.100000 0.000000
vn 0.000000 -0.100000 0.000000
vn 0.000000 -0.100000 0.000000
vn 0.000000 -0.100000 0.000000
vn 0.000000 -0.100000 0.000000
vn 0.000000 -0.100000 0.000000
vn 0.000000 -0.100000 0.000000
vn 0.000000 -0.100000 0.000000
vn 0.000000 -0.100000 0.000000
vn 0.000000 -0.100000 0.000000
vn 0.000000 -0.100000 0.000000
vn 0.000000 -0.100000 0.000000
vn -0.000000 0.100000 -0.000000
vn -0.000000 0.100000 -0.000000
vn -0.000000 0.100000 -0.000000
vn -0.000000 0.100000 -0.000000
vn -0.000000 0.100000 -0.000000
vn -0.000000 0.100000 -0.000000
vn -0.000000 0.100000 -0.000000
vn -0.000000 0.100000 -0.000000
vn -0.000000 0.100000 -0.000000
vn -0.000000 0.100000 -0.000000
vn -0.000000 0.100000 -0.000000
vn -0.000000 0.100000 -0.000000
vn -0.000000 0.100000 -0.000000
vn -0.000000 0.100000 -0.000000
vn -0.000000 0.100000 -0.000000
vn -0.000000 0.100000 -0.000000
vn -0.000000 0.100000 -0.000000
vn -0.000000 0.100000 -0.000000
vn -0.000000 0.100000 -0.000000
vn -0.000000 0.100000 -0.000000
vn -0.000000 0.100000 -0.000000
vn -0.000000 0.100000 -0.000000
vn -0.000000 0.100000 -0.000000
vn -0.000000 0.100000 -0.000000
vn -0.000000 0.100000 -0.000000
vn -0.000000 0.100000 -0.000000
vn -0.000000 0.100000 -0.000000
vn -0.000000 0.100000 -0.000000
usemtl Nylon_12_(with_Formlabs_Fuse_1_3D_Printer)
f 2/1/1 48/2/2 1/3/3
f 1/3/3 48/2/2 25/4/4
f 1/5/3 25/6/4 24/7/5
f 24/7/5 25/6/4 26/8/6
f 24/7/5 26/8/6 23/9/7
f 23/9/7 26/8/6 27/10/8
f 23/9/7 27/10/8 22/11/9
f 22/11/9 27/10/8 28/12/10
f 22/11/9 28/12/10 21/13/11
f 21/13/11 28/12/10 29/14/12
f 21/13/11 29/14/12 20/15/13
f 20/15/13 29/14/12 30/16/14
f 20/15/13 30/16/14 19/17/15
f 19/17/15 30/16/14 31/18/16
f 19/17/15 31/18/16 18/19/17
f 18/19/17 31/18/16 32/20/18
f 18/19/17 32/20/18 17/21/19
f 17/21/19 32/20/18 33/22/20
f 17/21/19 33/22/20 16/23/21
f 16/23/21 33/22/20 34/24/22
f 16/23/21 34/24/22 15/25/23
f 15/25/23 34/24/22 35/26/24
f 15/25/23 35/26/24 14/27/25
f 14/27/25 35/26/24 36/28/26
f 14/27/25 36/28/26 13/29/27
f 13/29/27 36/28/26 37/30/28
f 13/29/27 37/30/28 12/31/29
f 12/31/29 37/30/28 38/32/30
f 12/31/29 38/32/30 11/33/31
f 11/33/31 38/32/30 39/34/32
f 11/33/31 39/34/32 10/35/33
f 10/35/33 39/34/32 40/36/34
f 10/35/33 40/36/34 9/37/35
f 9/37/35 40/36/34 41/38/36
f 9/37/35 41/38/36 8/39/37
f 8/39/37 41/38/36 42/40/38
f 8/39/37 42/40/38 7/41/39
f 7/41/39 42/40/38 43/42/40
f 7/41/39 43/42/40 6/43/41
f 6/43/41 43/42/40 44/44/42
f 6/43/41 44/44/42 5/45/43
f 5/45/43 44/44/42 45/46/44
f 5/45/43 45/46/44 4/47/45
f 4/47/45 45/46/44 46/48/46
f 4/47/45 46/48/46 3/49/47
f 3/49/47 46/48/46 47/50/48
f 3/49/47 47/50/48 2/1/1
f 2/1/1 47/50/48 48/2/2
f 49/51/49 50/52/50 52/53/51
f 52/53/51 50/52/50 51/54/52
f 53/55/53 49/56/54 54/57/55
f 54/57/55 49/56/54 52/58/56
f 55/59/57 53/60/58 56/61/59
f 56/61/59 53/60/58 54/62/60
f 50/63/61 55/64/62 51/65/63
f 51/65/63 55/64/62 56/66/64
f 24/67/65 52/68/66 1/69/67
f 1/69/67 52/68/66 51/70/68
f 1/69/67 51/70/68 2/71/69
f 2/71/69 51/70/68 3/72/70
f 3/72/70 51/70/68 4/73/71
f 4/73/71 51/70/68 5/74/72
f 5/74/72 51/70/68 6/75/73
f 6/75/73 51/70/68 7/76/74
f 7/76/74 51/70/68 56/77/75
f 7/76/74 56/77/75 8/78/76
f 8/78/76 56/77/75 9/79/77
f 9/79/77 56/77/75 10/80/78
f 10/80/78 56/77/75 11/81/79
f 11/81/79 56/77/75 12/82/80
f 12/82/80 56/77/75 13/83/81
f 13/83/81 56/77/75 54/84/82
f 13/83/81 54/84/82 14/85/83
f 14/85/83 54/84/82 15/86/84
f 15/86/84 54/84/82 16/87/85
f 16/87/85 54/84/82 17/88/86
f 17/88/86 54/84/82 18/89/87
f 18/89/87 54/84/82 19/90/88
f 19/90/88 54/84/82 52/68/66
f 19/90/88 52/68/66 20/91/89
f 20/91/89 52/68/66 21/92/90
f 21/92/90 52/68/66 22/93/91
f 22/93/91 52/68/66 23/94/92
f 23/94/92 52/68/66 24/67/65
f 48/95/93 50/96/94 25/97/95
f 25/97/95 50/96/94 49/98/96
f 25/97/95 49/98/96 26/99/97
f 26/99/97 49/98/96 27/100/98
f 27/100/98 49/98/96 28/101/99
f 28/101/99 49/98/96 29/102/100
f 29/102/100 49/98/96 30/103/101
f 30/103/101 49/98/96 31/104/102
f 31/104/102 49/98/96 53/105/103
f 31/104/102 53/105/103 32/106/104
f 32/106/104 53/105/103 33/107/105
f 33/107/105 53/105/103 34/108/106
f 34/108/106 53/105/103 35/109/107
f 35/109/107 53/105/103 36/110/108
f 36/110/108 53/105/103 37/111/109
f 37/111/109 53/105/103 55/112/110
f 37/111/109 55/112/110 38/113/111
f 38/113/111 55/112/110 39/114/112
f 39/114/112 55/112/110 40/115/113
f 40/115/113 55/112/110 41/116/114
f 41/116/114 55/112/110 42/117/115
f 42/117/115 55/112/110 43/118/116
f 43/118/116 55/112/110 50/96/94
f 43/118/116 50/96/94 44/119/117
f 44/119/117 50/96/94 45/120/118
f 45/120/118 50/96/94 46/121/119
f 46/121/119 50/96/94 47/122/120
f 47/122/120 50/96/94 48/95/93
# 56 vertices
# 122 texture params
# 120 normals
# 112 facets

# 1 groups
