# WaveFront *.obj file (generated by Autodesk ATF)

mtllib 27fbb8ca-fa67-4dfd-8dff-969c24f22250.mtl

g body_fixedjoint

v -15.000000 -0.000000 15.500000
v -14.824207 2.289739 15.500000
v -14.300946 4.525809 15.500000
v -13.442484 6.655798 15.500000
v -12.268941 8.629780 15.500000
v -10.807824 10.401488 15.500000
v -9.093381 11.929393 15.500000
v -7.165797 13.177684 15.500000
v -5.070253 14.117101 15.500000
v -2.855867 14.725625 15.500000
v -0.574541 14.988993 15.500000
v 1.720251 14.901032 15.500000
v 3.974723 14.463803 15.500000
v 6.136030 13.687554 15.500000
v 8.153513 12.590482 15.500000
v 9.979886 11.198298 15.500000
v 11.572338 9.543637 15.500000
v 12.893544 7.665280 15.500000
v 13.912537 5.607256 15.500000
v 14.605432 3.417803 15.500000
v 14.955987 1.148239 15.500000
v 14.955987 -1.148239 15.500000
v 14.605432 -3.417803 15.500000
v 13.912537 -5.607256 15.500000
v 12.893544 -7.665280 15.500000
v 11.572338 -9.543637 15.500000
v 9.979886 -11.198298 15.500000
v 8.153513 -12.590482 15.500000
v 6.136030 -13.687554 15.500000
v 3.974723 -14.463803 15.500000
v 1.720251 -14.901032 15.500000
v -0.574541 -14.988993 15.500000
v -2.855867 -14.725625 15.500000
v -5.070253 -14.117101 15.500000
v -7.165797 -13.177684 15.500000
v -9.093381 -11.929393 15.500000
v -10.807824 -10.401488 15.500000
v -12.268941 -8.629780 15.500000
v -13.442484 -6.655798 15.500000
v -14.300946 -4.525809 15.500000
v -14.824207 -2.289739 15.500000
v -15.000000 -0.000000 0.000000
v -14.824207 -2.289739 0.000000
v -14.300946 -4.525809 0.000000
v -13.442484 -6.655798 0.000000
v -12.268941 -8.629780 0.000000
v -10.807824 -10.401488 0.000000
v -9.093381 -11.929393 0.000000
v -7.165797 -13.177684 0.000000
v -5.070253 -14.117101 0.000000
v -2.855867 -14.725625 0.000000
v -0.574541 -14.988993 0.000000
v 1.720251 -14.901032 0.000000
v 3.974723 -14.463803 0.000000
v 6.136030 -13.687554 0.000000
v 8.153513 -12.590482 0.000000
v 9.979886 -11.198298 0.000000
v 11.572338 -9.543637 0.000000
v 12.893544 -7.665280 0.000000
v 13.912537 -5.607256 0.000000
v 14.605432 -3.417803 0.000000
v 14.955987 -1.148239 0.000000
v 14.955987 1.148239 0.000000
v 14.605432 3.417803 0.000000
v 13.912537 5.607256 0.000000
v 12.893544 7.665280 0.000000
v 11.572338 9.543637 0.000000
v 9.979886 11.198298 0.000000
v 8.153513 12.590482 0.000000
v 6.136030 13.687554 0.000000
v 3.974723 14.463803 0.000000
v 1.720251 14.901032 0.000000
v -0.574541 14.988993 0.000000
v -2.855867 14.725625 0.000000
v -5.070253 14.117101 0.000000
v -7.165797 13.177684 0.000000
v -9.093381 11.929393 0.000000
v -10.807824 10.401488 0.000000
v -12.268941 8.629780 0.000000
v -13.442484 6.655798 0.000000
v -14.300946 4.525809 0.000000
v -14.824207 2.289739 0.000000
vt -1.550000 4.482516 0.000000
vt -0.000000 4.482516 0.000000
vt -1.550000 4.712389 0.000000
vt -0.000000 4.712389 0.000000
vt -1.550000 -4.712389 0.000000
vt -0.000000 -4.712389 0.000000
vt -1.550000 -4.482516 0.000000
vt -0.000000 -4.482516 0.000000
vt -1.550000 -4.252644 0.000000
vt -0.000000 -4.252644 0.000000
vt -1.550000 -4.022771 0.000000
vt -0.000000 -4.022771 0.000000
vt -1.550000 -3.792899 0.000000
vt -0.000000 -3.792899 0.000000
vt -1.550000 -3.563026 0.000000
vt -0.000000 -3.563026 0.000000
vt -1.550000 -3.333153 0.000000
vt -0.000000 -3.333153 0.000000
vt -1.550000 -3.103281 0.000000
vt -0.000000 -3.103281 0.000000
vt -1.550000 -2.873408 0.000000
vt -0.000000 -2.873408 0.000000
vt -1.550000 -2.643535 0.000000
vt -0.000000 -2.643535 0.000000
vt -1.550000 -2.413663 0.000000
vt -0.000000 -2.413663 0.000000
vt -1.550000 -2.183790 0.000000
vt -0.000000 -2.183790 0.000000
vt -1.550000 -1.953917 0.000000
vt -0.000000 -1.953917 0.000000
vt -1.550000 -1.724045 0.000000
vt -0.000000 -1.724045 0.000000
vt -1.550000 -1.494172 0.000000
vt -0.000000 -1.494172 0.000000
vt -1.550000 -1.264300 0.000000
vt -0.000000 -1.264300 0.000000
vt -1.550000 -1.034427 0.000000
vt -0.000000 -1.034427 0.000000
vt -1.550000 -0.804554 0.000000
vt -0.000000 -0.804554 0.000000
vt -1.550000 -0.574682 0.000000
vt -0.000000 -0.574682 0.000000
vt -1.550000 -0.344809 0.000000
vt -0.000000 -0.344809 0.000000
vt -1.550000 -0.114936 0.000000
vt -0.000000 -0.114936 0.000000
vt -1.550000 0.114936 0.000000
vt -0.000000 0.114936 0.000000
vt -1.550000 0.344809 0.000000
vt -0.000000 0.344809 0.000000
vt -1.550000 0.574682 0.000000
vt -0.000000 0.574682 0.000000
vt -1.550000 0.804554 0.000000
vt -0.000000 0.804554 0.000000
vt -1.550000 1.034427 0.000000
vt -0.000000 1.034427 0.000000
vt -1.550000 1.264300 0.000000
vt -0.000000 1.264300 0.000000
vt -1.550000 1.494172 0.000000
vt -0.000000 1.494172 0.000000
vt -1.550000 1.724045 0.000000
vt -0.000000 1.724045 0.000000
vt -1.550000 1.953917 0.000000
vt -0.000000 1.953917 0.000000
vt -1.550000 2.183790 0.000000
vt -0.000000 2.183790 0.000000
vt -1.550000 2.413663 0.000000
vt -0.000000 2.413663 0.000000
vt -1.550000 2.643535 0.000000
vt -0.000000 2.643535 0.000000
vt -1.550000 2.873408 0.000000
vt -0.000000 2.873408 0.000000
vt -1.550000 3.103281 0.000000
vt -0.000000 3.103281 0.000000
vt -1.550000 3.333153 0.000000
vt -0.000000 3.333153 0.000000
vt -1.550000 3.563026 0.000000
vt -0.000000 3.563026 0.000000
vt -1.550000 3.792899 0.000000
vt -0.000000 3.792899 0.000000
vt -1.550000 4.022771 0.000000
vt -0.000000 4.022771 0.000000
vt -1.550000 4.252644 0.000000
vt -0.000000 4.252644 0.000000
vt -1.482421 0.228974 0.000000
vt -1.500000 -0.000000 0.000000
vt 1.289354 -0.766528 0.000000
vt -1.482421 -0.228974 0.000000
vt -1.430095 -0.452581 0.000000
vt -1.344248 -0.665580 0.000000
vt -1.226894 -0.862978 0.000000
vt 1.157234 -0.954364 0.000000
vt -1.080782 -1.040149 0.000000
vt 0.997989 -1.119830 0.000000
vt -0.909338 -1.192939 0.000000
vt 0.815351 -1.259048 0.000000
vt -0.716580 -1.317768 0.000000
vt 0.613603 -1.368755 0.000000
vt -0.507025 -1.411710 0.000000
vt 0.397472 -1.446380 0.000000
vt -0.285587 -1.472563 0.000000
vt 0.172025 -1.490103 0.000000
vt -0.057454 -1.498899 0.000000
vt 1.391254 -0.560726 0.000000
vt 0.172025 1.490103 0.000000
vt -0.057454 1.498899 0.000000
vt -0.285587 1.472563 0.000000
vt 1.460543 -0.341780 0.000000
vt 1.391254 0.560726 0.000000
vt 1.289354 0.766528 0.000000
vt 1.157234 0.954364 0.000000
vt 1.460543 0.341780 0.000000
vt 1.495599 -0.114824 0.000000
vt 1.495599 0.114824 0.000000
vt 0.997989 1.119830 0.000000
vt 0.815351 1.259048 0.000000
vt 0.613603 1.368755 0.000000
vt 0.397472 1.446380 0.000000
vt -0.507025 1.411710 0.000000
vt -0.716580 1.317768 0.000000
vt -0.909338 1.192939 0.000000
vt -1.080782 1.040149 0.000000
vt -1.226894 0.862978 0.000000
vt -1.344248 0.665580 0.000000
vt -1.430095 0.452581 0.000000
vt 1.482421 -0.228974 0.000000
vt 1.500000 -0.000000 0.000000
vt -1.289354 -0.766528 0.000000
vt 1.482421 0.228974 0.000000
vt 1.430095 0.452581 0.000000
vt 1.344248 0.665580 0.000000
vt 1.226894 0.862978 0.000000
vt 1.080782 1.040149 0.000000
vt 0.909338 1.192939 0.000000
vt 0.716580 1.317768 0.000000
vt 0.507025 1.411710 0.000000
vt 0.285587 1.472563 0.000000
vt 0.057454 1.498899 0.000000
vt -0.172025 1.490103 0.000000
vt -1.391254 -0.560726 0.000000
vt -0.397472 1.446380 0.000000
vt -0.613603 1.368755 0.000000
vt -0.815351 1.259048 0.000000
vt -0.997989 1.119830 0.000000
vt -1.157234 0.954364 0.000000
vt -1.289354 0.766528 0.000000
vt -1.391254 0.560726 0.000000
vt -1.460543 -0.341780 0.000000
vt -1.460543 0.341780 0.000000
vt -1.495599 -0.114824 0.000000
vt -1.495599 0.114824 0.000000
vt -1.157234 -0.954364 0.000000
vt 1.226894 -0.862978 0.000000
vt 1.344248 -0.665580 0.000000
vt 1.430095 -0.452581 0.000000
vt 1.080782 -1.040149 0.000000
vt -0.997989 -1.119830 0.000000
vt 0.909338 -1.192939 0.000000
vt -0.815351 -1.259048 0.000000
vt 0.716580 -1.317768 0.000000
vt -0.613603 -1.368755 0.000000
vt 0.507025 -1.411710 0.000000
vt -0.397472 -1.446380 0.000000
vt 0.285587 -1.472563 0.000000
vt -0.172025 -1.490103 0.000000
vt 0.057454 -1.498899 0.000000
vn -0.098828 0.015265 -0.000000
vn -0.098828 0.015265 -0.000000
vn -0.100000 0.000000 -0.000000
vn -0.100000 0.000000 -0.000000
vn -0.098828 -0.015265 0.000000
vn -0.098828 -0.015265 0.000000
vn -0.095340 -0.030172 0.000000
vn -0.095340 -0.030172 0.000000
vn -0.089617 -0.044372 0.000000
vn -0.089617 -0.044372 0.000000
vn -0.081793 -0.057532 0.000000
vn -0.081793 -0.057532 0.000000
vn -0.072052 -0.069343 0.000000
vn -0.072052 -0.069343 0.000000
vn -0.060623 -0.079529 0.000000
vn -0.060623 -0.079529 0.000000
vn -0.047772 -0.087851 0.000000
vn -0.047772 -0.087851 0.000000
vn -0.033802 -0.094114 0.000000
vn -0.033802 -0.094114 0.000000
vn -0.019039 -0.098171 0.000000
vn -0.019039 -0.098171 0.000000
vn -0.003830 -0.099927 0.000000
vn -0.003830 -0.099927 0.000000
vn 0.011468 -0.099340 0.000000
vn 0.011468 -0.099340 0.000000
vn 0.026498 -0.096425 0.000000
vn 0.026498 -0.096425 0.000000
vn 0.040907 -0.091250 0.000000
vn 0.040907 -0.091250 0.000000
vn 0.054357 -0.083937 0.000000
vn 0.054357 -0.083937 0.000000
vn 0.066533 -0.074655 0.000000
vn 0.066533 -0.074655 0.000000
vn 0.077149 -0.063624 0.000000
vn 0.077149 -0.063624 0.000000
vn 0.085957 -0.051102 0.000000
vn 0.085957 -0.051102 0.000000
vn 0.092750 -0.037382 0.000000
vn 0.092750 -0.037382 0.000000
vn 0.097370 -0.022785 0.000000
vn 0.097370 -0.022785 0.000000
vn 0.099707 -0.007655 0.000000
vn 0.099707 -0.007655 0.000000
vn 0.099707 0.007655 0.000000
vn 0.099707 0.007655 0.000000
vn 0.097370 0.022785 0.000000
vn 0.097370 0.022785 0.000000
vn 0.092750 0.037382 0.000000
vn 0.092750 0.037382 0.000000
vn 0.085957 0.051102 0.000000
vn 0.085957 0.051102 0.000000
vn 0.077149 0.063624 0.000000
vn 0.077149 0.063624 0.000000
vn 0.066533 0.074655 0.000000
vn 0.066533 0.074655 0.000000
vn 0.054357 0.083937 0.000000
vn 0.054357 0.083937 0.000000
vn 0.040907 0.091250 0.000000
vn 0.040907 0.091250 0.000000
vn 0.026498 0.096425 0.000000
vn 0.026498 0.096425 0.000000
vn 0.011468 0.099340 0.000000
vn 0.011468 0.099340 0.000000
vn -0.003830 0.099927 -0.000000
vn -0.003830 0.099927 -0.000000
vn -0.019039 0.098171 -0.000000
vn -0.019039 0.098171 -0.000000
vn -0.033802 0.094114 -0.000000
vn -0.033802 0.094114 -0.000000
vn -0.047772 0.087851 -0.000000
vn -0.047772 0.087851 -0.000000
vn -0.060623 0.079529 -0.000000
vn -0.060623 0.079529 -0.000000
vn -0.072052 0.069343 -0.000000
vn -0.072052 0.069343 -0.000000
vn -0.081793 0.057532 -0.000000
vn -0.081793 0.057532 -0.000000
vn -0.089617 0.044372 -0.000000
vn -0.089617 0.044372 -0.000000
vn -0.095340 0.030172 -0.000000
vn -0.095340 0.030172 -0.000000
vn 0.000000 0.000000 0.100000
vn 0.000000 0.000000 0.100000
vn 0.000000 0.000000 0.100000
vn 0.000000 0.000000 0.100000
vn 0.000000 0.000000 0.100000
vn 0.000000 0.000000 0.100000
vn 0.000000 0.000000 0.100000
vn 0.000000 0.000000 0.100000
vn 0.000000 0.000000 0.100000
vn 0.000000 0.000000 0.100000
vn 0.000000 0.000000 0.100000
vn 0.000000 0.000000 0.100000
vn 0.000000 0.000000 0.100000
vn 0.000000 0.000000 0.100000
vn 0.000000 0.000000 0.100000
vn 0.000000 0.000000 0.100000
vn 0.000000 0.000000 0.100000
vn 0.000000 0.000000 0.100000
vn 0.000000 0.000000 0.100000
vn 0.000000 0.000000 0.100000
vn 0.000000 0.000000 0.100000
vn 0.000000 0.000000 0.100000
vn 0.000000 0.000000 0.100000
vn 0.000000 0.000000 0.100000
vn 0.000000 0.000000 0.100000
vn 0.000000 0.000000 0.100000
vn 0.000000 0.000000 0.100000
vn 0.000000 0.000000 0.100000
vn 0.000000 0.000000 0.100000
vn 0.000000 0.000000 0.100000
vn 0.000000 0.000000 0.100000
vn 0.000000 0.000000 0.100000
vn 0.000000 0.000000 0.100000
vn 0.000000 0.000000 0.100000
vn 0.000000 0.000000 0.100000
vn 0.000000 0.000000 0.100000
vn 0.000000 0.000000 0.100000
vn 0.000000 0.000000 0.100000
vn 0.000000 0.000000 0.100000
vn 0.000000 0.000000 0.100000
vn 0.000000 0.000000 0.100000
vn 0.000000 0.000000 -0.100000
vn 0.000000 0.000000 -0.100000
vn 0.000000 0.000000 -0.100000
vn 0.000000 0.000000 -0.100000
vn 0.000000 0.000000 -0.100000
vn 0.000000 0.000000 -0.100000
vn 0.000000 0.000000 -0.100000
vn 0.000000 0.000000 -0.100000
vn 0.000000 0.000000 -0.100000
vn 0.000000 0.000000 -0.100000
vn 0.000000 0.000000 -0.100000
vn 0.000000 0.000000 -0.100000
vn 0.000000 0.000000 -0.100000
vn 0.000000 0.000000 -0.100000
vn 0.000000 0.000000 -0.100000
vn 0.000000 0.000000 -0.100000
vn 0.000000 0.000000 -0.100000
vn 0.000000 0.000000 -0.100000
vn 0.000000 0.000000 -0.100000
vn 0.000000 0.000000 -0.100000
vn 0.000000 0.000000 -0.100000
vn 0.000000 0.000000 -0.100000
vn 0.000000 0.000000 -0.100000
vn 0.000000 0.000000 -0.100000
vn 0.000000 0.000000 -0.100000
vn 0.000000 0.000000 -0.100000
vn 0.000000 0.000000 -0.100000
vn 0.000000 0.000000 -0.100000
vn 0.000000 0.000000 -0.100000
vn 0.000000 0.000000 -0.100000
vn 0.000000 0.000000 -0.100000
vn 0.000000 0.000000 -0.100000
vn 0.000000 0.000000 -0.100000
vn 0.000000 0.000000 -0.100000
vn 0.000000 0.000000 -0.100000
vn 0.000000 0.000000 -0.100000
vn 0.000000 0.000000 -0.100000
vn 0.000000 0.000000 -0.100000
vn 0.000000 0.000000 -0.100000
vn 0.000000 0.000000 -0.100000
vn 0.000000 0.000000 -0.100000
usemtl Steel_-_Satin
f 2/1/1 82/2/2 1/3/3
f 1/3/3 82/2/2 42/4/4
f 1/5/3 42/6/4 41/7/5
f 41/7/5 42/6/4 43/8/6
f 41/7/5 43/8/6 40/9/7
f 40/9/7 43/8/6 44/10/8
f 40/9/7 44/10/8 39/11/9
f 39/11/9 44/10/8 45/12/10
f 39/11/9 45/12/10 38/13/11
f 38/13/11 45/12/10 46/14/12
f 38/13/11 46/14/12 37/15/13
f 37/15/13 46/14/12 47/16/14
f 37/15/13 47/16/14 36/17/15
f 36/17/15 47/16/14 48/18/16
f 36/17/15 48/18/16 35/19/17
f 35/19/17 48/18/16 49/20/18
f 35/19/17 49/20/18 34/21/19
f 34/21/19 49/20/18 50/22/20
f 34/21/19 50/22/20 33/23/21
f 33/23/21 50/22/20 51/24/22
f 33/23/21 51/24/22 32/25/23
f 32/25/23 51/24/22 52/26/24
f 32/25/23 52/26/24 31/27/25
f 31/27/25 52/26/24 53/28/26
f 31/27/25 53/28/26 30/29/27
f 30/29/27 53/28/26 54/30/28
f 30/29/27 54/30/28 29/31/29
f 29/31/29 54/30/28 55/32/30
f 29/31/29 55/32/30 28/33/31
f 28/33/31 55/32/30 56/34/32
f 28/33/31 56/34/32 27/35/33
f 27/35/33 56/34/32 57/36/34
f 27/35/33 57/36/34 26/37/35
f 26/37/35 57/36/34 58/38/36
f 26/37/35 58/38/36 25/39/37
f 25/39/37 58/38/36 59/40/38
f 25/39/37 59/40/38 24/41/39
f 24/41/39 59/40/38 60/42/40
f 24/41/39 60/42/40 23/43/41
f 23/43/41 60/42/40 61/44/42
f 23/43/41 61/44/42 22/45/43
f 22/45/43 61/44/42 62/46/44
f 22/45/43 62/46/44 21/47/45
f 21/47/45 62/46/44 63/48/46
f 21/47/45 63/48/46 20/49/47
f 20/49/47 63/48/46 64/50/48
f 20/49/47 64/50/48 19/51/49
f 19/51/49 64/50/48 65/52/50
f 19/51/49 65/52/50 18/53/51
f 18/53/51 65/52/50 66/54/52
f 18/53/51 66/54/52 17/55/53
f 17/55/53 66/54/52 67/56/54
f 17/55/53 67/56/54 16/57/55
f 16/57/55 67/56/54 68/58/56
f 16/57/55 68/58/56 15/59/57
f 15/59/57 68/58/56 69/60/58
f 15/59/57 69/60/58 14/61/59
f 14/61/59 69/60/58 70/62/60
f 14/61/59 70/62/60 13/63/61
f 13/63/61 70/62/60 71/64/62
f 13/63/61 71/64/62 12/65/63
f 12/65/63 71/64/62 72/66/64
f 12/65/63 72/66/64 11/67/65
f 11/67/65 72/66/64 73/68/66
f 11/67/65 73/68/66 10/69/67
f 10/69/67 73/68/66 74/70/68
f 10/69/67 74/70/68 9/71/69
f 9/71/69 74/70/68 75/72/70
f 9/71/69 75/72/70 8/73/71
f 8/73/71 75/72/70 76/74/72
f 8/73/71 76/74/72 7/75/73
f 7/75/73 76/74/72 77/76/74
f 7/75/73 77/76/74 6/77/75
f 6/77/75 77/76/74 78/78/76
f 6/77/75 78/78/76 5/79/77
f 5/79/77 78/78/76 79/80/78
f 5/79/77 79/80/78 4/81/79
f 4/81/79 79/80/78 80/82/80
f 4/81/79 80/82/80 3/83/81
f 3/83/81 80/82/80 81/84/82
f 3/83/81 81/84/82 2/1/1
f 2/1/1 81/84/82 82/2/2
f 2/85/83 1/86/84 25/87/85
f 25/87/85 1/86/84 41/88/86
f 25/87/85 41/88/86 40/89/87
f 40/89/87 39/90/88 25/87/85
f 25/87/85 39/90/88 38/91/89
f 25/87/85 38/91/89 26/92/90
f 26/92/90 38/91/89 37/93/91
f 26/92/90 37/93/91 27/94/92
f 27/94/92 37/93/91 36/95/93
f 27/94/92 36/95/93 28/96/94
f 28/96/94 36/95/93 35/97/95
f 28/96/94 35/97/95 29/98/96
f 29/98/96 35/97/95 34/99/97
f 29/98/96 34/99/97 30/100/98
f 30/100/98 34/99/97 33/101/99
f 30/100/98 33/101/99 31/102/100
f 31/102/100 33/101/99 32/103/101
f 24/104/102 12/105/103 25/87/85
f 25/87/85 12/105/103 11/106/104
f 25/87/85 11/106/104 10/107/105
f 23/108/106 19/109/107 24/104/102
f 24/104/102 19/109/107 18/110/108
f 24/104/102 18/110/108 17/111/109
f 19/109/107 23/108/106 20/112/110
f 20/112/110 23/108/106 22/113/111
f 20/112/110 22/113/111 21/114/112
f 17/111/109 16/115/113 24/104/102
f 24/104/102 16/115/113 15/116/114
f 24/104/102 15/116/114 14/117/115
f 14/117/115 13/118/116 24/104/102
f 24/104/102 13/118/116 12/105/103
f 10/107/105 9/119/117 25/87/85
f 25/87/85 9/119/117 8/120/118
f 25/87/85 8/120/118 7/121/119
f 7/121/119 6/122/120 25/87/85
f 25/87/85 6/122/120 5/123/121
f 25/87/85 5/123/121 4/124/122
f 4/124/122 3/125/123 25/87/85
f 25/87/85 3/125/123 2/85/83
f 43/126/124 42/127/125 59/128/126
f 59/128/126 42/127/125 82/129/127
f 59/128/126 82/129/127 81/130/128
f 81/130/128 80/131/129 59/128/126
f 59/128/126 80/131/129 79/132/130
f 59/128/126 79/132/130 78/133/131
f 78/133/131 77/134/132 59/128/126
f 59/128/126 77/134/132 76/135/133
f 59/128/126 76/135/133 75/136/134
f 75/136/134 74/137/135 59/128/126
f 59/128/126 74/137/135 73/138/136
f 59/128/126 73/138/136 72/139/137
f 59/128/126 72/139/137 60/140/138
f 60/140/138 72/139/137 71/141/139
f 60/140/138 71/141/139 70/142/140
f 70/142/140 69/143/141 60/140/138
f 60/140/138 69/143/141 68/144/142
f 60/140/138 68/144/142 67/145/143
f 67/145/143 66/146/144 60/140/138
f 60/140/138 66/146/144 65/147/145
f 60/140/138 65/147/145 61/148/146
f 61/148/146 65/147/145 64/149/147
f 61/148/146 64/149/147 62/150/148
f 62/150/148 64/149/147 63/151/149
f 58/152/150 46/153/151 59/128/126
f 59/128/126 46/153/151 45/154/152
f 59/128/126 45/154/152 44/155/153
f 46/153/151 58/152/150 47/156/154
f 47/156/154 58/152/150 57/157/155
f 47/156/154 57/157/155 48/158/156
f 48/158/156 57/157/155 56/159/157
f 48/158/156 56/159/157 49/160/158
f 49/160/158 56/159/157 55/161/159
f 49/160/158 55/161/159 50/162/160
f 50/162/160 55/161/159 54/163/161
f 50/162/160 54/163/161 51/164/162
f 51/164/162 54/163/161 53/165/163
f 51/164/162 53/165/163 52/166/164
f 44/155/153 43/126/124 59/128/126
# 82 vertices
# 166 texture params
# 164 normals
# 160 facets

# 1 groups
