<?xml version="1.0" encoding="utf-8"?>
<!-- Generator: Adobe Illustrator 19.0.0, SVG Export Plug-In . SVG Version: 6.00 Build 0)  -->
<svg version="1.1" id="Layer_1" xmlns="http://www.w3.org/2000/svg" xmlns:xlink="http://www.w3.org/1999/xlink" x="0px" y="0px"
	 viewBox="-4 377 40 40" style="enable-background:new -4 377 40 40;" xml:space="preserve">
<style type="text/css">
	.st0{fill:#FFFFFF;}
</style>
<path class="st0" d="M26.9,400.5c0-0.2,0-0.5,0-0.7h0.7v-3.2h-3.9v0.9l-1.1-1c1-0.6,2.1-1.7,2.1-3.5c0-2.3-1.9-4.3-4.3-4.3
	c-2.2,0-4,1.8-4.2,4.1c-0.1,1,0.3,2.1,1,2.8c-1.1,1-1.7,2.5-1.7,4c0,0.7,0.1,1.4,0.4,2l-1.2-1.1c0.1-0.2,0.1-0.4,0.1-0.7h0.7v-0.1
	v-3.1h-3.9v0.9l-1.1-1c1-0.6,2.1-1.7,2.1-3.5c0-2.3-1.9-4.3-4.3-4.3c-2.2,0-4,1.8-4.2,4.1c-0.1,1,0.3,2.1,1,2.8
	c-1.1,1-1.7,2.5-1.7,4c0,3.1,2.5,5.6,5.6,5.6c1.6,0,3.1-0.7,4.2-1.8l1.6,1.6l1.9-1.9c1,1.3,2.6,2.1,4.4,2.1c1.6,0,3.1-0.7,4.2-1.8
	l1.6,1.6l2.4-2.2L26.9,400.5z M11.1,401.3c-0.4,0.5-1.1,0.8-1.8,0.8c-1.4,0-2.5-1.1-2.5-2.4c0-0.7,0.3-1.4,0.8-1.8L11.1,401.3z
	 M8.6,393.8L8.2,394l-0.3-0.3c-0.5-0.5-0.5-0.7-0.5-0.7l0-0.1c0-0.6,0.4-1.1,0.9-1.1c0.6,0,1.1,0.5,1.1,1.1
	C9.5,393.5,8.6,393.8,8.6,393.8z M23.2,401.3c-0.4,0.5-1.1,0.8-1.8,0.8c-1.4,0-2.5-1.1-2.5-2.4c0-0.7,0.3-1.4,0.8-1.8L23.2,401.3z
	 M19.7,392.8c0-0.3,0.1-0.5,0.2-0.7c0.2-0.2,0.5-0.3,0.7-0.3c0.6,0,1.1,0.5,1.1,1.1c0,0.6-0.9,1-0.9,1l-0.3,0.1l-0.3-0.3
	c-0.5-0.5-0.5-0.7-0.5-0.7l0-0.1L19.7,392.8z"/>
</svg>
