<?xml version="1.0" encoding="utf-8"?>
<!-- Generator: Adobe Illustrator 19.0.0, SVG Export Plug-In . SVG Version: 6.00 Build 0)  -->
<svg version="1.1" id="Capa_1" xmlns="http://www.w3.org/2000/svg" xmlns:xlink="http://www.w3.org/1999/xlink" x="0px" y="0px"
	 viewBox="-23.5 391.4 6 10.2" style="enable-background:new -23.5 391.4 6 10.2;" xml:space="preserve">
<style type="text/css">
	.st0{fill:#FFFFFF;}
</style>
<g>
	<path class="st0" d="M-22.4,401.5l4.8-4.8c0.1-0.1,0.1-0.1,0.1-0.2s0-0.2-0.1-0.2l-4.8-4.8c-0.1-0.1-0.1-0.1-0.2-0.1
		c-0.1,0-0.2,0-0.2,0.1l-0.5,0.5c-0.1,0.1-0.1,0.1-0.1,0.2s0,0.2,0.1,0.2l4.1,4l-4.1,4c-0.1,0.1-0.1,0.1-0.1,0.2
		c0,0.1,0,0.2,0.1,0.2l0.5,0.5c0.1,0.1,0.1,0.1,0.2,0.1C-22.6,401.6-22.5,401.6-22.4,401.5z"/>
</g>
</svg>
