<?xml version="1.0" encoding="utf-8"?>
<!-- Generator: Adobe Illustrator 19.0.0, SVG Export Plug-In . SVG Version: 6.00 Build 0)  -->
<svg version="1.1" id="Capa_1" xmlns="http://www.w3.org/2000/svg" xmlns:xlink="http://www.w3.org/1999/xlink" x="0px" y="0px"
	 viewBox="-288 391.8 6 10.2" style="enable-background:new -288 391.8 6 10.2;" xml:space="preserve">
<style type="text/css">
	.st0{fill:#FFFFFF;}
</style>
<g>
	<path class="st0" d="M-283.1,391.8l-4.8,4.8c-0.1,0.1-0.1,0.1-0.1,0.2s0,0.2,0.1,0.2l4.8,4.8c0.1,0.1,0.2,0.1,0.2,0.1
		s0.2,0,0.2-0.1l0.5-0.5c0.1-0.1,0.1-0.1,0.1-0.2c0-0.1,0-0.2-0.1-0.2l-4.1-4l4.1-4c0.1-0.1,0.1-0.1,0.1-0.2s0-0.2-0.1-0.2l-0.5-0.5
		c-0.1-0.1-0.2-0.1-0.2-0.1C-282.9,391.8-283,391.8-283.1,391.8z"/>
</g>
</svg>
