<?xml version="1.0" encoding="utf-8"?>
<!-- Generator: Adobe Illustrator 19.0.0, SVG Export Plug-In . SVG Version: 6.00 Build 0)  -->
<svg version="1.1" id="Capa_1" xmlns="http://www.w3.org/2000/svg" xmlns:xlink="http://www.w3.org/1999/xlink" x="0px" y="0px"
	 viewBox="118.4 380.2 33.5 33.4" style="enable-background:new 118.4 380.2 33.5 33.4;" xml:space="preserve">
<style type="text/css">
	.st0{fill:#FFFFFF;}
</style>
<g>
	<path class="st0" d="M122.9,397.5l11.5,9.2c0.2,0.2,0.4,0.2,0.5,0.2c0.1-0.1,0.2-0.2,0.2-0.4v-9.2c0.1,0.1,0.1,0.2,0.2,0.2
		l11.5,9.2c0.2,0.2,0.4,0.2,0.5,0.2c0.1-0.1,0.2-0.2,0.2-0.4v-19.1c0-0.2-0.1-0.4-0.2-0.4c-0.1-0.1-0.3,0-0.5,0.2l-11.5,9.2
		c-0.1,0.1-0.2,0.2-0.2,0.2v-9.2c0-0.2-0.1-0.4-0.2-0.4c-0.1-0.1-0.3,0-0.5,0.2l-11.5,9.2c-0.2,0.2-0.3,0.4-0.3,0.6
		C122.6,397.1,122.7,397.3,122.9,397.5z"/>
</g>
</svg>
