<?xml version="1.0" encoding="utf-8"?>
<!-- Generator: Adobe Illustrator 19.0.0, SVG Export Plug-In . SVG Version: 6.00 Build 0)  -->
<svg version="1.1" id="Capa_1" xmlns="http://www.w3.org/2000/svg" xmlns:xlink="http://www.w3.org/1999/xlink" x="0px" y="0px"
	 viewBox="75.7 369.3 55 55" style="enable-background:new 75.7 369.3 55 55;" xml:space="preserve">
<style type="text/css">
	.st0{fill:#FFFFFF;}
</style>
<g>
	<g>
		<path class="st0" d="M91.3,415.7c0,1.1,1,2,2.1,2h19.7c1.1,0,2.1-0.9,2.1-2l1.4-29.7H89.9L91.3,415.7z M107.7,393.4
			c0-0.5,0.4-0.9,0.9-0.9h1.4c0.5,0,0.9,0.4,0.9,0.9v17c0,0.5-0.4,0.9-0.9,0.9h-1.4c-0.5,0-0.9-0.4-0.9-0.9V393.4z M101.7,393.4
			c0-0.5,0.4-0.9,0.9-0.9h1.4c0.5,0,0.9,0.4,0.9,0.9v17c0,0.5-0.4,0.9-0.9,0.9h-1.4c-0.5,0-0.9-0.4-0.9-0.9V393.4L101.7,393.4z
			 M95.7,393.4c0-0.5,0.4-0.9,0.9-0.9h1.4c0.5,0,0.9,0.4,0.9,0.9v17c0,0.5-0.4,0.9-0.9,0.9h-1.4c-0.5,0-0.9-0.4-0.9-0.9V393.4z"/>
		<path class="st0" d="M117.6,377.9h-9.1v-1.7c0-0.2-0.2-0.4-0.4-0.4h-9.6c-0.2,0-0.4,0.2-0.4,0.4v1.7h-9.1c-0.7,0-1.3,0.6-1.3,1.3
			v4.2h31.3v-4.2C118.9,378.5,118.3,377.9,117.6,377.9z"/>
	</g>
</g>
</svg>
