<?xml version="1.0" encoding="utf-8"?>
<!-- Generator: Adobe Illustrator 19.0.0, SVG Export Plug-In . SVG Version: 6.00 Build 0)  -->
<svg version="1.1" id="Layer_1" xmlns="http://www.w3.org/2000/svg" xmlns:xlink="http://www.w3.org/1999/xlink" x="0px" y="0px"
	 viewBox="-4 377 40 40" style="enable-background:new -4 377 40 40;" xml:space="preserve">
<style type="text/css">
	.st0{fill:#FFFFFF;}
</style>
<g>
	<path class="st0" d="M11.9,402.8c-0.6-1.7-0.9-3.6-0.9-5.7c0-2,0.3-3.9,0.9-5.8c0.5-1.7,1.4-3.4,2.7-5.2l1.1-1.6H11l-0.3,0.3
		c-1.3,1.5-2.3,3.3-3.1,5.5c-0.7,2-1.1,4.2-1.1,6.7c0,2.4,0.3,4.6,1.1,6.6c0.8,2.2,1.8,3.9,3.1,5.4l0.3,0.3h4.7l-1.2-1.6
		C13.4,406.4,12.5,404.7,11.9,402.8z"/>
	<path class="st0" d="M26.2,390.4c-0.8-2.2-1.8-4-3.1-5.5l-0.3-0.3h-4.6l1.1,1.6c1.3,1.8,2.2,3.5,2.7,5.2c0.6,1.9,0.9,3.8,0.9,5.8
		c0,1.7-0.3,3.6-1,5.7c-0.6,1.9-1.4,3.6-2.5,5.1l-1.2,1.6h4.7l0.3-0.3c1.3-1.5,2.3-3.2,3.1-5.4c0.7-1.9,1.1-4.1,1.1-6.6
		C27.3,394.6,27,392.4,26.2,390.4z"/>
</g>
</svg>
