<?xml version="1.0" encoding="utf-8"?>
<!-- Generator: Adobe Illustrator 19.0.0, SVG Export Plug-In . SVG Version: 6.00 Build 0)  -->
<svg version="1.1" id="Layer_1" xmlns="http://www.w3.org/2000/svg" xmlns:xlink="http://www.w3.org/1999/xlink" x="0px" y="0px"
	 viewBox="-4 377 30.1 40" style="enable-background:new -4 377 30.1 40;" xml:space="preserve">
<style type="text/css">
	.st0{fill:#FFFFFF;}
</style>
<g>
	<path class="st0" d="M10.9,402.8c-0.6-1.7-0.9-3.6-0.9-5.7c0-2,0.3-3.9,0.9-5.8c0.5-1.7,1.4-3.4,2.7-5.2l1.1-1.6H10l-0.3,0.3
		c-1.3,1.5-2.3,3.3-3.1,5.5c-0.7,2-1.1,4.2-1.1,6.7c0,2.4,0.3,4.6,1.1,6.6c0.8,2.2,1.8,3.9,3.1,5.4l0.3,0.3h4.7l-1.2-1.6
		C12.4,406.4,11.5,404.7,10.9,402.8z"/>
</g>
</svg>
