<?xml version="1.0" encoding="utf-8"?>
<!-- Generator: Adobe Illustrator 19.0.0, SVG Export Plug-In . SVG Version: 6.00 Build 0)  -->
<svg version="1.1" id="Layer_1" xmlns="http://www.w3.org/2000/svg" xmlns:xlink="http://www.w3.org/1999/xlink" x="0px" y="0px"
	 viewBox="-4 377 30.1 40" style="enable-background:new -4 377 30.1 40;" xml:space="preserve">
<style type="text/css">
	.st0{fill:#FFFFFF;}
</style>
<g>
	<path class="st0" d="M6.7,407.6l-1.2,1.6h4.7l0.3-0.3c1.3-1.5,2.3-3.2,3.1-5.4c0.8-2,1.1-4.2,1.1-6.6c0-2.5-0.4-4.7-1.1-6.7
		c-0.8-2.2-1.8-4-3.1-5.5l-0.3-0.3H5.5l1.1,1.6c1.3,1.8,2.2,3.5,2.7,5.2c0.6,1.9,0.9,3.8,0.9,5.8c0,2.1-0.3,4-0.9,5.7
		C8.7,404.7,7.8,406.4,6.7,407.6z"/>
</g>
</svg>
