<?xml version="1.0" encoding="utf-8"?>
<!-- Generator: Adobe Illustrator 19.0.0, SVG Export Plug-In . SVG Version: 6.00 Build 0)  -->
<svg version="1.1" id="Layer_1" xmlns="http://www.w3.org/2000/svg" xmlns:xlink="http://www.w3.org/1999/xlink" x="0px" y="0px"
	 viewBox="-280 372 50 50" style="enable-background:new -280 372 50 50;" xml:space="preserve">
<style type="text/css">
	.st0{fill:#231F20;}
</style>
<path class="st0" d="M-238.1,381.2h-23.8c-0.2,0-0.3,0.1-0.4,0.2l0,0l-10,7.7l0,0c-0.2,0.1-0.3,0.3-0.3,0.5v23.8
	c0,0.4,0.3,0.7,0.7,0.7h23.8c0.2,0,0.3-0.1,0.4-0.2l0,0l10-7.7l0,0c0.2-0.1,0.3-0.3,0.3-0.5v-23.8
	C-237.4,381.5-237.7,381.2-238.1,381.2z M-247.4,405v-15.1l8.6-6.6V405H-247.4z M-240.2,406.4l-7.2,5.6v-5.6H-240.2z M-262.6,405.3
	l-8.6,6.6v-21.7h8.6V405.3z M-269.8,388.9l7.2-5.6v5.6H-269.8z M-261.2,390.3h12.5V405h-12.5V390.3z M-240.2,382.6l-8.2,6.3h-12.9
	v-6.3H-240.2z M-269.8,412.7l8.2-6.3h12.9v6.3H-269.8z"/>
</svg>
