<?xml version="1.0" encoding="utf-8"?>
<!-- Generator: Adobe Illustrator 19.0.0, SVG Export Plug-In . SVG Version: 6.00 Build 0)  -->
<svg version="1.1" id="Layer_1" xmlns="http://www.w3.org/2000/svg" xmlns:xlink="http://www.w3.org/1999/xlink" x="0px" y="0px"
	 viewBox="-280 372 50 50" style="enable-background:new -280 372 50 50;" xml:space="preserve">
<style type="text/css">
	.st0{fill:#231F20;}
</style>
<path class="st0" d="M-239.1,380.4h-31.8c-0.4,0-0.7,0.3-0.7,0.7v31.8c0,0.4,0.3,0.7,0.7,0.7h31.8c0.4,0,0.7-0.3,0.7-0.7v-31.8
	C-238.4,380.7-238.7,380.4-239.1,380.4z M-245.8,386.8h-18.4l-5-5h28.4L-245.8,386.8z M-246.2,388.2v17.6h-17.6v-17.6H-246.2z
	 M-265.2,387.8v18.4l-5,5v-28.4L-265.2,387.8z M-264.2,407.2h18.4l5,5h-28.4L-264.2,407.2z M-244.8,406.2v-18.4l5-5v28.4
	L-244.8,406.2z"/>
</svg>
