<?xml version="1.0" encoding="utf-8"?>
<!-- Generator: Adobe Illustrator 19.0.0, SVG Export Plug-In . SVG Version: 6.00 Build 0)  -->
<svg version="1.1" id="Capa_1" xmlns="http://www.w3.org/2000/svg" xmlns:xlink="http://www.w3.org/1999/xlink" x="0px" y="0px"
	 viewBox="-2012 1963 75 75" style="enable-background:new -2012 1963 75 75;" xml:space="preserve">
<style type="text/css">
	.st0{fill:#E2E3E4;stroke:#231F20;stroke-width:2.0762;stroke-miterlimit:10;}
	.st1{fill:#231F20;}
</style>
<path class="st0" d="M-1973.7,1976.2c-13.7,0-24.9,11.2-24.9,24.9s11.2,24.9,24.9,24.9s24.9-11.2,24.9-24.9
	S-1960,1976.2-1973.7,1976.2z M-1969.8,2021.5V2008h-7.6v13.6c-4.8-0.9-9-3.4-12-6.9l11.7-6.8l-3.8-6.6l-11.7,6.8
	c-0.8-2.2-1.2-4.5-1.2-7c0-2.4,0.4-4.7,1.2-6.9l11.7,6.8l3.8-6.6l-11.7-6.8c3-3.5,7.2-6.1,12-7v13.5h7.6v-13.6c4.8,0.9,9,3.4,12,6.9
	l-11.7,6.8l3.8,6.6l11.7-6.8c0.8,2.2,1.2,4.5,1.2,7c0,2.4-0.4,4.7-1.2,6.9l-11.7-6.8l-3.8,6.6l11.7,6.8
	C-1960.9,2018.1-1965,2020.6-1969.8,2021.5z"/>
<g>
	<g>
		<path class="st1" d="M-1978.9,1989.1c-0.4,0-0.7-0.3-0.8-0.7c-0.1-0.5,0.2-0.9,0.6-1l10.3-2.6c0.5-0.1,0.9,0.2,1,0.6
			c0.1,0.5-0.2,0.9-0.6,1l-10.3,2.6C-1978.8,1989.1-1978.9,1989.1-1978.9,1989.1z"/>
	</g>
	<g>
		<path class="st1" d="M-1978.9,1985.9c-0.4,0-0.7-0.3-0.8-0.7c-0.1-0.5,0.2-0.9,0.6-1l10.3-2.6c0.5-0.1,0.9,0.2,1,0.6
			c0.1,0.5-0.2,0.9-0.6,1l-10.3,2.6C-1978.8,1985.9-1978.9,1985.9-1978.9,1985.9z"/>
	</g>
	<g>
		<path class="st1" d="M-1978.9,1992.3c-0.4,0-0.7-0.3-0.8-0.7c-0.1-0.5,0.2-0.9,0.6-1l10.3-2.6c0.5-0.1,0.9,0.2,1,0.6
			c0.1,0.5-0.2,0.9-0.6,1l-10.3,2.6C-1978.8,1992.3-1978.9,1992.3-1978.9,1992.3z"/>
	</g>
</g>
<g>
	<g>
		<path class="st1" d="M-1986.7,1999.7c-0.2,0.3-0.6,0.5-1,0.4c-0.5-0.1-0.7-0.6-0.6-1.1l2.9-10.2c0.1-0.5,0.6-0.7,1.1-0.6
			s0.7,0.6,0.6,1.1l-2.9,10.2C-1986.6,1999.6-1986.6,1999.6-1986.7,1999.7z"/>
	</g>
	<g>
		<path class="st1" d="M-1989.4,1998.1c-0.2,0.3-0.6,0.5-1,0.4c-0.5-0.1-0.7-0.6-0.6-1.1l2.9-10.2c0.1-0.5,0.6-0.7,1.1-0.6
			c0.5,0.1,0.7,0.6,0.6,1.1l-2.9,10.2C-1989.4,1998-1989.4,1998-1989.4,1998.1z"/>
	</g>
	<g>
		<path class="st1" d="M-1983.9,2001.3c-0.2,0.3-0.6,0.5-1,0.4c-0.5-0.1-0.7-0.6-0.6-1.1l2.9-10.2c0.1-0.5,0.6-0.7,1.1-0.6
			c0.5,0.1,0.7,0.6,0.6,1.1l-2.9,10.2C-1983.9,2001.2-1983.9,2001.2-1983.9,2001.3z"/>
	</g>
</g>
<g>
	<g>
		<path class="st1" d="M-1981.4,2011.7c0.2,0.3,0.1,0.8-0.1,1c-0.3,0.3-0.9,0.3-1.2,0l-7.4-7.7c-0.3-0.3-0.3-0.9,0-1.2
			c0.3-0.3,0.9-0.3,1.2,0l7.4,7.7C-1981.5,2011.6-1981.4,2011.6-1981.4,2011.7z"/>
	</g>
	<g>
		<path class="st1" d="M-1984.2,2013.3c0.2,0.3,0.1,0.8-0.1,1c-0.3,0.3-0.9,0.3-1.2,0l-7.4-7.7c-0.3-0.3-0.3-0.9,0-1.2
			c0.3-0.3,0.9-0.3,1.2,0l7.4,7.7C-1984.2,2013.2-1984.2,2013.2-1984.2,2013.3z"/>
	</g>
	<g>
		<path class="st1" d="M-1978.6,2010.1c0.2,0.3,0.1,0.8-0.1,1c-0.3,0.3-0.9,0.3-1.2,0l-7.4-7.7c-0.3-0.3-0.3-0.9,0-1.2
			c0.3-0.3,0.9-0.3,1.2,0l7.4,7.7C-1978.7,2010-1978.7,2010-1978.6,2010.1z"/>
	</g>
</g>
<g>
	<g>
		<path class="st1" d="M-1968.4,2013.1c0.4,0,0.7,0.3,0.8,0.7c0.1,0.5-0.2,0.9-0.6,1l-10.3,2.6c-0.5,0.1-0.9-0.2-1-0.6
			c-0.1-0.5,0.2-0.9,0.6-1l10.3-2.6C-1968.5,2013.1-1968.5,2013.1-1968.4,2013.1z"/>
	</g>
	<g>
		<path class="st1" d="M-1968.4,2016.3c0.4,0,0.7,0.3,0.8,0.7c0.1,0.5-0.2,0.9-0.6,1l-10.3,2.6c-0.5,0.1-0.9-0.2-1-0.6
			c-0.1-0.5,0.2-0.9,0.6-1l10.3-2.6C-1968.5,2016.3-1968.5,2016.3-1968.4,2016.3z"/>
	</g>
	<g>
		<path class="st1" d="M-1968.4,2009.9c0.4,0,0.7,0.3,0.8,0.7c0.1,0.5-0.2,0.9-0.6,1l-10.3,2.6c-0.5,0.1-0.9-0.2-1-0.6
			c-0.1-0.5,0.2-0.9,0.6-1l10.3-2.6C-1968.5,2009.9-1968.5,2009.9-1968.4,2009.9z"/>
	</g>
</g>
<g>
	<g>
		<path class="st1" d="M-1960.6,2002.6c0.2-0.3,0.6-0.5,1-0.4c0.5,0.1,0.7,0.6,0.6,1.1l-2.9,10.2c-0.1,0.5-0.6,0.7-1.1,0.6
			c-0.5-0.1-0.7-0.6-0.6-1.1l2.9-10.2C-1960.7,2002.7-1960.7,2002.6-1960.6,2002.6z"/>
	</g>
	<g>
		<path class="st1" d="M-1957.9,2004.1c0.2-0.3,0.6-0.5,1-0.4c0.5,0.1,0.7,0.6,0.6,1.1l-2.9,10.2c-0.1,0.5-0.6,0.7-1.1,0.6
			s-0.7-0.6-0.6-1.1l2.9-10.2C-1957.9,2004.3-1957.9,2004.2-1957.9,2004.1z"/>
	</g>
	<g>
		<path class="st1" d="M-1963.4,2001c0.2-0.3,0.6-0.5,1-0.4c0.5,0.1,0.7,0.6,0.6,1.1l-2.9,10.2c-0.1,0.5-0.6,0.7-1.1,0.6
			c-0.5-0.1-0.7-0.6-0.6-1.1l2.9-10.2C-1963.5,2001.1-1963.4,2001-1963.4,2001z"/>
	</g>
</g>
<g>
	<g>
		<path class="st1" d="M-1965.9,1990.6c-0.2-0.3-0.1-0.8,0.1-1c0.3-0.3,0.9-0.3,1.2,0l7.4,7.7c0.3,0.3,0.3,0.9,0,1.2
			c-0.3,0.3-0.9,0.3-1.2,0l-7.4-7.7C-1965.8,1990.7-1965.9,1990.6-1965.9,1990.6z"/>
	</g>
	<g>
		<path class="st1" d="M-1963.1,1989c-0.2-0.3-0.1-0.8,0.1-1c0.3-0.3,0.9-0.3,1.2,0l7.4,7.7c0.3,0.3,0.3,0.9,0,1.2
			c-0.3,0.3-0.9,0.3-1.2,0l-7.4-7.7C-1963.1,1989.1-1963.1,1989-1963.1,1989z"/>
	</g>
	<g>
		<path class="st1" d="M-1968.7,1992.2c-0.2-0.3-0.1-0.8,0.1-1c0.3-0.3,0.9-0.3,1.2,0l7.4,7.7c0.3,0.3,0.3,0.9,0,1.2
			c-0.3,0.3-0.9,0.3-1.2,0l-7.4-7.7C-1968.6,1992.3-1968.6,1992.2-1968.7,1992.2z"/>
	</g>
</g>
</svg>
