<?xml version="1.0" encoding="utf-8"?>
<!-- Generator: Adobe Illustrator 19.0.0, SVG Export Plug-In . SVG Version: 6.00 Build 0)  -->
<svg version="1.1" id="Layer_1" xmlns="http://www.w3.org/2000/svg" xmlns:xlink="http://www.w3.org/1999/xlink" x="0px" y="0px"
	 viewBox="-280 372 50 50" style="enable-background:new -280 372 50 50;" xml:space="preserve">
<style type="text/css">
	.st0{fill:#231F20;}
</style>
<path class="st0" d="M-246.2,389.9c-0.4-0.1-0.7,0.2-0.7,0.6c-0.1,0.4,0.2,0.7,0.6,0.7c7.2,1,12.2,3.4,12.2,5.8
	c0,2.9-8.2,6.2-19.9,6.3v-26.7c0-0.4-0.3-0.7-0.7-0.7c-0.4,0-0.7,0.3-0.7,0.7v26.7c-1.4,0-2.8-0.1-4.1-0.2l-2.6-3.2
	c-0.2-0.3-0.6-0.3-0.9-0.1c-0.3,0.2-0.3,0.6-0.1,0.9l1.8,2.1c-8.5-0.9-13.9-3.6-13.9-6c0-2.3,5-4.7,12.1-5.7
	c0.4-0.1,0.6-0.4,0.6-0.7c-0.1-0.4-0.4-0.6-0.7-0.6c-8.2,1.2-13.2,3.9-13.2,7c0,2.2,2.4,4.2,6.7,5.6c2.4,0.8,5.3,1.4,8.4,1.7
	l-2.2,1.8c-0.3,0.2-0.3,0.6-0.1,0.9c0.1,0.2,0.3,0.2,0.5,0.2c0.1,0,0.3,0,0.4-0.1l3.3-2.7c1.4,0.1,2.8,0.2,4.3,0.2v12.9
	c0,0.4,0.3,0.7,0.7,0.7c0.4,0,0.7-0.3,0.7-0.7v-12.9c5.5-0.1,10.7-0.8,14.6-2.1c4.3-1.4,6.7-3.4,6.7-5.6
	C-232.9,393.8-238,391.1-246.2,389.9z"/>
</svg>
