<?xml version="1.0" encoding="utf-8"?>
<!-- Generator: Adobe Illustrator 19.0.0, SVG Export Plug-In . SVG Version: 6.00 Build 0)  -->
<svg version="1.1" id="Layer_1" xmlns="http://www.w3.org/2000/svg" xmlns:xlink="http://www.w3.org/1999/xlink" x="0px" y="0px"
	 viewBox="-280 372 50 50" style="enable-background:new -280 372 50 50;" xml:space="preserve">
<style type="text/css">
	.st0{fill:#231F20;}
</style>
<g>
	<path class="st0" d="M-261,395.8l2.2,0.7c0.1,0,0.1,0,0.2,0c0.3,0,0.5-0.2,0.6-0.4c0.1-0.3-0.1-0.7-0.4-0.8l-2.2-0.7
		c-0.3-0.1-0.7,0.1-0.8,0.4C-261.5,395.3-261.4,395.7-261,395.8z"/>
	<path class="st0" d="M-266,394.2l2.2,0.7c0.1,0,0.1,0,0.2,0c0.3,0,0.5-0.2,0.6-0.4c0.1-0.3-0.1-0.7-0.4-0.8l-2.2-0.7
		c-0.3-0.1-0.7,0.1-0.8,0.4S-266.3,394-266,394.2z"/>
	<path class="st0" d="M-271,392.5l2.2,0.7c0.1,0,0.1,0,0.2,0c0.3,0,0.5-0.2,0.6-0.4c0.1-0.3-0.1-0.7-0.4-0.8l-2.2-0.7
		c-0.3-0.1-0.7,0.1-0.8,0.4C-271.5,392-271.3,392.4-271,392.5z"/>
	<path class="st0" d="M-252.8,415.5l-1.3,1.3v-0.2c0-0.4-0.3-0.7-0.7-0.7c-0.4,0-0.7,0.3-0.7,0.7v0.2l-1.3-1.3
		c-0.3-0.3-0.7-0.3-0.9,0c-0.3,0.3-0.3,0.7,0,0.9l2.9,2.9l2.9-2.9c0.3-0.3,0.3-0.7,0-0.9C-252.2,415.3-252.6,415.3-252.8,415.5z"/>
	<path class="st0" d="M-235.7,400.5c-0.3,0.1-0.5,0.5-0.4,0.9l0.7,1.7l-17.9-6.1c0-0.1,0-0.2,0-0.4c-0.1-0.3-0.5-0.5-0.8-0.4v-18.8
		l1.3,1.3c0.1,0.1,0.3,0.2,0.5,0.2c0.2,0,0.3-0.1,0.5-0.2c0.3-0.3,0.3-0.7,0-0.9l-2.9-2.9l-2.9,2.9c-0.3,0.3-0.3,0.7,0,0.9
		c0.3,0.3,0.7,0.3,0.9,0l1.3-1.3v18.9l-0.2-0.1c-0.3-0.1-0.7,0.1-0.8,0.4c0,0.1,0,0.3,0,0.4l-17.7,5.9l0.9-1.7
		c0.2-0.3,0.1-0.7-0.3-0.9c-0.3-0.2-0.7-0.1-0.9,0.3l-2,3.6l3.5,2c0.1,0.1,0.2,0.1,0.3,0.1c0.2,0,0.5-0.1,0.6-0.3
		c0.2-0.3,0.1-0.7-0.3-0.9l-1.5-0.8l18.2-6.1v0.4c0,0.4,0.3,0.7,0.7,0.7c0.4,0,0.7-0.3,0.7-0.7v-0.4l18.2,6.1l-1.7,0.7
		c-0.3,0.1-0.5,0.5-0.4,0.9c0.1,0.3,0.4,0.4,0.6,0.4c0.1,0,0.2,0,0.2,0l3.8-1.5l-1.5-3.8C-234.9,400.6-235.3,400.4-235.7,400.5z"/>
	<path class="st0" d="M-274.3,393.9c0.1,0,0.2,0,0.2,0c0.3-0.1,0.5-0.5,0.4-0.9l-0.7-1.7l0.6,0.2c0.1,0,0.1,0,0.2,0
		c0.3,0,0.5-0.2,0.6-0.4c0.1-0.3-0.1-0.7-0.4-0.8l-0.5-0.2l1.7-0.7c0.3-0.1,0.5-0.5,0.4-0.9c-0.1-0.3-0.5-0.5-0.9-0.4l-3.8,1.5
		l1.5,3.8C-274.8,393.7-274.6,393.9-274.3,393.9z"/>
	<path class="st0" d="M-254.8,404.2c0.4,0,0.7-0.3,0.7-0.7v-2.2c0-0.4-0.3-0.7-0.7-0.7c-0.4,0-0.7,0.3-0.7,0.7v2.2
		C-255.4,403.9-255.2,404.2-254.8,404.2z"/>
	<path class="st0" d="M-255.4,413.7c0,0.4,0.3,0.7,0.7,0.7c0.4,0,0.7-0.3,0.7-0.7v-2.2c0-0.4-0.3-0.7-0.7-0.7
		c-0.4,0-0.7,0.3-0.7,0.7V413.7z"/>
	<path class="st0" d="M-255.4,408.6c0,0.4,0.3,0.7,0.7,0.7c0.4,0,0.7-0.3,0.7-0.7v-2.2c0-0.4-0.3-0.7-0.7-0.7
		c-0.4,0-0.7,0.3-0.7,0.7V408.6z"/>
	<path class="st0" d="M-246.1,394.9c0.1,0,0.1,0,0.2,0l2.2-0.7c0.3-0.1,0.5-0.5,0.4-0.8c-0.1-0.3-0.5-0.5-0.8-0.4l-2.2,0.7
		c-0.3,0.1-0.5,0.5-0.4,0.8C-246.7,394.7-246.4,394.9-246.1,394.9z"/>
	<path class="st0" d="M-241.2,393.2c0.1,0,0.1,0,0.2,0l2.2-0.7c0.3-0.1,0.5-0.5,0.4-0.8c-0.1-0.3-0.5-0.5-0.8-0.4l-2.2,0.7
		c-0.3,0.1-0.5,0.5-0.4,0.8C-241.7,393.1-241.4,393.2-241.2,393.2z"/>
	<path class="st0" d="M-251.7,396.2c0.1,0.3,0.3,0.4,0.6,0.4c0.1,0,0.1,0,0.2,0l2.2-0.7c0.3-0.1,0.5-0.5,0.4-0.8
		c-0.1-0.3-0.5-0.5-0.8-0.4l-2.2,0.7C-251.7,395.4-251.9,395.8-251.7,396.2z"/>
	<path class="st0" d="M-237.6,389.4l1.7,0.7l-0.5,0.2c-0.3,0.1-0.5,0.5-0.4,0.8c0.1,0.3,0.3,0.4,0.6,0.4c0.1,0,0.1,0,0.2,0l0.6-0.2
		l-0.7,1.7c-0.1,0.3,0,0.7,0.4,0.9c0.1,0,0.2,0,0.2,0c0.3,0,0.5-0.2,0.6-0.4l1.5-3.8l-3.8-1.5c-0.3-0.1-0.7,0-0.9,0.4
		S-237.9,389.3-237.6,389.4z"/>
</g>
</svg>
