<?xml version="1.0" encoding="utf-8"?>
<!-- Generator: Adobe Illustrator 19.0.0, SVG Export Plug-In . SVG Version: 6.00 Build 0)  -->
<svg version="1.1" id="Layer_1" xmlns="http://www.w3.org/2000/svg" xmlns:xlink="http://www.w3.org/1999/xlink" x="0px" y="0px"
	 viewBox="-280 372 50 50" style="enable-background:new -280 372 50 50;" xml:space="preserve">
<style type="text/css">
	.st0{fill:#231F20;}
</style>
<g id="XMLID_71_">
	<path id="XMLID_102_" class="st0" d="M-255,404.8c-5.7,0-11.2-0.7-15.2-2.1c-4.3-1.4-6.7-3.4-6.7-5.6c0-2.2,2.4-4.2,6.7-5.6
		c4.1-1.3,9.5-2.1,15.2-2.1c0.5,0,0.9,0,1.4,0c0.4,0,0.7,0.3,0.6,0.7c0,0.4-0.3,0.6-0.7,0.6c-0.5,0-0.9,0-1.4,0
		c-12.1,0-20.6,3.3-20.6,6.3c0,3,8.5,6.3,20.6,6.3s20.6-3.3,20.6-6.3c0-1.7-2.7-3.5-7.2-4.7c-0.4-0.1-0.6-0.5-0.5-0.8
		c0.1-0.4,0.5-0.6,0.8-0.5c5.3,1.4,8.2,3.6,8.2,6c0,2.2-2.4,4.2-6.7,5.6C-243.8,404-249.3,404.8-255,404.8z"/>
</g>
<g id="XMLID_70_">
	<path id="XMLID_101_" class="st0" d="M-263.6,407.4c-0.2,0-0.4-0.1-0.5-0.2c-0.2-0.3-0.2-0.7,0.1-0.9l2.9-2.4l-2.4-2.9
		c-0.2-0.3-0.2-0.7,0.1-0.9c0.3-0.2,0.7-0.2,0.9,0.1l3.2,3.9l-4,3.3C-263.3,407.4-263.4,407.4-263.6,407.4z"/>
</g>
<g id="XMLID_69_">
	<path id="XMLID_100_" class="st0" d="M-254.9,419c-2.8,0-5.1-3.7-6.5-10.2c-0.1-0.4,0.2-0.7,0.5-0.8c0.4-0.1,0.7,0.2,0.8,0.5
		c1.2,5.6,3.2,9.2,5.2,9.2c3,0,6.3-8.5,6.3-20.6c0-12.1-3.3-20.6-6.3-20.6s-6.3,8.5-6.3,20.6c0,0.4-0.3,0.7-0.7,0.7
		s-0.7-0.3-0.7-0.7c0-5.7,0.7-11.2,2.1-15.2c1.4-4.3,3.4-6.7,5.6-6.7c2.2,0,4.2,2.4,5.6,6.7c1.3,4.1,2.1,9.5,2.1,15.2
		c0,5.7-0.7,11.2-2.1,15.2C-250.7,416.7-252.7,419-254.9,419z"/>
</g>
<g id="XMLID_68_">
	<path id="XMLID_99_" class="st0" d="M-251,393.3c-0.1,0-0.3,0-0.4-0.1c-0.3-0.2-0.3-0.6-0.1-0.9l3-3.7l3.9,2.8
		c0.3,0.2,0.4,0.6,0.1,0.9c-0.2,0.3-0.6,0.4-0.9,0.1l-2.8-2.1l-2.2,2.7C-250.6,393.2-250.8,393.3-251,393.3z"/>
</g>
</svg>
