<?xml version="1.0" encoding="utf-8"?>
<!-- Generator: Adobe Illustrator 23.1.0, SVG Export Plug-In . SVG Version: 6.00 Build 0)  -->
<svg version="1.1" id="Capa_1" xmlns="http://www.w3.org/2000/svg" xmlns:xlink="http://www.w3.org/1999/xlink" x="0px" y="0px"
	 viewBox="0 0 55 55" style="enable-background:new 0 0 55 55;" xml:space="preserve">
<style type="text/css">
	.st0{fill:#FFFFFF;}
</style>
<g>
	<path class="st0" d="M31.2,23.6H9.1c-0.4,0-0.7,0.3-0.7,0.7v22.1c0,0.4,0.3,0.7,0.7,0.7h22.1c0.4,0,0.7-0.3,0.7-0.7V24.3
		C31.9,23.9,31.6,23.6,31.2,23.6z"/>
	<path class="st0" d="M46,9.1H23.5c-0.3,0-0.6,0.3-0.6,0.6c0,0,0,5.2,0,9.5c0,0.4,0.4,0.4,0.4,0.4h12.3c0.3,0,0.5,0.3,0.5,0.5v12.3
		c0,0,0,0.4,0.4,0.4c4.4,0,9.5,0,9.5,0c0.3,0,0.6-0.3,0.6-0.6V9.7C46.6,9.4,46.4,9.1,46,9.1z"/>
</g>
</svg>
