<?xml version="1.0" encoding="utf-8"?>
<!-- Generator: Adobe Illustrator 19.0.0, SVG Export Plug-In . SVG Version: 6.00 Build 0)  -->
<svg version="1.1" id="Layer_1" xmlns="http://www.w3.org/2000/svg" xmlns:xlink="http://www.w3.org/1999/xlink" x="0px" y="0px"
	 viewBox="-280 372 50 50" style="enable-background:new -280 372 50 50;" xml:space="preserve">
<style type="text/css">
	.st0{opacity:0.3;fill:#231F20;}
</style>
<path id="XMLID_122_" class="st0" d="M-247.7,400.6c-2.8,0-5.3,1.2-7.2,3l-5.5-4c0.5-1,0.8-2.2,0.8-3.5c0-1.2-0.3-2.4-0.8-3.5l6.8-5
	c1.5,1.5,3.6,2.4,5.8,2.4c4.6,0,8.4-3.8,8.4-8.4c0-4.6-3.8-8.4-8.4-8.4c-4.6,0-8.4,3.8-8.4,8.4c0,1.3,0.3,2.6,0.9,3.7l-6.8,5
	c-1.4-1.4-3.4-2.2-5.5-2.2c-4.4,0-8,3.6-8,8c0,4.4,3.6,8,8,8c2.1,0,4.1-0.8,5.5-2.2l5.5,4c-0.7,1.4-1.2,3-1.2,4.7
	c0,5.5,4.5,10,10,10s10-4.5,10-10S-242.1,400.6-247.7,400.6z M-247.7,376.3c3,0,5.5,2.5,5.5,5.5c0,3-2.5,5.5-5.5,5.5
	s-5.5-2.5-5.5-5.5C-253.2,378.7-250.7,376.3-247.7,376.3z M-267.5,401.3c-2.8,0-5.1-2.3-5.1-5.1c0-2.8,2.3-5.1,5.1-5.1
	c2.8,0,5.1,2.3,5.1,5.1C-262.3,399-264.6,401.3-267.5,401.3z M-247.7,417.7c-3.9,0-7.1-3.2-7.1-7.1c0-3.9,3.2-7.1,7.1-7.1
	s7.1,3.2,7.1,7.1C-240.5,414.5-243.7,417.7-247.7,417.7z"/>
</svg>
