<?xml version="1.0" encoding="utf-8"?>
<!-- Generator: Adobe Illustrator 23.1.0, SVG Export Plug-In . SVG Version: 6.00 Build 0)  -->
<svg version="1.1" id="Layer_1" xmlns="http://www.w3.org/2000/svg" xmlns:xlink="http://www.w3.org/1999/xlink" x="0px" y="0px"
	 viewBox="0 0 100 100" style="enable-background:new 0 0 100 100;" xml:space="preserve">
<style type="text/css">
	.st0{fill:#FFFFFF;}
	.st1{opacity:0.2;fill:#FFFFFF;enable-background:new    ;}
</style>
<g id="XMLID_64_">
	<g id="XMLID_65_">
		<path id="XMLID_66_" class="st0" d="M50,23.4c-14.7,0-26.5,11.8-26.5,26.5S35.3,76.5,50,76.5S76.5,64.7,76.5,50S64.7,23.4,50,23.4
			z M51.9,53.2c0,0.1,0,0.1,0,0.2v0.1v0.1c0,0.1,0,0.1-0.1,0.2l0,0c0,0.1-0.1,0.1-0.1,0.2l0,0c-0.1,0.1-0.1,0.1-0.2,0.2
			c0,0,0,0-0.1,0.1c-0.1,0.2-0.2,0.2-0.2,0.3c0,0,0,0-0.1,0c-0.1,0.1-0.2,0.1-0.2,0.1s0,0-0.1,0s-0.1,0.1-0.2,0.1h-0.1
			c-0.1,0-0.2,0-0.3,0c0,0,0,0-0.1,0s-0.2,0-0.3,0h-0.1c-0.1,0-0.2,0-0.2-0.1l0,0l-10.2-4.8c-0.9-0.4-1.3-1.5-0.9-2.4
			c0.4-0.9,1.5-1.3,2.4-0.9l7.5,3.5V34.5c0-1,0.8-1.9,1.9-1.9c1.1,0,1.9,0.8,1.9,1.9V53.2L51.9,53.2L51.9,53.2z"/>
	</g>
</g>
<path class="st1" d="M50,12c21,0,38,17,38,38S71,88,50,88S12,71,12,50S29,12,50,12 M50,5C25.1,5,5,25.1,5,50s20.1,45,45,45
	s45-20.1,45-45S74.9,5,50,5L50,5z"/>
</svg>
