<?xml version="1.0" encoding="utf-8"?>
<!-- Generator: Adobe Illustrator 19.0.0, SVG Export Plug-In . SVG Version: 6.00 Build 0)  -->
<svg version="1.1" id="Layer_1" xmlns="http://www.w3.org/2000/svg" xmlns:xlink="http://www.w3.org/1999/xlink" x="0px" y="0px"
	 viewBox="0 0 50 50" style="enable-background:new 0 0 50 50;" xml:space="preserve">
<style type="text/css">
	.st0{fill:#FFFFFF;}
</style>
<path id="XMLID_21_" class="st0" d="M16.6,13.7L5.8,24.5c-0.3,0.3-0.3,0.8,0,1.1l10.7,10.7c0.5,0.5,1.3,0.1,1.3-0.5v-5.4
	c0-0.4,0.3-0.8,0.8-0.8h12.8c0.4,0,0.8,0.3,0.8,0.8v5.4c0,0.7,0.8,1,1.3,0.5l10.8-10.8c0.3-0.3,0.3-0.8,0-1.1L33.5,13.7
	c-0.5-0.5-1.3-0.1-1.3,0.5v5.4c0,0.4-0.3,0.8-0.8,0.8H18.6c-0.4,0-0.8-0.3-0.8-0.8v-5.4C17.8,13.6,17,13.2,16.6,13.7z"/>
</svg>
