<?xml version="1.0" encoding="utf-8"?>
<!-- Generator: Adobe Illustrator 19.0.0, SVG Export Plug-In . SVG Version: 6.00 Build 0)  -->
<svg version="1.1" id="Layer_1" xmlns="http://www.w3.org/2000/svg" xmlns:xlink="http://www.w3.org/1999/xlink" x="0px" y="0px"
	 viewBox="-4 377 40 40" style="enable-background:new -4 377 40 40;" xml:space="preserve">
<style type="text/css">
	.st0{fill:#FFFFFF;}
</style>
<g>
	<rect x="13.6" y="391.1" class="st0" width="15.4" height="4"/>
	<rect x="13.6" y="398.8" class="st0" width="15.4" height="4"/>
	<polygon class="st0" points="7.8,402.6 8.7,384.5 3.2,384.5 4.1,402.6 	"/>
	<path class="st0" d="M5.9,403.2c-0.7,0-1.6,0.1-2.2,0.9c-0.5,0.6-0.7,1.3-0.7,2.2c0,0.8,0.3,1.6,0.7,2.2c0.5,0.6,1.3,1,2.2,1
		s1.7-0.4,2.2-1c0.4-0.6,0.7-1.4,0.7-2.2c0-0.8-0.2-1.5-0.7-2.1C7.6,403.6,6.8,403.2,5.9,403.2z"/>
</g>
</svg>
