<?xml version="1.0" encoding="utf-8"?>
<!-- Generator: Adobe Illustrator 19.0.0, SVG Export Plug-In . SVG Version: 6.00 Build 0)  -->
<svg version="1.1" id="Layer_1" xmlns="http://www.w3.org/2000/svg" xmlns:xlink="http://www.w3.org/1999/xlink" x="0px" y="0px"
	 viewBox="-4 377 40 40" style="enable-background:new -4 377 40 40;" xml:space="preserve">
<style type="text/css">
	.st0{fill:#FFFFFF;}
</style>
<g>
	<polygon class="st0" points="17.9,402.7 18.8,384.5 13.2,384.5 14.1,402.7 	"/>
	<path class="st0" d="M18.2,404.1c-0.5-0.6-1.3-1-2.2-1c-0.7,0-1.6,0.1-2.2,0.9c-0.5,0.6-0.7,1.3-0.7,2.2c0,0.7,0.1,1.6,0.7,2.3
		c0.5,0.6,1.2,0.9,2.2,0.9c0.9,0,1.7-0.4,2.2-1c0.4-0.6,0.7-1.4,0.7-2.2C18.9,405.5,18.7,404.8,18.2,404.1z"/>
</g>
</svg>
