<?xml version="1.0" encoding="utf-8"?>
<!-- Generator: Adobe Illustrator 19.0.0, SVG Export Plug-In . SVG Version: 6.00 Build 0)  -->
<svg version="1.1" id="Layer_1" xmlns="http://www.w3.org/2000/svg" xmlns:xlink="http://www.w3.org/1999/xlink" x="0px" y="0px"
	 viewBox="-887.3 512.2 56.6 56.6" style="enable-background:new -887.3 512.2 56.6 56.6;" xml:space="preserve">
<style type="text/css">
	.st0{fill:#777777;}
</style>
<g>
	<path class="st0" d="M-859,568c-15.2,0-27.5-12.3-27.5-27.5S-874.2,513-859,513s27.5,12.3,27.5,27.5S-843.8,568-859,568z
		 M-859,516.5c-13.3,0-24,10.7-24,24c0,13.3,10.7,24,24,24c13.3,0,24-10.7,24-24C-835,527.3-845.7,516.5-859,516.5z"/>
</g>
<g>
	<path class="st0" d="M-861.1,549.3c0-0.5,0-1,0-1.2c0-1.6,0.2-3,0.7-4.2c0.3-0.9,0.9-1.8,1.6-2.7c0.5-0.7,1.5-1.6,3-2.9
		c1.4-1.3,2.3-2.3,2.8-3c0.4-0.7,0.6-1.6,0.6-2.4c0-1.6-0.6-3-1.9-4.2c-1.2-1.2-2.8-1.8-4.6-1.8c-1.7,0-3.2,0.5-4.4,1.6
		c-1.2,1.1-1.9,2.8-2.3,5.1l-4.2-0.5c0.4-3.1,1.5-5.5,3.4-7.2s4.4-2.5,7.4-2.5c3.3,0,5.9,0.9,7.8,2.7c1.9,1.8,2.9,3.9,2.9,6.5
		c0,1.5-0.3,2.8-1,4c-0.7,1.2-2,2.7-4,4.5c-1.3,1.2-2.2,2.1-2.6,2.6c-0.4,0.6-0.7,1.2-0.9,1.9c-0.2,0.7-0.3,1.9-0.3,3.6H-861.1z
		 M-861.3,557.5v-4.7h4.7v4.7H-861.3z"/>
</g>
</svg>
