<?xml version="1.0" encoding="utf-8"?>
<!-- Generator: Adobe Illustrator 19.0.0, SVG Export Plug-In . SVG Version: 6.00 Build 0)  -->
<svg version="1.1" id="Capa_1" xmlns="http://www.w3.org/2000/svg" xmlns:xlink="http://www.w3.org/1999/xlink" x="0px" y="0px"
	 viewBox="-288 380.6 33.5 33.4" style="enable-background:new -288 380.6 33.5 33.4;" xml:space="preserve">
<style type="text/css">
	.st0{fill:#FFFFFF;}
</style>
<g>
	<path class="st0" d="M-258,396.7l-11.5-9.2c-0.2-0.2-0.4-0.2-0.5-0.2c-0.1,0.1-0.2,0.2-0.2,0.4v9.2c-0.1-0.1-0.1-0.2-0.2-0.2
		l-11.5-9.2c-0.2-0.2-0.4-0.2-0.5-0.2c-0.1,0.1-0.2,0.2-0.2,0.4v19.1c0,0.2,0.1,0.4,0.2,0.4c0.1,0.1,0.3,0,0.5-0.2l11.5-9.2
		c0.1-0.1,0.2-0.2,0.2-0.2v9.2c0,0.2,0.1,0.4,0.2,0.4c0.1,0.1,0.3,0,0.5-0.2l11.5-9.2c0.2-0.2,0.3-0.4,0.3-0.6
		C-257.7,397.1-257.8,396.9-258,396.7z"/>
</g>
</svg>
