<?xml version="1.0" encoding="utf-8"?>
<!-- Generator: Adobe Illustrator 19.0.0, SVG Export Plug-In . SVG Version: 6.00 Build 0)  -->
<svg version="1.1" id="Layer_1" xmlns="http://www.w3.org/2000/svg" xmlns:xlink="http://www.w3.org/1999/xlink" x="0px" y="0px"
	 viewBox="-280 372 50 50" style="enable-background:new -280 372 50 50;" xml:space="preserve">
<style type="text/css">
	.st0{opacity:0.3;fill:#231F20;}
</style>
<path id="XMLID_114_" class="st0" d="M-248.4,395.4v-4.8c0-0.6-0.5-1.3-1.3-1.3h-5.1v-6c0-2,1.5-3.6,3.4-3.6c2,0,3.8,1.7,3.8,3.6
	c0,0.6,0.5,1.3,1.2,1.3h4.8c0.6,0,1.2-0.5,1.2-1.3c0-5.9-5.1-10.9-11.1-10.9c-5.9,0-10.7,4.9-10.7,10.9v6h-5.1
	c-0.6,0-1.3,0.5-1.3,1.3v4.8c0,0.6,0.5,1.3,1.3,1.3h5.1v14c0,2-1.6,3.6-3.6,3.6c-2,0-3.6-1.6-3.6-3.6c0-0.6-0.5-1.3-1.2-1.3h-4.8
	c-0.6,0-1.2,0.5-1.2,1.3c0,6,4.9,10.9,10.9,10.9c3,0,5.7-1.2,7.8-3.3c2-2.1,3.1-4.8,3.1-7.6v-14h5.1
	C-249.1,396.6-248.4,396.2-248.4,395.4z M-265.7,418.9c-4.1,0-7.7-3.1-8.3-7.1h2.4c0.6,2.8,3.1,4.8,6,4.8c3.3,0,6.1-2.7,6.1-6.1
	v-15.2c0-0.6-0.5-1.3-1.3-1.3h-5.1v-2.2h5.1c0.6,0,1.3-0.5,1.3-1.3v-7.2c0-4.6,3.7-8.4,8.2-8.4c4.2,0,7.8,3.1,8.4,7.1h-2.4
	c-0.7-2.7-3.3-4.8-6.2-4.8c-3.3,0-5.9,2.7-5.9,6.2v7.2c0,0.6,0.5,1.3,1.3,1.3h5.1v2.2h-5.1c-0.6,0-1.3,0.5-1.3,1.3v15.2
	C-257.3,415.1-261.1,418.9-265.7,418.9z"/>
<path id="XMLID_117_" class="st0" d="M-234.9,405.6c-0.6-0.6-1.6-1-2.6-1c-1,0-1.9,0.4-2.6,1l-2.4,2.4l-2.4-2.4
	c-0.6-0.6-1.6-1-2.6-1c-1,0-1.9,0.4-2.6,1c-1.4,1.4-1.4,3.7,0,5.1l2.4,2.4l-2.4,2.4c-1.4,1.4-1.4,3.7,0,5.1c0.6,0.6,1.6,1,2.6,1
	c1,0,1.9-0.4,2.6-1l2.4-2.4l2.4,2.4c0.7,0.7,1.5,1,2.6,1c1,0,1.9-0.4,2.6-1c1.4-1.4,1.4-3.7,0-5.1l-2.4-2.4l2.4-2.4
	C-233.4,409.2-233.4,407-234.9,405.6z M-236.7,408.7l-3.3,3.3l-0.1,0.1c-0.1,0.2-0.2,0.5-0.2,0.8c0,0.2,0,0.6,0.3,0.9l3.3,3.3
	c0.4,0.4,0.4,1.1,0,1.4c-0.4,0.4-1.1,0.4-1.4,0l-3.3-3.3l-0.1-0.1c-0.2-0.1-0.5-0.2-0.8-0.2s-0.6,0.1-0.8,0.2l-3.4,3.4
	c-0.4,0.4-1.1,0.4-1.4,0c-0.4-0.4-0.4-1.1,0-1.4l3.3-3.3l0.1-0.1c0.1-0.2,0.2-0.5,0.2-0.8c0-0.2,0-0.6-0.3-0.9l-3.3-3.3
	c-0.4-0.4-0.4-1.1,0-1.4c0.2-0.2,0.4-0.3,0.7-0.3c0.3,0,0.5,0.1,0.7,0.3l3.3,3.3c0.5,0.5,1.4,0.5,1.8,0l3.3-3.3
	c0.4-0.4,1.1-0.4,1.4,0C-236.3,407.7-236.3,408.4-236.7,408.7z"/>
</svg>
