<?xml version="1.0" encoding="utf-8"?>
<!-- Generator: Adobe Illustrator 23.1.0, SVG Export Plug-In . SVG Version: 6.00 Build 0)  -->
<svg version="1.1" id="Layer_1" xmlns="http://www.w3.org/2000/svg" xmlns:xlink="http://www.w3.org/1999/xlink" x="0px" y="0px"
	 viewBox="0 0 58.2 58.2" style="enable-background:new 0 0 58.2 58.2;" xml:space="preserve">
<style type="text/css">
	.st0{fill:#F1F1F2;}
</style>
<g>
	<path class="st0" d="M29.1,58.2C13.1,58.2,0,45.2,0,29.1C0,13.1,13.1,0,29.1,0s29.1,13.1,29.1,29.1C58.2,45.2,45.2,58.2,29.1,58.2z
		 M29.1,3.3C14.9,3.3,3.3,14.9,3.3,29.1c0,14.2,11.6,25.8,25.8,25.8s25.8-11.6,25.8-25.8C54.9,14.9,43.3,3.3,29.1,3.3z"/>
</g>
<g>
	<polygon class="st0" points="24.8,42.2 12.4,29.7 15.6,26.5 25,36 44,19.5 47,22.9 	"/>
</g>
</svg>
