<?xml version="1.0" encoding="utf-8"?>
<!-- Generator: Adobe Illustrator 19.0.0, SVG Export Plug-In . SVG Version: 6.00 Build 0)  -->
<svg version="1.1" id="Layer_1" xmlns="http://www.w3.org/2000/svg" xmlns:xlink="http://www.w3.org/1999/xlink" x="0px" y="0px"
	 viewBox="-280 372 50 50" style="enable-background:new -280 372 50 50;" xml:space="preserve">
<style type="text/css">
	.st0{fill:none;stroke:#231F20;stroke-width:1.5;stroke-linecap:round;stroke-miterlimit:10;}
</style>
<g>
	<path class="st0" d="M-262,396.3v-11.7c0-1.3,1-2.3,2.3-2.3l0,0c1.3,0,2.3,1,2.3,2.3v9.9"/>
	<path class="st0" d="M-257.3,394.6v-12.2c0-1.3,1-2.3,2.3-2.3h0c1.3,0,2.3,1,2.3,2.3v12.4"/>
	<path class="st0" d="M-252.7,394.7v-11.4c0-1.3,1-2.3,2.3-2.3h0c1.3,0,2.3,1,2.3,2.3V396"/>
	<path class="st0" d="M-257.4,406.6v-1.3c0-4.7-4.6-4.8-4.6-4.8v-5.5c0-1.3-1-2.3-2.3-2.3l0,0c-1.3,0-2.3,1-2.3,2.3v8.1v0.7
		c0,6.3,5.2,11.4,11.7,11.4c6.4,0,11.7-5.1,11.7-11.4v-7.3v-7.7c0-1.3-1-2.3-2.3-2.3l0,0c-1.3,0-2.3,1-2.3,2.3v7.4"/>
</g>
</svg>
