<?xml version="1.0" encoding="utf-8"?>
<!-- Generator: Adobe Illustrator 19.0.0, SVG Export Plug-In . SVG Version: 6.00 Build 0)  -->
<svg version="1.1" id="Layer_1" xmlns="http://www.w3.org/2000/svg" xmlns:xlink="http://www.w3.org/1999/xlink" x="0px" y="0px"
	 viewBox="-934 516 50 50" style="enable-background:new -934 516 50 50;" xml:space="preserve">
<style type="text/css">
	.st0{fill:#FFFFFF;}
</style>
<g>
	<path class="st0" d="M-898.2,529.6c-3.5,0-6.8,1.6-9.3,4.2c1.1,1.5,2,3.1,2.7,5c1.5-2.3,3.8-4.1,6.6-4.1c3.8,0,6.9,3.1,6.9,6.9
		s-3.1,6.9-6.9,6.9c-3.8,0-7.1-3-8.1-7.5c-1.5-6.6-7-11.5-13.2-11.5c-6.6,0-12.1,5.4-12.1,12.1s5.4,12.1,12.1,12.1
		c3.6,0,6.8-1.6,9.3-4.2c-1.1-1.5-2-3.1-2.7-5c-1.6,2.5-4.1,4.1-6.6,4.1c-3.8,0-6.9-3.1-6.9-6.9s3.1-6.9,6.9-6.9
		c4.2,0,7.3,3.9,8.1,7.5c1.6,6.7,7,11.4,13.2,11.4c6.6,0,12.1-5.4,12.1-12.1S-891.6,529.6-898.2,529.6z"/>
</g>
</svg>
