<?xml version="1.0" encoding="utf-8"?>
<!-- Generator: Adobe Illustrator 19.0.0, SVG Export Plug-In . SVG Version: 6.00 Build 0)  -->
<svg version="1.1" id="Layer_1" xmlns="http://www.w3.org/2000/svg" xmlns:xlink="http://www.w3.org/1999/xlink" x="0px" y="0px"
	 viewBox="-934 516 50 50" style="enable-background:new -934 516 50 50;" xml:space="preserve">
<style type="text/css">
	.st0{fill:#FFFFFF;}
</style>
<g>
	<path class="st0" d="M-897.6,527.2c-3.8,0-7.4,1.7-10.1,4.6c1.2,1.6,2.2,3.4,2.9,5.4c1.6-2.5,4.1-4.4,7.2-4.4
		c4.1,0,7.5,3.4,7.5,7.5s-3.4,7.5-7.5,7.5c-4.1,0-7.7-3.3-8.8-8.1c-1.6-7.2-7.6-12.5-14.3-12.5c-7.2,0-13.1,5.9-13.1,13.1
		s5.9,13.1,13.1,13.1c3.9,0,7.4-1.7,10.1-4.6c-1.2-1.6-2.2-3.4-2.9-5.4c-1.7,2.7-4.4,4.4-7.2,4.4c-4.1,0-7.5-3.4-7.5-7.5
		s3.4-7.5,7.5-7.5c4.5,0,7.9,4.2,8.8,8.1c1.7,7.3,7.6,12.4,14.3,12.4c7.2,0,13.1-5.9,13.1-13.1S-890.4,527.2-897.6,527.2z"/>
</g>
</svg>
