<?xml version="1.0" encoding="utf-8"?>
<!-- Generator: Adobe Illustrator 23.1.0, SVG Export Plug-In . SVG Version: 6.00 Build 0)  -->
<svg version="1.1" id="Capa_1" xmlns="http://www.w3.org/2000/svg" xmlns:xlink="http://www.w3.org/1999/xlink" x="0px" y="0px"
	 viewBox="0 0 55 55" style="enable-background:new 0 0 55 55;" xml:space="preserve">
<style type="text/css">
	.st0{fill:#FFFFFF;}
</style>
<g>
	<g>
		<path class="st0" d="M50,10h-4.8v5.5c0,0.7-0.5,1.2-1.2,1.2H37c-0.7,0-1.2-0.5-1.2-1.2V10H19.3v5.5c0,0.7-0.5,1.2-1.2,1.2H11
			c-0.7,0-1.2-0.5-1.2-1.2V10H5c-0.5,0-0.9,0.4-0.9,0.9v33.3C4.1,44.6,4.5,45,5,45h4.8v-5.5c0-0.7,0.5-1.2,1.2-1.2H18
			c0.7,0,1.2,0.5,1.2,1.2V45h16.5v-5.5c0-0.7,0.5-1.2,1.2-1.2H44c0.7,0,1.2,0.5,1.2,1.2V45H50c0.5,0,0.9-0.4,0.9-0.9V10.8
			C50.9,10.4,50.5,10,50,10z M19.3,30.8c0,0.7-0.5,1.2-1.2,1.2H11c-0.7,0-1.2-0.5-1.2-1.2v-6.7c0-0.7,0.5-1.2,1.2-1.2H18
			c0.7,0,1.2,0.5,1.2,1.2V30.8L19.3,30.8z M45.3,30.8c0,0.7-0.5,1.2-1.2,1.2H37c-0.7,0-1.2-0.5-1.2-1.2v-6.7c0-0.7,0.5-1.2,1.2-1.2
			H44c0.7,0,1.2,0.5,1.2,1.2V30.8z"/>
	</g>
</g>
</svg>
