<?xml version="1.0" encoding="utf-8"?>
<!-- Generator: Adobe Illustrator 23.1.0, SVG Export Plug-In . SVG Version: 6.00 Build 0)  -->
<svg version="1.1" id="Capa_1" xmlns="http://www.w3.org/2000/svg" xmlns:xlink="http://www.w3.org/1999/xlink" x="0px" y="0px"
	 viewBox="0 0 55 55" style="enable-background:new 0 0 55 55;" xml:space="preserve">
<style type="text/css">
	.st0{fill:#FFFFFF;}
</style>
<g>
	<g>
		<path class="st0" d="M13.4,38.9c-1.4,0-2.5,0.5-3.4,1.4c-0.9,0.9-1.4,2.1-1.4,3.4c0,1.4,0.5,2.5,1.4,3.4c0.9,0.9,2.1,1.4,3.4,1.4
			c1.3,0,2.5-0.5,3.4-1.4c1-0.9,1.4-2.1,1.4-3.4c0-1.4-0.5-2.5-1.4-3.4C15.9,39.3,14.8,38.9,13.4,38.9z"/>
		<path class="st0" d="M12.4,28.6c0-1.5-0.5-2.8-1.6-3.8c-1.1-1.1-2.3-1.6-3.8-1.6c-1.5,0-2.8,0.5-3.8,1.6c-1.1,1.1-1.6,2.3-1.6,3.8
			c0,1.5,0.5,2.8,1.6,3.8C4.2,33.5,5.5,34,7,34c1.5,0,2.8-0.5,3.8-1.6C11.8,31.3,12.4,30.1,12.4,28.6z"/>
		<path class="st0" d="M43.7,16.1c0.7,0,1.4-0.3,1.9-0.8c0.5-0.5,0.8-1.2,0.8-1.9c0-0.7-0.3-1.4-0.8-1.9c-0.5-0.5-1.2-0.8-1.9-0.8
			c-0.7,0-1.4,0.3-1.9,0.8c-0.5,0.5-0.8,1.2-0.8,1.9c0,0.7,0.3,1.4,0.8,1.9C42.3,15.9,43,16.1,43.7,16.1z"/>
		<path class="st0" d="M13.4,7.5c-1.6,0-3,0.6-4.2,1.7c-1.2,1.2-1.7,2.6-1.7,4.2c0,1.6,0.6,3,1.7,4.2c1.2,1.2,2.6,1.7,4.2,1.7
			s3-0.6,4.2-1.7c1.2-1.2,1.7-2.6,1.7-4.2c0-1.6-0.6-3-1.7-4.2C16.5,8.1,15.1,7.5,13.4,7.5z"/>
		<path class="st0" d="M52.5,26.3c-0.6-0.6-1.4-0.9-2.3-0.9c-0.9,0-1.7,0.3-2.3,0.9c-0.6,0.6-0.9,1.4-0.9,2.3c0,0.9,0.3,1.7,0.9,2.3
			c0.6,0.6,1.4,0.9,2.3,0.9c0.9,0,1.7-0.3,2.3-0.9c0.6-0.6,0.9-1.4,0.9-2.3C53.4,27.7,53.1,26.9,52.5,26.3z"/>
		<path class="st0" d="M43.7,39.9c-1,0-1.9,0.4-2.7,1.1c-0.7,0.7-1.1,1.6-1.1,2.7c0,1,0.4,1.9,1.1,2.7c0.7,0.7,1.6,1.1,2.7,1.1
			c1,0,1.9-0.4,2.7-1.1c0.7-0.7,1.1-1.6,1.1-2.7c0-1-0.4-1.9-1.1-2.7C45.6,40.3,44.8,39.9,43.7,39.9z"/>
		<path class="st0" d="M28.6,45.9c-1.2,0-2.2,0.4-3.1,1.3c-0.8,0.8-1.3,1.9-1.3,3.1s0.4,2.2,1.3,3.1c0.8,0.8,1.9,1.3,3.1,1.3
			c1.2,0,2.2-0.4,3.1-1.3c0.8-0.8,1.3-1.9,1.3-3.1s-0.4-2.2-1.3-3.1S29.8,45.9,28.6,45.9z"/>
		<path class="st0" d="M28.6,0.5c-1.8,0-3.3,0.6-4.6,1.9c-1.3,1.3-1.9,2.8-1.9,4.6c0,1.8,0.6,3.3,1.9,4.6c1.3,1.3,2.8,1.9,4.6,1.9
			c1.8,0,3.3-0.6,4.6-1.9c1.3-1.3,1.9-2.8,1.9-4.6c0-1.8-0.6-3.3-1.9-4.6C31.9,1.1,30.4,0.5,28.6,0.5z"/>
	</g>
</g>
</svg>
