<?xml version="1.0" encoding="utf-8"?>
<!-- Generator: Adobe Illustrator 23.1.0, SVG Export Plug-In . SVG Version: 6.00 Build 0)  -->
<svg version="1.1" id="Layer_1" xmlns="http://www.w3.org/2000/svg" xmlns:xlink="http://www.w3.org/1999/xlink" x="0px" y="0px"
	 viewBox="0 0 100 100" style="enable-background:new 0 0 100 100;" xml:space="preserve">
<style type="text/css">
	.st0{opacity:0.2;fill:#FFFFFF;enable-background:new    ;}
	.st1{fill:#FFFFFF;}
</style>
<path class="st0" d="M50,12c21,0,38,17,38,38S71,88,50,88S12,71,12,50S29,12,50,12 M50,5C25.1,5,5,25.1,5,50s20.1,45,45,45
	s45-20.1,45-45S74.9,5,50,5L50,5z"/>
<g id="XMLID_62_">
	<path id="XMLID_9_" class="st1" d="M50,73.1c-12.8,0-23.1-10.4-23.1-23.2S37.4,26.9,50,26.9c0.9,0,1.7,0,2.6,0.1v-3.7
		c0-0.5,0.3-1,0.7-1.1c0.4-0.2,1-0.1,1.3,0.3l8.2,8.2c0.4,0.4,0.4,1.2,0,1.7l-8.2,8.2c-0.3,0.3-0.9,0.4-1.3,0.2
		c-0.4-0.2-0.7-0.6-0.7-1.1v-4.1c-0.9-0.1-1.7-0.2-2.6-0.2c-8.1,0-14.7,6.6-14.7,14.7c0,8,6.6,14.6,14.7,14.6S64.7,58.1,64.7,50
		c0-0.6,0.5-1.2,1.2-1.2h6.1c0.6,0,1.2,0.5,1.2,1.2C73.1,62.7,62.8,73.1,50,73.1z"/>
</g>
</svg>
