<?xml version="1.0" encoding="utf-8"?>
<!-- Generator: Adobe Illustrator 19.0.0, SVG Export Plug-In . SVG Version: 6.00 Build 0)  -->
<svg version="1.1" id="Capa_1" xmlns="http://www.w3.org/2000/svg" xmlns:xlink="http://www.w3.org/1999/xlink" x="0px" y="0px"
	 viewBox="-24 26 50 50" style="enable-background:new -24 26 50 50;" xml:space="preserve">
<style type="text/css">
	.st0{fill:#CCCBCB;}
</style>
<g id="XMLID_62_">
	<path id="XMLID_9_" class="st0" d="M0.8,75c-12,0-21.7-9.8-21.7-21.8c0-12,9.8-21.7,21.7-21.7c0.8,0,1.6,0,2.4,0.1v-3.5
		c0-0.5,0.3-0.9,0.7-1c0.4-0.2,0.9-0.1,1.2,0.3l7.7,7.7c0.4,0.4,0.4,1.1,0,1.6l-7.7,7.7c-0.3,0.3-0.8,0.4-1.2,0.2
		c-0.4-0.2-0.7-0.6-0.7-1v-3.9c-0.8-0.1-1.6-0.2-2.4-0.2c-7.6,0-13.8,6.2-13.8,13.8C-13,60.8-6.8,67,0.8,67s13.8-6.2,13.8-13.8
		c0-0.6,0.5-1.1,1.1-1.1h5.7c0.6,0,1.1,0.5,1.1,1.1C22.5,65.2,12.8,75,0.8,75z"/>
</g>
</svg>
