<?xml version="1.0" encoding="utf-8"?>
<!-- Generator: Adobe Illustrator 19.0.0, SVG Export Plug-In . SVG Version: 6.00 Build 0)  -->
<svg version="1.1" id="Layer_1" xmlns="http://www.w3.org/2000/svg" xmlns:xlink="http://www.w3.org/1999/xlink" x="0px" y="0px"
	 viewBox="-4 377 40 40" style="enable-background:new -4 377 40 40;" xml:space="preserve">
<style type="text/css">
	.st0{fill:#FFFFFF;}
</style>
<g>
	<path class="st0" d="M5.3,389.4c-0.1,1.3-0.8,1.6-3,1.7l-0.7,0v2.8h3.2V405H8v-16.4H5.3L5.3,389.4z"/>
	<path class="st0" d="M13.8,400.7l2.1-1.8c1.8-1.5,2.9-2.9,2.9-5.5c0-2.2-1.2-4.8-4.8-4.8c-3.2,0-5,1.9-5,5.5v0.8h3.4v-0.8
		c0-2.5,1.2-2.5,1.6-2.5c1.3,0,1.4,1.5,1.4,2c0,1.3-0.6,2-1.7,3l-1.2,1c-1.5,1.3-3.5,3.4-3.5,6.7v0.8h9.1h0.6v-0.8v-2.5h-6
		C13,401.4,13.4,401,13.8,400.7z"/>
	<path class="st0" d="M27.5,396.4c0.8-0.7,1.3-1.8,1.3-3.1c0-2.9-1.7-4.6-4.5-4.6c-3,0-4.8,1.9-4.8,5.1v0.8h3.4v-0.8
		c0-1.8,0.5-2.2,1.4-2.2c0.3,0,1.1,0,1.1,1.8c0,1.9-1.2,1.9-1.5,1.9h-1.3v2.9h1.6c1.3,0,2,0.6,2,2c0,2.4-1.2,2.4-1.6,2.4
		c-1.6,0-1.7-1.8-1.7-2.2v-0.8h-3.4v1c0,1.8,1,4.8,5,4.8c3.1,0,5-2,5-5.3C29.3,398.3,28.6,397.1,27.5,396.4z"/>
</g>
</svg>
