<?xml version="1.0" encoding="utf-8"?>
<!-- Generator: Adobe Illustrator 19.0.0, SVG Export Plug-In . SVG Version: 6.00 Build 0)  -->
<svg version="1.1" id="Layer_1" xmlns="http://www.w3.org/2000/svg" xmlns:xlink="http://www.w3.org/1999/xlink" x="0px" y="0px"
	 viewBox="-268 359 75 75" style="enable-background:new -268 359 75 75;" xml:space="preserve">
<style type="text/css">
	.st0{fill:#E2E3E4;stroke:#231F20;stroke-width:2;stroke-miterlimit:10;}
</style>
<path class="st0" d="M-233.1,385.5l-6.8-6.8c-0.4-0.4-1-0.6-1.5-0.6h-12.8c-0.9,0-1.6,0.7-1.6,1.6v32.1c0,0.9,0.7,1.6,1.6,1.6h42.9
	c0.9,0,1.6-0.7,1.6-1.6v-23.4c0-1.2-1-2.2-2.2-2.2h-19.6C-232.2,386.2-232.7,385.9-233.1,385.5z"/>
<path class="st0" d="M-210.5,413.4h-43.9c-0.7,0-1.2-0.7-0.9-1.4l6.3-15.8c0.3-0.8,1.1-1.3,2-1.3h42.8c0.9,0,1.5,0.9,1.2,1.7
	l-6.5,16.2C-209.7,413.1-210.1,413.4-210.5,413.4z"/>
</svg>
