<?xml version="1.0" encoding="utf-8"?>
<!-- Generator: Adobe Illustrator 19.0.0, SVG Export Plug-In . SVG Version: 6.00 Build 0)  -->
<svg version="1.1" id="Layer_1" xmlns="http://www.w3.org/2000/svg" xmlns:xlink="http://www.w3.org/1999/xlink" x="0px" y="0px"
	 viewBox="-4 377 40 40" style="enable-background:new -4 377 40 40;" xml:space="preserve">
<style type="text/css">
	.st0{fill:#FFFFFF;}
</style>
<g>
	<path class="st0" d="M10.5,397.6c3,0,5.3-2.9,5.3-6.5s-2.3-6.5-5.3-6.5c-2.9,0-5.3,2.9-5.3,6.5S7.6,397.6,10.5,397.6z M10.5,388.6
		c0.5,0,1.3,1.1,1.3,2.5s-0.8,2.5-1.3,2.5s-1.3-1.1-1.3-2.5S10,388.6,10.5,388.6z"/>
	
		<rect x="2.6" y="395.2" transform="matrix(0.5381 -0.8429 0.8429 0.5381 -327.4884 196.8774)" class="st0" width="26.5" height="4"/>
	<path class="st0" d="M21.5,396.4c-2.9,0-5.3,2.9-5.3,6.5s2.4,6.5,5.3,6.5c3,0,5.3-2.9,5.3-6.5C26.8,399.3,24.5,396.4,21.5,396.4z
		 M21.5,405.4c-0.5,0-1.3-1.1-1.3-2.5s0.8-2.5,1.3-2.5c0.6,0,1.3,1.1,1.3,2.5C22.8,404.3,22,405.4,21.5,405.4z"/>
</g>
</svg>
