<?xml version="1.0" encoding="utf-8"?>
<!-- Generator: Adobe Illustrator 19.0.0, SVG Export Plug-In . SVG Version: 6.00 Build 0)  -->
<svg version="1.1" id="Layer_1" xmlns="http://www.w3.org/2000/svg" xmlns:xlink="http://www.w3.org/1999/xlink" x="0px" y="0px"
	 viewBox="-4 377 40 40" style="enable-background:new -4 377 40 40;" xml:space="preserve">
<style type="text/css">
	.st0{fill:#FFFFFF;}
</style>
<path class="st0" d="M25.1,388.4c-0.2-0.4-0.5-0.6-1-0.6H8c-0.6,0-1.1,0.5-1.1,1.1v2.3c0,0.6,0.5,1.1,1.1,1.1h1.9
	c0,5.2-0.5,11.1-1.3,12c-0.2,0.2-0.3,0.5-0.3,0.7c0,0.3,0.1,0.5,0.3,0.7c0.2,0.2,0.4,0.4,0.8,0.4h2.3c0.2,0,0.3-0.1,0.4-0.1h0.2
	l0.2-0.3c1.5-1.8,1.7-9.6,1.8-13.5h3.1v10.4c0,1.9,1.5,3.5,3.5,3.5h2.3c0.4,0,0.7-0.3,0.8-0.4c0.3-0.3,0.3-0.7,0.3-0.8l-0.9-2.6
	c-0.2-0.5-0.6-0.7-1.1-0.7H22v-9.3h2c0.6,0,1.1-0.5,1.1-1.1v-2.1C25.2,388.9,25.2,388.6,25.1,388.4z"/>
</svg>
