<?xml version="1.0" encoding="utf-8"?>
<!-- Generator: Adobe Illustrator 19.0.0, SVG Export Plug-In . SVG Version: 6.00 Build 0)  -->
<svg version="1.1" id="Capa_1" xmlns="http://www.w3.org/2000/svg" xmlns:xlink="http://www.w3.org/1999/xlink" x="0px" y="0px"
	 viewBox="-268 359 75 75" style="enable-background:new -268 359 75 75;" xml:space="preserve">
<style type="text/css">
	.st0{fill:#E2E3E4;}
	.st1{fill:#231F20;}
	.st2{fill:#E2E3E4;stroke:#231F20;stroke-width:2.0762;stroke-miterlimit:10;}
</style>
<path class="st0" d="M-224.5,398c0.9,0,1.8,0.1,2.7,0.2l8.6-4.9l-16.7-9.6l-16.6-9.8v19.4v19.4l7-4.1
	C-237.3,402.4-231.4,398-224.5,398z"/>
<path class="st1" d="M-238.8,407l-6.6,3.9v-35.2l15,8.9l15.1,8.7l-8.3,4.7c1.1,0.1,2.2,0.2,3.3,0.5l9.2-5.3l-18.3-10.5l-18.2-10.7
	v42.4l7.6-4.5C-239.7,409-239.3,407.9-238.8,407z"/>
<circle class="st2" cx="-224.5" cy="414" r="11.8"/>
<polyline class="st2" points="-224.5,406 -224.5,414 -228.6,418.1 "/>
</svg>
