<?xml version="1.0" encoding="utf-8"?>
<!-- Generator: Adobe Illustrator 19.0.0, SVG Export Plug-In . SVG Version: 6.00 Build 0)  -->
<svg version="1.1" id="Layer_1" xmlns="http://www.w3.org/2000/svg" xmlns:xlink="http://www.w3.org/1999/xlink" x="0px" y="0px"
	 viewBox="0 0 50 50" style="enable-background:new 0 0 50 50;" xml:space="preserve">
<style type="text/css">
	.st0{fill:#FFFFFF;enable-background:new    ;}
</style>
<path id="XMLID_22_" class="st0" d="M23.4,7.5c-6.8,0.8-12,6.7-11.9,13.5c0,3.3,1.4,5.9,3.2,8.7l4.6,6.6l4.5,6.5
	c0.6,0.9,2,0.9,2.6,0l4.5-6.5l4.6-6.6c1.9-2.9,3.2-5.4,3.2-8.7C38.5,12.9,31.6,6.5,23.4,7.5z M26,28.5c-5,0.6-9.2-3.6-8.6-8.6
	c0.4-3.4,3.2-6.2,6.6-6.6c5-0.6,9.2,3.6,8.6,8.6C32.2,25.3,29.4,28.1,26,28.5z"/>
</svg>
