<?xml version="1.0" encoding="utf-8"?>
<!-- Generator: Adobe Illustrator 19.0.0, SVG Export Plug-In . SVG Version: 6.00 Build 0)  -->
<svg version="1.1" id="Layer_1" xmlns="http://www.w3.org/2000/svg" xmlns:xlink="http://www.w3.org/1999/xlink" x="0px" y="0px"
	 viewBox="-280 372 50 50" style="enable-background:new -280 372 50 50;" xml:space="preserve">
<style type="text/css">
	.st0{opacity:0.3;fill:#231F20;}
</style>
<path id="XMLID_127_" class="st0" d="M-255,373.1c-2.9,0-5.6,0.5-8.1,1.4c-0.8,0.3-1.2,1.2-0.9,2c0.3,0.8,1.2,1.2,2,0.9
	c2.2-0.8,4.5-1.2,7-1.2c11.5,0,20.9,9.4,20.9,20.9s-9.4,20.9-20.9,20.9s-20.9-9.4-20.9-20.9c0-2.3,0.4-4.6,1.1-6.9
	c0.3-0.8-0.2-1.7-1-2s-1.7,0.2-2,1c-0.8,2.6-1.2,5.2-1.2,7.8c0,13.2,10.8,24,24,24s24-10.8,24-24S-241.8,373.1-255,373.1z"/>
<path id="XMLID_128_" class="st0" d="M-267.5,387.6l10.4,12.4c1.4,1.5,3.6,1.7,5,0.4c0.5-0.4,0.8-0.8,1-1.3c0.5-1.2,0.4-2.6-0.6-3.7
	c-0.2-0.2-0.4-0.4-0.6-0.6l-12.8-9.6l-4.8-3.7l-3-2.3c-0.4-0.3-0.8,0-0.9,0.3c-0.1,0.2-0.1,0.4,0.1,0.6l2.5,3L-267.5,387.6z"/>
</svg>
