<?xml version="1.0" encoding="utf-8"?>
<!-- Generator: Adobe Illustrator 19.0.0, SVG Export Plug-In . SVG Version: 6.00 Build 0)  -->
<svg version="1.1" id="Layer_1" xmlns="http://www.w3.org/2000/svg" xmlns:xlink="http://www.w3.org/1999/xlink" x="0px" y="0px"
	 viewBox="-280 372 50 50" style="enable-background:new -280 372 50 50;" xml:space="preserve">
<style type="text/css">
	.st0{fill:#FFFFFF;}
</style>
<path class="st0" d="M-239.1,388.4l-8.6,8.7h6.3c0,7.4-5.8,13.4-13,13.4c-3.3,0-6.4-1.2-8.7-3.3l-4,3.7c3.3,3,7.6,4.8,12.3,4.6
	c10-0.1,18.2-8.3,18.1-18.6h6.3L-239.1,388.4z"/>
<g>
	<path class="st0" d="M-263.2,385.8c0.8-0.6,1.6-1.1,2.5-1.5l-1.6-4.4c-1.4,0.6-2.7,1.4-3.9,2.3L-263.2,385.8z"/>
	<path class="st0" d="M-260.4,379.3l1.6,4.5c0.9-0.2,1.9-0.4,2.8-0.4v-4.9C-257.5,378.6-259,378.8-260.4,379.3z"/>
	<path class="st0" d="M-266.5,389.4c0.5-0.8,1.1-1.6,1.8-2.3l-3-3.6c-1.1,1-2,2.2-2.8,3.5L-266.5,389.4z"/>
	<path class="st0" d="M-247.6,380l-1.8,4.9c0.9,0.5,1.7,1.1,2.5,1.7l4-3.6C-244.3,381.8-245.9,380.7-247.6,380z"/>
	<path class="st0" d="M-268.3,393.9c0.2-0.9,0.5-1.8,0.9-2.7l-4-2.3c-0.6,1.3-1.1,2.7-1.4,4.2L-268.3,393.9z"/>
	<path class="st0" d="M-268.6,395.8l-4.7-0.8c-0.1,0.7-0.1,1.3-0.1,2h-6.3l8.7,8.6l8.6-8.9h-6.3
		C-268.6,396.4-268.6,396.1-268.6,395.8z"/>
	<path class="st0" d="M-253.9,378.4v5c0.9,0.1,1.8,0.3,2.7,0.6l1.8-4.9C-250.9,378.8-252.4,378.5-253.9,378.4z"/>
</g>
</svg>
