<?xml version="1.0" encoding="utf-8"?>
<!-- Generator: Adobe Illustrator 19.0.0, SVG Export Plug-In . SVG Version: 6.00 Build 0)  -->
<svg version="1.1" id="Layer_1" xmlns="http://www.w3.org/2000/svg" xmlns:xlink="http://www.w3.org/1999/xlink" x="0px" y="0px"
	 viewBox="-280 372 50 50" style="enable-background:new -280 372 50 50;" xml:space="preserve">
<style type="text/css">
	.st0{fill:#B8BABC;}
</style>
<g>
	<path class="st0" d="M-230.4,398.5h-6.4c-0.2,1.5-0.6,2.9-1.1,4.3l5.5,3.2C-231.3,403.7-230.6,401.1-230.4,398.5z"/>
	<path class="st0" d="M-237.9,390.7c0.6,1.3,1,2.8,1.1,4.3h6.4c-0.2-2.7-0.9-5.2-2-7.5L-237.9,390.7z"/>
	<path class="st0" d="M-245.7,410.6c-1.3,0.6-2.8,1-4.3,1.1v6.4c2.7-0.2,5.2-0.9,7.5-2L-245.7,410.6z"/>
	<path class="st0" d="M-253.5,418.2v-6.4c-1.5-0.2-2.9-0.6-4.3-1.2l-3.2,5.5C-258.6,417.3-256.1,417.9-253.5,418.2z"/>
	<path class="st0" d="M-242.8,384.6c1.2,0.9,2.2,1.9,3.1,3.1l5.5-3.2c-1.5-2.1-3.3-4-5.5-5.5L-242.8,384.6z"/>
	<path class="st0" d="M-239.6,405.8c-0.9,1.2-1.9,2.2-3.1,3.1l3.2,5.5c2.1-1.5,4-3.3,5.5-5.5L-239.6,405.8z"/>
	<path class="st0" d="M-261.3,396.6h-5.6c0.1-8.3,6.8-15,15.1-15c2.1,0,4.2,0.5,6,1.3l3.2-5.5c-2.8-1.3-5.9-2.1-9.2-2.1
		c-11.8,0-21.4,9.6-21.5,21.3h-5.7c-0.7,0-1.1,0.9-0.5,1.4l9.6,9l9.2-9C-260.2,397.5-260.6,396.6-261.3,396.6z"/>
</g>
</svg>
