<?xml version="1.0" encoding="utf-8"?>
<!-- Generator: Adobe Illustrator 23.0.6, SVG Export Plug-In . SVG Version: 6.00 Build 0)  -->
<svg version="1.1" id="Capa_1" xmlns="http://www.w3.org/2000/svg" xmlns:xlink="http://www.w3.org/1999/xlink" x="0px" y="0px"
	 viewBox="0 0 25 25" style="enable-background:new 0 0 25 25;" xml:space="preserve">
<style type="text/css">
	.st0{fill:#FFFFFF;}
</style>
<g>
	<path class="st0" d="M4.5,20.2c4.4,4.4,11.6,4.4,16,0s4.4-11.6,0-16l0,0l2.7-2.7l-7.6,0l0,7.6l2.7-2.7l0,0l0,0
		c3.2,3.2,3.2,8.4,0,11.5c-3.2,3.2-8.4,3.2-11.5,0c-3.2-3.2-3.2-8.4,0-11.5c0.6-0.6,1.4-1.1,2.1-1.5V1.5C7.3,2,5.8,2.9,4.5,4.2
		C0.1,8.6,0.1,15.8,4.5,20.2z"/>
</g>
</svg>
