<?xml version="1.0" encoding="utf-8"?>
<!-- Generator: Adobe Illustrator 19.0.0, SVG Export Plug-In . SVG Version: 6.00 Build 0)  -->
<svg version="1.1" id="Layer_1" xmlns="http://www.w3.org/2000/svg" xmlns:xlink="http://www.w3.org/1999/xlink" x="0px" y="0px"
	 viewBox="-268 359 75 75" style="enable-background:new -268 359 75 75;" xml:space="preserve">
<style type="text/css">
	.st0{fill:#E2E3E4;}
	.st1{fill:none;stroke:#231F20;stroke-width:2;stroke-miterlimit:10;}
	.st2{fill:#E2E3E4;stroke:#231F20;stroke-width:2;stroke-miterlimit:10;}
</style>
<path class="st0" d="M-210.1,371.5h-38.3c-4.1,0-7.5,3.4-7.5,7.5v0c0,4.1,3.4,7.5,7.5,7.5h38.3C-210.1,386.5-214.4,380-210.1,371.5z
	"/>
<path class="st1" d="M-209.1,371.5h-39.3c-4.1,0-7.5,3.4-7.5,7.5v0c0,4.1,3.4,7.5,7.5,7.5h39.3"/>
<path class="st0" d="M-210.1,388.5h-38.3c-4.1,0-7.5,3.4-7.5,7.5l0,0c0,4.1,3.4,7.5,7.5,7.5h38.3
	C-210.1,403.5-214.5,397-210.1,388.5z"/>
<path class="st1" d="M-209.1,388.5h-39.3c-4.1,0-7.5,3.4-7.5,7.5l0,0c0,4.1,3.4,7.5,7.5,7.5h39.3"/>
<path class="st0" d="M-210.1,405.5h-38.3c-4.1,0-7.5,3.4-7.5,7.5l0,0c0,4.1,3.4,7.5,7.5,7.5h38.3
	C-210.1,420.5-214.5,414-210.1,405.5z"/>
<path class="st1" d="M-209.1,405.5h-39.3c-4.1,0-7.5,3.4-7.5,7.5l0,0c0,4.1,3.4,7.5,7.5,7.5h39.3"/>
<path class="st2" d="M-211,396.6h-19.2c-1.6,0-2.8,1.2-2.8,2.8v22.4c0,1.6,1.2,2.8,2.8,2.8h22.4c1.6,0,2.8-1.2,2.8-2.8v-19.2
	L-211,396.6z"/>
<path class="st2" d="M-211.7,424.6h-14.7v-6c0-1.4,1.2-2.6,2.6-2.6h9.5c1.4,0,2.6,1.2,2.6,2.6V424.6z"/>
<path class="st2" d="M-223.1,396.6h8.2v6.1c0,1.4-1.2,2.6-2.6,2.6h-3c-1.4,0-2.6-1.2-2.6-2.6V396.6z"/>
</svg>
