<?xml version="1.0" encoding="utf-8"?>
<!-- Generator: Adobe Illustrator 19.0.0, SVG Export Plug-In . SVG Version: 6.00 Build 0)  -->
<svg version="1.1" id="Layer_1" xmlns="http://www.w3.org/2000/svg" xmlns:xlink="http://www.w3.org/1999/xlink" x="0px" y="0px"
	 viewBox="-268 359 75 75" style="enable-background:new -268 359 75 75;" xml:space="preserve">
<style type="text/css">
	.st0{fill:#E2E3E4;stroke:#231F20;stroke-width:2;stroke-miterlimit:10;}
</style>
<path class="st0" d="M-218.1,374.9h-29.7c-2.4,0-4.3,1.9-4.3,4.3v34.6c0,2.4,1.9,4.3,4.3,4.3h34.6c2.4,0,4.3-1.9,4.3-4.3v-29.7
	L-218.1,374.9z"/>
<path class="st0" d="M-219.2,418.1h-22.7v-9.3c0-2.2,1.8-4,4-4h14.7c2.2,0,4,1.8,4,4V418.1z"/>
<path class="st0" d="M-236.8,374.9h12.6v9.4c0,2.2-1.8,4-4,4h-4.6c-2.2,0-4-1.8-4-4V374.9z"/>
</svg>
