<?xml version="1.0" encoding="utf-8"?>
<!-- Generator: Adobe Illustrator 23.0.6, SVG Export Plug-In . SVG Version: 6.00 Build 0)  -->
<svg version="1.1" id="Capa_1" xmlns="http://www.w3.org/2000/svg" xmlns:xlink="http://www.w3.org/1999/xlink" x="0px" y="0px"
	 viewBox="0 0 25 25" style="enable-background:new 0 0 25 25;" xml:space="preserve">
<style type="text/css">
	.st0{fill:#FFFFFF;}
</style>
<path class="st0" d="M18.4,13.5c-2.7,0-4.9,2.2-4.9,4.9s2.2,4.8,4.9,4.8s4.8-2.2,4.8-4.8S21.1,13.5,18.4,13.5z M20.7,20.1l-2.3-2.3
	l-2.3,2.3l-0.9-0.9l3.2-3.2l3.2,3.2L20.7,20.1z"/>
<g>
	<g>
		<path class="st0" d="M11.9,18.4c0-0.2,0-0.3,0-0.5c-2.7-0.4-4.8-2.6-4.8-5.3c0-3,2.5-5.4,5.4-5.4c2.7,0,5,2.1,5.3,4.7
			c0.2,0,0.4,0,0.6,0c2.1,0,4,1,5.2,2.6c0.1-0.1,0.3-0.3,0.3-0.5c0-0.1,0-0.2,0-0.2v-2c0-0.6-0.3-1-0.8-1.1l-1.9-0.3
			c-0.2-0.8-0.5-1.5-0.9-2.2l1.2-1.7c0.2-0.4,0.2-0.9-0.1-1.2l-1.5-1.6c-0.2-0.2-0.4-0.3-0.6-0.3c-0.2,0-0.4,0.1-0.6,0.2L17,4.8
			c-0.6-0.4-1.4-0.6-2.2-0.9L14.5,2c-0.1-0.5-0.5-0.8-1-0.8h-2c-0.5,0-0.9,0.3-1,0.8l-0.4,1.9c-0.6,0.2-1.5,0.5-2,0.9L6.4,3.7
			C6.3,3.5,6,3.5,5.9,3.5c-0.2,0-0.5,0.1-0.6,0.3L3.7,5.2C3.5,5.7,3.4,6.1,3.6,6.5l1.2,1.7c-0.4,0.6-0.6,1.3-0.9,2L2,10.5
			c-0.5,0.1-0.8,0.5-0.8,1v2c0,0.5,0.3,0.9,0.8,1l1.9,0.3c0.2,0.6,0.5,1.5,0.9,2l-1.2,1.7c-0.2,0.4-0.2,0.9,0.1,1.2l1.5,1.5
			c0.2,0.2,0.4,0.3,0.6,0.3c0.2,0,0.4-0.1,0.6-0.2l1.7-1.2c0.6,0.4,1.4,0.6,2,0.8l0.3,1.9c0.1,0.5,0.5,0.8,1,0.8h2
			c0.3,0,0.6-0.1,0.7-0.3C12.8,22.3,11.9,20.4,11.9,18.4z"/>
	</g>
</g>
</svg>
