<?xml version="1.0" encoding="utf-8"?>
<!-- Generator: Adobe Illustrator 19.0.0, SVG Export Plug-In . SVG Version: 6.00 Build 0)  -->
<svg version="1.1" id="Layer_1" xmlns="http://www.w3.org/2000/svg" xmlns:xlink="http://www.w3.org/1999/xlink" x="0px" y="0px"
	 viewBox="-280 372 50 50" style="enable-background:new -280 372 50 50;" xml:space="preserve">
<style type="text/css">
	.st0{fill:#FFFFFF;}
</style>
<path class="st0" d="M-519.1,760.4l-8.6,8.7h6.3c0,7.4-5.8,13.4-13,13.4c-3.3,0-6.4-1.2-8.7-3.3l-4,3.7c3.3,3,7.6,4.8,12.3,4.6
	c10-0.1,18.2-8.3,18.1-18.6h6.3L-519.1,760.4z"/>
<path class="st0" d="M-550.9,777.6l8.6-8.9h-6.3c0-7.4,5.8-13.4,13-13.4c3.3,0,6.4,1.2,8.7,3.3l4-3.6c-3.3-3-7.6-4.8-12.3-4.6
	c-10,0.1-18.2,8.3-18.1,18.6h-6.3L-550.9,777.6z"/>
<rect x="-273.1" y="400.7" class="st0" width="14.4" height="11" shape-rendering="crispEdges"/>
<rect x="-251.3" y="400.7" class="st0" width="14.4" height="11" shape-rendering="crispEdges"/>
<rect x="-273.1" y="382.3" class="st0" width="14.4" height="11" shape-rendering="crispEdges"/>
<rect x="-251.3" y="382.3" class="st0" width="14.4" height="11" shape-rendering="crispEdges"/>
</svg>
