<?xml version="1.0" encoding="utf-8"?>
<!-- Generator: Adobe Illustrator 19.0.0, SVG Export Plug-In . SVG Version: 6.00 Build 0)  -->
<svg version="1.1" id="Layer_1" xmlns="http://www.w3.org/2000/svg" xmlns:xlink="http://www.w3.org/1999/xlink" x="0px" y="0px"
	 viewBox="0 0 50 50" style="enable-background:new 0 0 50 50;" xml:space="preserve">
<style type="text/css">
	.st0{fill:#FFFFFF;enable-background:new    ;}
	.st1{enable-background:new    ;}
	.st2{fill:#FFFFFF;}
</style>
<g id="XMLID_19_">
	<path id="XMLID_102_" class="st0" d="M31.7,12.8c-0.2-0.2-0.5-0.3-0.8-0.3c-0.3,0-0.7,0.2-0.9,0.6l-1.5,3.1L20,33.4
		c-0.8,1.8-0.1,3.9,1.7,4.7c0.5,0.2,1,0.3,1.6,0.3c1.4,0,2.5-0.7,3.2-2.1l0.2-0.7L29.9,22l2-8.4C31.9,13.4,31.8,13.1,31.7,12.8z
		 M24.5,34.8c0,0.6-0.5,1.1-1.1,1.1c-0.6,0-1.1-0.5-1.1-1.1s0.5-1.1,1.1-1.1C24,33.7,24.5,34.3,24.5,34.8z"/>
	<g id="XMLID_30_" class="st1">
		<path id="XMLID_32_" class="st2" d="M22.7,21c0.2,0,0.4,0,0.5,0c0.3,0,0.7-0.2,0.8-0.5l1.9-4c0.3-0.6-0.1-1.3-0.8-1.3
			c-0.1,0-0.1,0-0.2,0C14.2,15.3,5.5,24,5.5,34.8c0,1,0.1,2,0.2,2.9c0.1,0.4,0.4,0.7,0.9,0.7h0c0.5,0,0.9-0.4,0.9-1
			c0-0.4-0.1-0.8-0.1-1.3C7.4,27.9,14.3,21,22.7,21z"/>
		<path id="XMLID_31_" class="st2" d="M32.9,18.2l-1.2,5.2c-0.1,0.3,0.1,0.7,0.3,0.9c3.5,2.8,5.8,7.1,5.8,12c0,0.4,0,0.9-0.1,1.3
			c0,0.5,0.4,1,0.9,1h4.7c0.4,0,0.8-0.3,0.9-0.7c0.1-1,0.2-1.9,0.2-2.9c0-7.4-4.1-13.9-10.3-17.2C33.7,17.4,33.1,17.7,32.9,18.2z"/>
	</g>
</g>
</svg>
