<?xml version="1.0" encoding="utf-8"?>
<!-- Generator: Adobe Illustrator 19.0.0, SVG Export Plug-In . SVG Version: 6.00 Build 0)  -->
<svg version="1.1" id="Capa_1" xmlns="http://www.w3.org/2000/svg" xmlns:xlink="http://www.w3.org/1999/xlink" x="0px" y="0px"
	 viewBox="-280 372 50 50" style="enable-background:new -280 372 50 50;" xml:space="preserve">
<style type="text/css">
	.st0{opacity:0.3;fill:#231F20;}
	.st1{opacity:0.3;fill:#231F20;stroke:#FFFFFF;stroke-width:2;stroke-miterlimit:10;}
	.st2{opacity:0.3;}
	.st3{fill:#231F20;}
</style>
<path id="XMLID_102_" class="st0" d="M-246.9,372.4c-0.2-0.3-0.6-0.4-1-0.4s-0.9,0.2-1.1,0.7l-1.9,3.9l-10.7,21.7
	c-1,2.3-0.1,4.9,2.1,5.9c0.6,0.3,1.2,0.4,2,0.4c1.7,0,3.2-0.9,4-2.6l0.3-0.9l4-17.1l2.5-10.6C-246.6,373.1-246.7,372.7-246.9,372.4z
	 M-256,400.1c0,0.8-0.6,1.4-1.4,1.4s-1.4-0.6-1.4-1.4s0.6-1.4,1.4-1.4C-256.6,398.7-256,399.4-256,400.1z"/>
<path class="st1" d="M-257.4,368.8"/>
<path class="st1" d="M-257.4,400.1"/>
<g class="st2">
	<path class="st3" d="M-272.8,389.3c1.4-1.7,3-3.1,4.8-4.3c0.3-0.2,0.4-0.6,0.2-0.9l-1.6-2.7c-0.2-0.4-0.7-0.5-1-0.2
		c-2.2,1.8-4,3.9-5.5,6.3c-0.2,0.3-0.1,0.8,0.3,1l1.8,1.1C-273.4,389.7-273.1,389.6-272.8,389.3z"/>
	<path class="st3" d="M-276.8,398.5c0.3-2.3,1.1-4.5,2.1-6.4c0.2-0.3,0.1-0.7-0.3-0.9l-1.5-0.9c-0.4-0.2-0.8-0.1-1,0.3
		c-1,2.4-1.7,5-1.9,7.8c0,0.4,0.3,0.7,0.7,0.7h1.1C-277.1,399.1-276.9,398.8-276.8,398.5z"/>
	<path class="st3" d="M-278.4,404.8h0.9c0.4,0,0.8-0.4,0.7-0.8c-0.1-0.9-0.2-1.8-0.2-2.8c0,0,0-0.1,0-0.1h-1.6
		c-0.4,0-0.7,0.3-0.7,0.7c0,0.8,0.1,1.6,0.2,2.4C-279,404.5-278.7,404.8-278.4,404.8z"/>
	<path class="st3" d="M-265.9,383.3c0.2,0.3,0.5,0.4,0.9,0.3c2.1-0.8,4.5-1.3,6.9-1.3c0.6,0,1.2,0,1.8,0.1c0.3,0,0.6-0.1,0.7-0.4
		l2.6-5.3c0.2-0.5-0.1-1-0.6-1c-0.4,0-0.8,0-1.2,0c-4.6,0-8.9,1.3-12.6,3.5c-0.3,0.2-0.4,0.6-0.2,0.9L-265.9,383.3z"/>
</g>
<path class="st1" d="M-241.8,373"/>
<path class="st1" d="M-257.4,400.1"/>
<g class="st2">
	<path class="st3" d="M-238.8,401.1c-0.3,0.3-0.4,0.4-0.7,0.7c0,0.7-0.1,1.4-0.2,2.1c-0.1,0.4,0.3,0.8,0.7,0.8h7.4
		c0.3,0,0.6-0.2,0.7-0.6c0.1-0.7,0.2-1.5,0.2-2.3c0-0.4-0.3-0.7-0.7-0.7H-238.8z"/>
	<path class="st3" d="M-247.3,385.8c1.6,1.2,3,2.6,4.2,4.2c0.2,0.3,0.6,0.4,0.9,0.2l6.5-3.8c0.4-0.2,0.5-0.7,0.2-1
		c-2.4-3.2-5.7-5.9-9.4-7.6c-0.4-0.2-0.9,0.1-1,0.5l-1.5,6.1l-0.2,0.7C-247.7,385.4-247.6,385.7-247.3,385.8z"/>
	<path class="st3" d="M-241.4,392.8c0.9,1.8,1.5,3.7,1.7,5.7c0,0.3,0.3,0.6,0.7,0.6h7.6c0.4,0,0.7-0.3,0.7-0.7
		c-0.2-3.6-1.2-7-2.9-10.1c-0.2-0.3-0.6-0.5-1-0.3l-6.6,3.8C-241.5,392.1-241.6,392.5-241.4,392.8z"/>
</g>
</svg>
