<?xml version="1.0" encoding="utf-8"?>
<!-- Generator: Adobe Illustrator 19.0.0, SVG Export Plug-In . SVG Version: 6.00 Build 0)  -->
<svg version="1.1" id="Layer_1" xmlns="http://www.w3.org/2000/svg" xmlns:xlink="http://www.w3.org/1999/xlink" x="0px" y="0px"
	 viewBox="-280 372 50 50" style="enable-background:new -280 372 50 50;" xml:space="preserve">
<style type="text/css">
	.st0{opacity:0.3;fill:#231F20;}
</style>
<path id="XMLID_125_" class="st0" d="M-247.3,393.1h-14.9c0.2,1.2,0.4,2.4,0.5,3.6h13.4c-0.5,1.9-0.9,3.8-1.4,5.6
	c-0.1,0.6-0.2,1.1-0.3,1.4c-0.2,0.8-0.4,1.1-0.4,1.3c-0.1,0-0.2,0-0.3,0c-1.9,0.1-3.4,0.9-4.5,4.2c-0.5,1.6-0.9,3-1.2,4.3
	c-0.8,3.2-1.1,3.9-1.9,4c-1.8-2.1-4.4-14.2-5.9-24.7c-0.1-0.5-1.5-10.8-8.5-11.4v3.6c3.4,0.7,4.7,6.6,4.9,7.9h-4.9v3.6h5.4
	c3.6,23.5,7,24.5,8.5,24.5c0.1,0,0.1,0,0.2,0c4-0.1,4.8-3.4,5.6-6.8c0.3-1.2,0.6-2.6,1.1-4c0.6-1.7,0.8-1.7,1.3-1.8
	c1.8-0.1,3.2-0.9,3.9-4c0.1-0.4,0.2-0.9,0.3-1.5c3.6-15.3,6.5-22.3,8.7-25.4v-4.9C-241.6,375.3-244.8,383.7-247.3,393.1z"/>
<path id="XMLID_126_" class="st0" d="M-242.7,396.7h5.3v-3.6h-4.3C-242.1,394.2-242.4,395.4-242.7,396.7z"/>
</svg>
