<?xml version="1.0" encoding="utf-8"?>
<!-- Generator: Adobe Illustrator 19.0.0, SVG Export Plug-In . SVG Version: 6.00 Build 0)  -->
<svg version="1.1" id="Layer_1" xmlns="http://www.w3.org/2000/svg" xmlns:xlink="http://www.w3.org/1999/xlink" x="0px" y="0px"
	 viewBox="-268 359 75 75" style="enable-background:new -268 359 75 75;" xml:space="preserve">
<style type="text/css">
	.st0{fill:#E2E3E4;}
	.st1{fill:#231F20;}
</style>
<g>
	<path class="st0" d="M-245.1,423.5c-7.5,0-13.6-6.1-13.6-13.6c0-6.7,4.9-12.3,11.3-13.4c-6.4-1.1-11.3-6.7-11.3-13.4
		c0-7.5,6.1-13.6,13.6-13.6s13.6,6.1,13.6,13.6c0,1.4-0.2,2.8-0.6,4.1l6.5,4.5l17.2-11.8c0.7-0.5,1.5-0.7,2.3-0.7
		c1.3,0,2.6,0.6,3.3,1.7c0.6,0.9,0.8,1.9,0.6,3s-0.8,2-1.7,2.6l-14.7,10.1l14.7,10.1c0.9,0.6,1.5,1.5,1.7,2.6s0,2.1-0.6,3
		c-0.7,1.1-2,1.7-3.3,1.7c-0.8,0-1.6-0.2-2.3-0.7l-17.2-11.8l-6.5,4.5c0.4,1.3,0.6,2.7,0.6,4.1
		C-231.5,417.4-237.7,423.5-245.1,423.5z M-245.1,403.4c-3.6,0-6.5,2.9-6.5,6.5s2.9,6.5,6.5,6.5s6.5-2.9,6.5-6.5
		S-241.6,403.4-245.1,403.4z M-242.8,396.5c2.2,0.4,4.3,1.3,6.1,2.7l4-2.7l-4-2.7C-238.5,395.2-240.6,396.1-242.8,396.5z
		 M-245.1,376.6c-3.6,0-6.5,2.9-6.5,6.5s2.9,6.5,6.5,6.5s6.5-2.9,6.5-6.5S-241.6,376.6-245.1,376.6z"/>
	<path class="st1" d="M-245.1,371c6.7,0,12.1,5.4,12.1,12.1c0,1.6-0.3,3.2-0.9,4.7l8.3,5.7l18-12.4c0.4-0.3,0.9-0.4,1.4-0.4
		c0.8,0,1.6,0.4,2.1,1.1c0.8,1.1,0.5,2.7-0.6,3.5l-16.5,11.3l16.5,11.3c1.1,0.8,1.4,2.3,0.6,3.5c-0.5,0.7-1.3,1.1-2.1,1.1
		c-0.5,0-1-0.1-1.4-0.4l-18-12.4l-8.3,5.7c0.6,1.4,0.9,3,0.9,4.7c0,6.7-5.4,12.1-12.1,12.1s-12.1-5.4-12.1-12.1s5.4-12.1,12.1-12.1
		c3.2,0,6.1,1.3,8.3,3.3l6.7-4.6l-6.7-4.6c-2.2,2.1-5.1,3.3-8.3,3.3c-6.7,0-12.1-5.4-12.1-12.1S-251.8,371-245.1,371 M-245.1,391.1
		c4.4,0,8-3.6,8-8s-3.6-8-8-8s-8,3.6-8,8S-249.6,391.1-245.1,391.1 M-245.1,417.9c4.4,0,8-3.6,8-8s-3.6-8-8-8s-8,3.6-8,8
		S-249.6,417.9-245.1,417.9 M-245.1,368c-8.3,0-15.1,6.8-15.1,15.1c0,5.8,3.3,10.9,8.1,13.4c-4.8,2.5-8.1,7.6-8.1,13.4
		c0,8.3,6.8,15.1,15.1,15.1s15.1-6.8,15.1-15.1c0-1.2-0.1-2.3-0.4-3.5l4.7-3.3l16.3,11.3c0.9,0.6,2,1,3.1,1c1.8,0,3.5-0.9,4.5-2.4
		c0.8-1.2,1.1-2.7,0.9-4.1c-0.3-1.4-1.1-2.7-2.3-3.5l-12.9-8.9l12.9-8.9c1.2-0.8,2-2.1,2.3-3.5c0.3-1.4,0-2.9-0.9-4.1
		c-1-1.5-2.7-2.4-4.5-2.4c-1.1,0-2.2,0.3-3.1,1l-16.3,11.3l-4.7-3.3c0.3-1.1,0.4-2.3,0.4-3.4C-230,374.8-236.8,368-245.1,368
		L-245.1,368z M-245.1,388.1c-2.8,0-5-2.2-5-5s2.2-5,5-5s5,2.2,5,5S-242.4,388.1-245.1,388.1L-245.1,388.1z M-238.2,396.5
		c0.5-0.3,1-0.6,1.5-0.9l1.3,0.9l-1.3,0.9C-237.2,397.1-237.7,396.8-238.2,396.5L-238.2,396.5z M-245.1,414.9c-2.8,0-5-2.2-5-5
		c0-2.8,2.2-5,5-5s5,2.2,5,5C-240.1,412.7-242.4,414.9-245.1,414.9L-245.1,414.9z"/>
</g>
</svg>
