<?xml version="1.0" encoding="utf-8"?>
<!-- Generator: Adobe Illustrator 19.0.0, SVG Export Plug-In . SVG Version: 6.00 Build 0)  -->
<svg version="1.1" id="Layer_1" xmlns="http://www.w3.org/2000/svg" xmlns:xlink="http://www.w3.org/1999/xlink" x="0px" y="0px"
	 viewBox="-280 372 50 50" style="enable-background:new -280 372 50 50;" xml:space="preserve">
<style type="text/css">
	.st0{fill:#FFFFFF;}
	.st1{fill:none;stroke:#FFFFFF;stroke-width:3;stroke-miterlimit:10;}
</style>
<g>
	<path class="st0" d="M-231.7,400.6v3.2h-5c-0.6,3.4-0.8,6.7-0.8,9.9c0,1.3,0.3,2.3,0.8,2.9c0.5,0.6,1.2,0.9,1.9,0.9
		c1.4,0,2.2-0.8,2.4-2.4h0.8c-0.3,2.1-0.8,3.6-1.6,4.6c-0.8,1-1.8,1.4-2.8,1.4c-1,0-1.9-0.5-2.7-1.5c-0.7-1-1.1-3-1.1-6
		c0-2.8,0.3-6,0.8-9.7h-5.1l-0.4,5.3c-0.1,1.9-0.4,3.8-0.7,5.9c-0.4,2.1-0.7,3.5-1.1,4.2c-0.3,0.7-0.7,1.2-1,1.4s-0.7,0.3-1,0.3
		c-0.5,0-1-0.2-1.4-0.5c-0.4-0.4-0.6-0.8-0.6-1.3c0-0.4,0.1-0.8,0.2-1.1s0.5-0.9,1.2-1.8c0.7-1,1.3-2.2,1.5-3.6
		c0.3-1.4,0.5-4.4,0.8-8.9h-0.6c-1,0-1.8,0.2-2.4,0.6c-0.6,0.4-1.3,1.2-2.1,2.5h-0.8c0.4-1.6,1-2.9,1.7-3.9c0.7-1,1.4-1.6,2.1-1.9
		c0.7-0.3,1.8-0.4,3.2-0.4H-231.7z"/>
</g>
<line class="st1" x1="-278.3" y1="420.3" x2="-231.7" y2="373.7"/>
<g>
	<path class="st0" d="M-277.4,384.6c0-2.7,1.1-5.1,3.2-7.1c2.1-2,4.8-3.1,7.9-3.1c2.9,0,5.5,0.9,7.6,2.8s3.2,4.1,3.2,6.8
		c0,2.7-1.1,5.2-3.3,7.3c-2.2,2.1-4.8,3.2-7.8,3.2c-3,0-5.6-1-7.7-2.9C-276.4,389.6-277.4,387.3-277.4,384.6z M-272.6,384.4
		c0,2.4,0.6,4.5,1.8,6.2c1.2,1.7,2.7,2.5,4.4,2.5c1.6,0,3-0.8,4.3-2.3c1.2-1.6,1.8-3.6,1.8-6.1c0-2.3-0.6-4.3-1.8-6.1
		s-2.7-2.7-4.6-2.7c-1.7,0-3.1,0.8-4.2,2.5C-272,379.9-272.6,382-272.6,384.4z"/>
</g>
</svg>
