<?xml version="1.0" encoding="utf-8"?>
<!-- Generator: Adobe Illustrator 23.1.0, SVG Export Plug-In . SVG Version: 6.00 Build 0)  -->
<svg version="1.1" id="Layer_1" xmlns="http://www.w3.org/2000/svg" xmlns:xlink="http://www.w3.org/1999/xlink" x="0px" y="0px"
	 viewBox="0 0 100 100" style="enable-background:new 0 0 100 100;" xml:space="preserve">
<style type="text/css">
	.st0{opacity:0.2;fill:#FFFFFF;enable-background:new    ;}
	.st1{fill:#FFFFFF;}
</style>
<path class="st0" d="M50,12c21,0,38,17,38,38S71,88,50,88S12,71,12,50S29,12,50,12 M50,5C25.1,5,5,25.1,5,50s20.1,45,45,45
	s45-20.1,45-45S74.9,5,50,5L50,5z"/>
<path class="st1" d="M67.1,29.2c0.2-0.4-0.3-0.8-0.7-0.5L47,47.2c-0.3,0.2-0.6,0.5-0.8,0.8l0,0h0c-0.9,1.1-1.4,2.6-1.1,4.2
	c0.4,2,2,3.6,4,3.9c2.4,0.4,4.5-0.9,5.4-2.8L67.1,29.2z"/>
<g>
	<path class="st1" d="M68.5,32.1l-4.4,8.5c0.4,0.6,0.8,1.2,1.1,1.9c0.5,1,1.7,1.5,2.8,1l4.7-2.1c1.1-0.5,1.6-1.8,1-2.9
		C72.3,36.2,70.6,34,68.5,32.1z"/>
	<path class="st1" d="M25.4,49.7c0,7.5,3.7,14.3,9.4,18.7c0.3,0.3,0.7-0.2,0.4-0.5c-4-4-6.4-9.6-6.1-15.8c0.5-8.9,7-16.4,15.6-18.7
		c4.5-1.2,8.5-0.7,11.9,0.9l6.2-5.9c-3.6-1.8-7.6-2.8-11.9-2.8C36.9,25.6,25.4,36.4,25.4,49.7z"/>
</g>
</svg>
